<svg xmlns="http://www.w3.org/2000/svg" xml:space="preserve" style="enable-background:new 0 0 600 261.4" viewBox="0 0 600 261.4"><path d="M99.6 232.6v-26.8H27.3c-9.1 0-15.9-2.1-20.5-6.2S0 189.9 0 182.8c0-1.8.3-3.7 1-5.5.7-1.9 1.7-3.8 3-5.9 1.3-2.1 2.7-4.1 4.2-6 1.4-1.9 3.2-4.3 5.3-7l76.3-102c5-6.7 9.1-11.6 12.3-14.6 3.2-3 7.1-4.5 11.6-4.5 14.6 0 21.9 8.3 21.9 25v111.4h6.2c7.4 0 13.3 1 17.8 3s6.7 6.4 6.7 13.2c0 5.5-1.8 9.6-5.5 12.1-3.6 2.5-9.1 3.8-16.4 3.8h-8.8v26.8c0 7.4-1.6 12.9-4.9 16.5-3.3 3.6-7.6 5.4-13.1 5.4-5.4 0-9.7-1.8-13-5.5-3.4-3.8-5-9.2-5-16.4zm-61.9-58.9h61.9V90l-61.9 83.7zM533.4 232.6v-26.8h-72.2c-9.1 0-16-2.1-20.5-6.2-4.6-4.1-6.8-9.7-6.8-16.8 0-1.8.3-3.7 1-5.5.7-1.9 1.7-3.8 3-5.9 1.3-2.1 2.7-4.1 4.2-6 1.4-1.9 3.2-4.3 5.3-7l76.3-102c5-6.7 9.1-11.6 12.3-14.6 3.2-3 7.1-4.5 11.6-4.5 14.6 0 21.9 8.3 21.9 25v111.4h6.2c7.4 0 13.3 1 17.8 3s6.7 6.4 6.7 13.2c0 5.5-1.8 9.6-5.5 12.1-3.6 2.5-9.1 3.8-16.4 3.8h-8.8v26.8c0 7.4-1.6 12.9-4.9 16.5-3.3 3.6-7.6 5.4-13.1 5.4-5.4 0-9.7-1.8-13-5.5-3.4-3.8-5.1-9.2-5.1-16.4zm-61.9-58.9h61.9V90l-61.9 83.7z" style="fill:#e33419"/><path d="M393.5 211.5c-1.3-4.2-2.8-8.2-4.5-11.9-3.2-6.8-7.2-12.5-12.3-17.5-9.2-9.2-20.1-14.3-30.6-19.2-13-6-25.3-11.8-32.3-24.9-6.9-13-9-28.1-9.6-38.4-.6-11.3.5-19.7.5-19.8.2-1.5-.9-2.8-2.3-3-1.5-.2-2.8.8-3 2.3 0 .4-1.1 8.8-.5 20.6.4 6.9 1.2 13.6 2.6 19.8 1.7 7.8 4.3 14.9 7.6 21 1.9 3.6 4.2 6.7 6.9 9.7 2.4 2.6 5.2 5 8.5 7.2 6 4.1 12.5 7.2 19.4 10.4 19.8 9.2 40.3 18.7 47.1 56.2 1.9.2 3.8.4 5.6.6-.9-4.6-1.9-9-3.1-13.1z" style="fill:#007fff"/><path d="M324.5 157.5c5.9 4.1 12.4 7.1 19.3 10.3.3.1.5.2.8.4 1.7-1.1 3.3-2.4 4.9-3.7-1.1-.5-2.3-1.1-3.4-1.6-5.4-2.5-10.7-5-15.6-8-2 1-4 1.9-6 2.6z" style="fill:#37abdd"/><path d="M309.8 205.7c1.8 1.2 4.3.8 5.5-1l.1-.2c1.2-1.8.8-4.3-1-5.5l-111.6-76.1c-1.8-1.2-4.3-.8-5.5 1l-.1.2c-1.2 1.8-.8 4.3 1 5.5l111.6 76.1z" style="fill:#f4c09b"/><path d="M312 211.2c2.9 0 5.6-1.4 7.2-3.8l.1-.2c2.7-4 1.7-9.4-2.3-12.1L205.4 119c-1.5-1-3.2-1.5-4.9-1.5-2.9 0-5.6 1.4-7.2 3.8l-.1.2c-2.7 4-1.7 9.4 2.3 12.1l111.6 76.1c1.4.9 3.1 1.5 4.9 1.5z" style="fill:#f9c29d"/><path d="M340 166h-54.6v78.3H340V166z" style="fill:#f9c29d"/><path d="M391.3 226.8c-.1-.9-.3-1.9-.5-2.8-19.6-2.1-43-3.3-68.2-3.3-68.9 0-124.6 9.1-124.6 20.4 0 9.1 36.7 16.9 87.4 19.4v-31.2H340v31.9c17.8-.4 34.4-1.4 49-2.9 3.5-8 4.3-18.5 2.3-31.5zM447.3 241c0-6.7-20-12.7-50.9-16.4.1.4.1.9.2 1.3.8 4.9 1.1 9.5 1.1 13.8 0 4.8-.5 9.3-1.4 13.3-.4 1.6-.8 3.1-1.3 4.5 31.7-3.6 52.3-9.6 52.3-16.5z" style="fill:#092054"/><path d="M397.8 239.8c0-4.3-.4-8.9-1.1-13.8-.1-.4-.1-.9-.2-1.3-1.8-.2-3.7-.4-5.6-.6.2.9.3 1.8.5 2.8 2 13 1.2 23.5-2.4 31.5 2.1-.2 4.1-.4 6.1-.7.5-1.5 1-3 1.3-4.5.9-4.1 1.4-8.6 1.4-13.4zM285.2 229.6v30.9c11.8.6 24.4.9 37.4.9 5.9 0 11.6-.1 17.3-.2v-31.7h-54.7z" style="fill:#007fff"/><path d="M339.9 229.6h-54.7v10.8h54.7v-10.8z" style="fill:#007fff"/><path d="M339.9 209h-54.7v10.8h54.7V209z" style="fill:#df8c79"/><path d="m269.3 171.8-71-78.1c-1.5-1.6-1.4-4.1.3-5.6l.2-.2c1.6-1.5 4.1-1.3 5.6.3l76 83.5h-11.1z" style="fill:#f4c09b"/><path d="M267.2 176.6h23.9l-83.3-91.5c-1.7-1.8-4-2.9-6.5-2.9-2.2 0-4.3.8-5.9 2.3l-.2.2c-3.6 3.2-3.8 8.8-.6 12.3l72.6 79.6z" style="fill:#f9c29d"/><path d="M257.3 160.4 212 62.1c-.9-1.9.1-4.1 2-5l.2-.1c2-.9 4.3-.1 5.1 1.7l46.8 101.7h-8.8z" style="fill:#f4c09b"/><path d="M254.3 165.2h19.5l-50-108.5c-1.4-3-4.4-4.9-7.7-4.9-1.3 0-2.5.3-3.7.8l-.2.1c-4.4 2-6.3 7.1-4.4 11.4l46.5 101.1z" style="fill:#f9c29d"/><path d="M268.5 227.6c0 2.6 2.1 4.8 4.8 4.8h78.4c2.6 0 4.8-2.1 4.8-4.8v-6.7c0-2.6-2.1-4.8-4.8-4.8h-78.4c-2.6 0-4.8 2.1-4.8 4.8v6.7z" style="fill:#007fff"/><path d="M265.4 46.1c-.1 1.2-.1 2.3-.1 3.5 0 28.8 18.7 52.2 41.7 52.2 23 0 41.7-23.4 41.7-52.2 0-1.2 0-2.3-.1-3.5h-83.2z" style="fill:#1d6dcc"/><path d="M292 74.5c-30.4-8.5-22.7-5.3-22.8-2.8 4.6 12.2 12.8 21.8 22.9 26.7.1.1.3.1.4.2h.1c.1.1.3.1.4.2h.1c.1.1.3.1.4.2h.1c.1 0 .1.1.2.1 4.1 1.7 8.6 2.7 13.2 2.7 23 0 41.7-23.4 41.7-52.2 0-1.2 0-2.4-.1-3.5h-27.4c6.4 14.3.1 36.6-29.2 28.4z" style="fill:#0f63b7"/><path d="M303.3 94.9c-4.6 0-9-.9-13.2-2.7-.1 0-.1-.1-.2-.1 0 0-.1 0-.1-.1-.1-.1-.3-.1-.4-.2h-.1c-.1-.1-.3-.1-.4-.2h-.1c-.1-.1-.3-.1-.4-.2-7.1-3.4-13.3-9.2-17.9-16.6 4.7 10.7 12.4 19.1 21.6 23.5.1.1.3.1.4.2h.1c.1.1.3.1.4.2h.1c.1.1.3.1.4.2h.1c.1 0 .1.1.2.1 4.1 1.7 8.6 2.7 13.2 2.7 23 0 41.7-23.4 41.7-52.2 0-1.2 0-2.4-.1-3.5h-3.7c-1.4 27-19.5 48.9-41.6 48.9z" style="fill:#0b61a8"/><path d="M307 60.9c23 0 41.7-6.7 41.7-15s-18.7-15-41.7-15c-23 0-41.7 6.7-41.7 15s18.7 15 41.7 15z" style="fill:#007fff"/><path d="M307 58.9c23 0 41.7-6.7 41.7-15s-18.7-15-41.7-15c-23 0-41.7 6.7-41.7 15s18.7 15 41.7 15z" style="fill:#00c3ff"/><path d="M320.5 35.5c0 8.3-18.7 15-41.7 15-3.4 0-6.6-.1-9.8-.4 6.6 5.2 21.1 8.8 38 8.8 23 0 41.7-6.7 41.7-15 0-7.1-13.6-13-31.9-14.6 2.3 1.9 3.7 4 3.7 6.2z" style="fill:#00b1ff"/><path d="M293.1 45.1c0 1.9-1.5 3.4-3.4 3.4h-.5c-1.9 0-3.4-1.5-3.4-3.4V3.7c0-1.9 1.5-3.4 3.4-3.4h.5c1.9 0 3.4 1.5 3.4 3.4v41.4z" style="fill:#f2f0f0"/><path d="M290.3 41.2c0 1.9-1.4 3.5-3.3 3.5h-.4c-.1 0-.2-.1-.9-.1v.4c0 1.9 2.1 3.5 4 3.5h.4c1.9 0 3.3-1.6 3.3-3.5V3.4c0-1.8-1-3.3-3.1-3.4v41.2z" style="fill:#cccaca"/><path d="M328.1 45.1c0 1.9-1.5 3.4-3.4 3.4h-.5c-1.9 0-3.4-1.5-3.4-3.4V3.7c0-1.9 1.5-3.4 3.4-3.4h.5c1.9 0 3.4 1.5 3.4 3.4v41.4z" style="fill:#f2f0f0"/><path d="M324.9 41.2c0 1.9-1.4 3.5-3.3 3.5h-.4c-.1 0 .2-.1-.5-.1v.4c0 1.9 1.7 3.5 3.6 3.5h.4c1.9 0 3.4-1.6 3.4-3.5V3.4c0-1.8-1-3.3-3.1-3.4l-.1 41.2z" style="fill:#cccaca"/><path d="M307.5 175.5c33 0 59.8-26.8 59.8-59.8 0-16.3-6.4-31.4-18-42.8-3.7-3.6-9.6-3.5-13.2.2-3.6 3.7-3.5 9.6.2 13.2 8 7.8 12.4 18.3 12.4 29.4 0 22.7-18.4 41.1-41.1 41.1-22.7 0-41.1-18.4-41.1-41.1 0-10.7 4.1-20.8 11.5-28.5 3.6-3.7 3.4-9.6-.3-13.2-3.7-3.6-9.6-3.4-13.2.3-10.7 11.2-16.7 25.9-16.7 41.4-.1 33 26.7 59.8 59.7 59.8z" style="fill:#f9c29d"/></svg>