<svg xmlns="http://www.w3.org/2000/svg" xml:space="preserve" style="enable-background:new 0 0 38.6 41" viewBox="0 0 38.6 41"><path d="M20.9 8.8c-.1-1-1.1-.8-2-.8.7.2 1.3.5 2 .8zM10.4 6.4c-3.8 0-5.5 4.8-2.5 7.2 1-2.8 3.1-4.7 5.8-5.5-.7-1-1.9-1.7-3.3-1.7z" style="fill:#007fff"/><path d="M2.6 12.8c.2.5.4 1 .6 1.4L2 15.5c-.3.3-.3.9 0 1.2l2.2 2.2c.2.2.4.2.6.2.2 0 .4-.1.6-.2l1.2-1.2c.2.1.4.2.6.2 0-1 .1-2 .3-2.9C6 14 5 12.3 5 10.4 5 7.4 7.4 5 10.4 5c2 0 3.8 1.1 4.7 2.8 1-.1 1.9-.1 3.1.1-.2-.5-.3-.9-.5-1.3l1.2-1.2c.2-.2.3-.4.3-.6 0-.2-.1-.4-.3-.6L16.7 2c-.2-.2-.4-.3-.6-.3-.2 0-.4.1-.6.3l-1.2 1.2c-.5-.2-.9-.4-1.4-.6V.9c-.1-.5-.4-.9-.9-.9H8.9c-.5 0-.9.4-.9.9v1.8c-.5.1-.9.3-1.4.5L5.4 2c-.2-.2-.4-.3-.6-.3-.3 0-.5.1-.6.3L2 4.2c-.2.1-.3.3-.3.6 0 .2.1.4.3.6l1.2 1.2c-.2.5-.4.9-.6 1.4H.9c-.5 0-.9.4-.9.9V12c0 .5.4.9.9.9h1.7zM29.5 29.4c1.4-.8 2.3-2.2 2.3-3.9 0-2.4-2-4.4-4.4-4.4-.9 0-1.7.3-2.3.7-.4 1.6-1 3.2-1.9 4.5 2.3.5 4.5 1.6 6.3 3.1z" style="fill:#007fff"/><path d="M38.6 23.9c0-.5-.4-.9-.9-.9h-1.9l-.6-1.5 1.3-1.3c.2-.2.3-.4.3-.7 0-.2-.1-.5-.3-.7l-2.4-2.4c-.2-.2-.4-.3-.7-.3-.2 0-.5.1-.7.3l-1.3 1.3c-.5-.3-1-.5-1.5-.6v-1.9c0-.5-.4-.9-.9-.9h-3.3c-.2 0-.4.1-.6.2.3 1 .4 2.1.4 3.3 0 .8-.1 1.5-.2 2.3.6-.2 1.3-.4 2-.4 3.2 0 5.8 2.6 5.8 5.8 0 2-1.1 3.8-2.7 4.9 1.2 1.3 2.1 2.8 2.7 4.5.1 0 .2.1.3.1.2 0 .5-.1.7-.3l2.4-2.4c.2-.2.3-.4.3-.7s-.1-.5-.3-.7l-1.3-1.3c.3-.5.5-1 .6-1.5h1.9c.2 0 .5-.1.7-.3.2-.2.3-.4.3-.7l-.1-3.2zM31.3 35.8c-1.4-4.2-5.2-7.1-9.6-7.5-1.5 1.6-3.3 2.5-5.3 2.5-2.1 0-3.9-1-5.3-2.5-4.4.4-8.2 3.3-9.6 7.5l-.8 2.3c-.2.7-.1 1.4.3 2 .3.6 1 .9 1.7.9H30c.7 0 1.4-.3 1.8-.9.4-.6.5-1.3.3-2l-.8-2.3z" style="fill:#007fff"/><path d="M9.2 17.9c0 5.2 3.2 10.9 7.1 10.9 3.9 0 7.1-5.6 7.1-10.9C23.5 7 9.2 7 9.2 17.9z" style="fill:#007fff"/></svg>