<svg xmlns="http://www.w3.org/2000/svg" xml:space="preserve" style="enable-background:new 0 0 41 39" viewBox="0 0 41 39"><path d="M12.3 8.2c-1.1 1.2-1 3 .1 4.1.6.6 1.4.9 2.1.9.8 0 1.5-.3 2.1-.9l4.1-4.1h5.6l9.4 9.4 5.4-5L28.7 0l-2.4 2.4h-6.4c-.9 0-1.7.3-2.4.7-.2.2-.4.3-.6.5l-4.4 4.5-.2.1z" style="fill:#007fff"/><path d="M25.3 10.6h-3.5L18.4 14c-1 1-2.4 1.6-3.9 1.6s-2.8-.6-3.8-1.6-1.6-2.4-1.6-3.8.6-2.8 1.6-3.8L15.1 2l.2-.2L13.6.7.7 15.2l1.7 3.1c.7-.4 1.5-.6 2.4-.6 1.4 0 2.7.5 3.6 1.5.7.7 1.1 1.5 1.4 2.5.9.2 1.8.7 2.5 1.4s1.2 1.6 1.4 2.5c.9.2 1.8.7 2.5 1.4s1.1 1.5 1.4 2.5c.9.2 1.8.7 2.5 1.4 2 2 2 5.2 0 7.2l-.4-.1c.7.7 1.6 1 2.5 1 1 0 2-.4 2.7-1.1.5-.5.8-1 .9-1.6.4.1.8.2 1.2.2 1 0 2-.4 2.7-1.1.5-.5.9-1.2 1-1.8.3.1.5.1.8.1 1 0 2-.4 2.7-1.1.9-.9 1.2-2.1 1.1-3.3.7-.1 1.4-.5 2-1.1 1.5-1.5 1.5-3.9 0-5.4l-12-12.2z" style="fill:#007fff"/><path d="M18.1 32.4c-.5-.5-1.1-.7-1.7-.8h-.5c-.5 0-1.1.3-1.5.6h-.1c.4-.4.7-1 .7-1.5v-.4a2.732 2.732 0 0 0-2.7-2.7h-.1c-.2 0-.5 0-.7.1-.4.1-.8.3-1.1.6.3-.3.5-.7.7-1.1.1-.3.1-.5.1-.8v-.2c0-.6-.3-1.2-.8-1.7-.4-.3-1.1-.5-1.8-.5h-.1c-.4 0-.8.1-1.1.3-.2.1-.5.3-.7.5.2-.2.3-.4.4-.6.2-.4.3-.8.3-1.1V23a2.732 2.732 0 0 0-2.7-2.7c-.4 0-.8.1-1.2.3-.2.1-.4.2-.6.4l-.1.1-2 1.9c-.5.5-.8 1.2-.8 1.9 0 1.4 1.2 2.6 2.5 2.7h.2c.7 0 1.3-.2 1.8-.7l-.3.3-.1.1-.1.1c-.3.4-.5.9-.6 1.4-.2 1.5 1 2.9 2.5 3 .8 0 1.6-.2 2.1-.8-.5.5-.8 1.2-.8 1.8v.1c0 1.5 1.2 2.7 2.7 2.7.4 0 .8-.1 1.2-.3.3-.1.5-.3.7-.5l1.2-1.2c-.6.6-.8 1.5-.6 2.3.3 1.2 1.4 2.2 2.7 2.2.7 0 1.4-.3 1.9-.8l1-1 .2-.2c1-1 1-2.6-.1-3.7z" style="fill:#007fff"/></svg>