<svg xmlns="http://www.w3.org/2000/svg" xml:space="preserve" style="enable-background:new 0 0 40.9 41" viewBox="0 0 40.9 41"><path d="M25 20.6c-.9.9-1.8 2-2.7 3.6-.9-3.1-1.9-5.3-3-7C24.2.6 0 0 0 0s.7 20.8 13.4 20.3c0-1.4-.2-2.8-.5-4.1-.2-.9-.4-1.7-.7-2.4-.8-2.5-1.7-4.3-1.7-4.3.9 1.2 1.7 2.4 2.5 3.5 2.5 3.8 3.8 6.8 4.5 8.4 1.6 3.3 3 8.8 3 17.8 0 1 .8 1.8 1.8 1.8s1.8-.8 1.8-1.8c0-2.9-.1-5.5-.4-7.8.6-2.8 1.5-4.8 2.4-6.2.6-1.1 1.7-3.1 3.2-5.1 1.3-1.8 3-3.6 4.8-4.9 0 0-3.8 4.2-4.1 8.3 10.5.5 10.9-16 10.9-16S21.6 8.1 25 20.6z" style="fill:#007fff"/></svg>