<svg xmlns="http://www.w3.org/2000/svg" xml:space="preserve" style="enable-background:new 0 0 41 41" viewBox="0 0 41 41"><path d="m40 15.8-3.2-.7c-.3-.8-.6-1.7-1-2.4l1.7-2.7c.3-.5.2-1.1-.2-1.5l-4.9-4.9c-.4-.4-1-.5-1.5-.2l-2.7 1.7c-.8-.4-1.6-.7-2.4-1L25.2 1c-.2-.6-.7-1-1.2-1h-7c-.6 0-1.1.4-1.2 1l-.7 3.2c-.8.3-1.7.6-2.4 1L10 3.4c-.5-.3-1.1-.3-1.5.1l-5 5c-.4.4-.5 1-.2 1.5L5 12.7c-.4.8-.7 1.6-1 2.4l-3 .7c-.6.2-1 .7-1 1.2v7c0 .6.4 1.1 1 1.2l3.2.7c.3.8.6 1.7 1 2.4L3.4 31c-.3.5-.2 1.1.2 1.5l4.9 4.9c.4.4 1 .5 1.5.2l2.7-1.7c.8.4 1.6.7 2.4 1l.7 3.2c.1.6.6 1 1.2 1h7c.6 0 1.1-.4 1.2-1l.7-3.2c.8-.3 1.7-.6 2.4-1l2.7 1.7c.5.3 1.1.2 1.5-.2l4.9-4.9c.4-.4.5-1 .2-1.5l-1.7-2.7c.4-.8.7-1.6 1-2.4l3.2-.7c.6-.1 1-.6 1-1.2v-7c-.1-.5-.5-1-1.1-1.2zm-12.1 4.7c0 4.1-3.3 7.4-7.4 7.4s-7.4-3.3-7.4-7.4 3.3-7.4 7.4-7.4 7.4 3.3 7.4 7.4z" style="fill:#007fff"/></svg>