<svg xmlns="http://www.w3.org/2000/svg" xml:space="preserve" style="enable-background:new 0 0 35 35" viewBox="0 0 35 35"><path d="M35 14.6v5.8c0 1.6-1.3 2.9-2.9 2.9h-.8C30.2 29.9 24.4 35 17.5 35c-.6 0-1.2-.5-1.2-1.2 0-.6.5-1.2 1.2-1.2 6.4 0 11.7-5.2 11.7-11.7v-7c0-6.4-5.2-11.7-11.7-11.7S5.8 7.6 5.8 14v8.2c0 .6-.5 1.2-1.2 1.2H2.9C1.3 23.3 0 22 0 20.4v-5.8c0-1.6 1.3-2.9 2.9-2.9h.8C4.8 5.1 10.6 0 17.5 0s12.7 5.1 13.8 11.7h.8c1.6 0 2.9 1.3 2.9 2.9zM17.5 4.7c-5.1 0-9.3 4.2-9.3 9.3v5.8c0 5.1 4.2 9.3 9.3 9.3s9.3-4.2 9.3-9.3V14c0-5.1-4.2-9.3-9.3-9.3z" style="fill:#007fff"/></svg>