<svg xmlns="http://www.w3.org/2000/svg" xml:space="preserve" style="enable-background:new 0 0 30.8 35.9" viewBox="0 0 30.8 35.9"><path d="M0 16.2c0-.9.8-1.7 1.7-1.7H29c.9 0 1.7.8 1.7 1.7v17.9c0 .9-.8 1.7-1.7 1.7H1.7C.8 35.8 0 35 0 34.1V16.2zm15.4 2.6c-2.4 0-4.3 1.9-4.3 4.3 0 1.8 1.1 3.3 2.6 3.9v2.9h3.4V27c1.5-.7 2.6-2.2 2.6-3.9-.1-2.4-2-4.3-4.3-4.3z" style="fill-rule:evenodd;clip-rule:evenodd;fill:#007fff"/><path d="M5.1 8.5C5.1 3.8 8.9 0 13.7 0h3.4c4.7 0 8.5 3.8 8.5 8.5v.9h-3.4v-.9c0-2.8-2.3-5.1-5.1-5.1h-3.4c-2.8 0-5.1 2.3-5.1 5.1v7.7H5.1V8.5z" style="fill-rule:evenodd;clip-rule:evenodd;fill:#007fff"/></svg>