<svg xmlns="http://www.w3.org/2000/svg" xmlns:xlink="http://www.w3.org/1999/xlink" xml:space="preserve" style="enable-background:new 0 0 41 41" viewBox="0 0 41 41"><defs><path id="a" d="M0 0h41v41H0z"/></defs><clipPath id="b"><use xlink:href="#a" style="overflow:visible"/></clipPath><g style="clip-path:url(#b)"><path d="M39.8 38.6h-1.3V14.9c0-.7-.5-1.2-1.2-1.2h-4.8c-.7 0-1.2.5-1.2 1.2v23.7h-2.4V22.9c0-.7-.5-1.2-1.2-1.2h-4.8c-.7 0-1.2.5-1.2 1.2v15.7h-2.4V27.3c0-.7-.5-1.2-1.2-1.2h-4.8c-.7 0-1.2.5-1.2 1.2v11.3H9.7v-8.4c0-.7-.5-1.2-1.2-1.2H3.7c-.7 0-1.2.5-1.2 1.2v8.4H1.2c-.7 0-1.2.5-1.2 1.2S.5 41 1.2 41h38.6c.7 0 1.2-.5 1.2-1.2s-.5-1.2-1.2-1.2z" style="fill:#007fff"/><path d="M1.2 25.8c7.5 0 15.6-2.7 22.9-7.6 5.7-3.8 10.4-8.7 13.4-13.7l1.2 4.4c.1.5.8 1 1.5.8.6-.2 1-.8.8-1.5L39 .9c-.2-.6-.8-1-1.5-.8l-7.3 2c-.6.2-1 .8-.8 1.5.2.6.8 1 1.5.8l4.7-1.3c-2.7 4.8-7.3 9.5-12.8 13.2-6.9 4.6-14.5 7.2-21.6 7.2-.7 0-1.2.5-1.2 1.2 0 .6.5 1.1 1.2 1.1z" style="fill:#007fff"/></g></svg>