<svg xmlns="http://www.w3.org/2000/svg" xml:space="preserve" style="enable-background:new 0 0 33.9 21.7" viewBox="0 0 33.9 21.7"><defs><filter id="a" width="33.9" height="21.7" x="0" y="0" filterUnits="userSpaceOnUse"><feColorMatrix values="1 0 0 0 0 0 1 0 0 0 0 0 1 0 0 0 0 0 1 0"/></filter></defs><mask id="b" width="33.9" height="21.7" x="0" y="0" maskUnits="userSpaceOnUse"><path d="M27.8 1.8 16.9 12.1 6.1 1.8 1.9 5.7l15 14.1 15-14.1-4.1-3.9z" style="fill:#fff;filter:url(#a)"/></mask><path d="m27.8 1.8.9-1-.9-.8-.9.9.9.9zM16.9 12.1l-.9.9.9.9.9-.9-.9-.9zM6.1 1.8l.9-1-.9-.8-.9.9.9.9zM1.9 5.7l-.9-1-1 1 1 1 .9-1zm15 14.1-.9 1 .9.9.9-.9-.9-1zm15-14.1.9 1 1-1-1-1-.9 1zm-5-4.8L16 11.1l1.8 1.9L28.7 2.8 26.9.9zm-9 10.2L7 .9 5.2 2.8 16 13l1.9-1.9zM5.2.9 1 4.7l1.8 1.9L7 2.8 5.2.9zM1 6.7l15 14.1 1.8-1.9L2.9 4.7 1 6.7zm16.9 14.1 15-14.1-1.9-2-15 14.2 1.9 1.9zm15-16.1L28.8.8 27 2.7l4 4 1.9-2z" style="mask:url(#b);fill:#fff"/></svg>