<svg xmlns="http://www.w3.org/2000/svg" xml:space="preserve" style="enable-background:new 0 0 25 25" viewBox="0 0 25 25"><circle cx="12.5" cy="12.5" r="12" style="fill:none;stroke:#8a8c8e"/><path d="M11.3 13.8c0-.4.1-.7.3-1 .2-.3.6-.6 1.1-.8l1-.5c.3-.1.5-.3.6-.4.2-.2.2-.4.2-.6 0-.4-.2-.7-.5-1-.4-.2-.9-.3-1.5-.3s-1.2.1-1.6.4c-.4.3-.6.6-.7 1.1H8.1c.1-1 .5-1.8 1.3-2.4.8-.6 1.8-.9 3.2-.9s2.4.3 3.1.8c.8.5 1.1 1.2 1.1 2.1 0 .4-.1.9-.4 1.2-.3.4-.7.7-1.2.9l-1.2.5c-.2.1-.4.2-.5.4-.1.1-.2.3-.2.5v.3h-2c0-.1 0-.2-.1-.2.1.1.1 0 .1-.1zm1 3.7c-.4 0-.7-.1-1-.3-.2-.2-.3-.5-.3-.9s.1-.6.4-.9c.2-.2.6-.3 1-.3s.7.1 1 .3c.2.2.4.5.4.9 0 .3-.1.6-.4.9-.3.2-.7.3-1.1.3z" style="fill:#8a8c8e"/></svg>