<svg xmlns="http://www.w3.org/2000/svg" xmlns:xlink="http://www.w3.org/1999/xlink" xml:space="preserve" style="enable-background:new 0 0 90 90" viewBox="0 0 90 90"><defs><path id="a" d="M0 0h90v90H0z"/></defs><clipPath id="b"><use xlink:href="#a" style="overflow:visible"/></clipPath><g style="clip-path:url(#b)"><path d="M0 0h90v90H0V0z" style="fill:#fff"/><path d="M30 5H5v25h25V5zm-5 20H10V10h15v15z" style="fill:#050912"/><path d="M20 15h-5v5h5v-5zM60 5v25h25V5H60zm20 20H65V10h15v15z" style="fill:#050912"/><path d="M75 15h-5v5h5v-5zM5 85h25V60H5v25zm5-20h15v15H10V65z" style="fill:#050912"/><path d="M20 70h-5v5h5v-5zM55 5H45v5h10V5zM45 25h5v-5h5v-5H40v-5h-5v10h10v5zM40 25h-5v5h5v-5zM55 30h-5v5H35v5h20V30zM10 50h5v-5h-5V35H5v20h5v-5zM20 35h-5v5h5v-5z" style="fill:#050912"/><path d="M35 55h10v-5h-5v-5H30V35h-5v10h-5v10h5v-5h10v5zM55 45h-5v10h5V45zM50 60H35v5h10v15H35v5h15v-5h10v-5H50V60z" style="fill:#050912"/><path d="M40 70h-5v5h5v-5zM60 60h-5v10h5V60zM80 70H65v15h5V75h10v-5z" style="fill:#050912"/><path d="M85 80H75v5h10v-5zM85 60h-5v5h5v-5zM65 65h5V50H60v5h5v10zM75 40h-5v-5h-5v5h-5v5h20v-5h5v-5H75v5zM85 50H75v5h10v-5z" style="fill:#050912"/></g></svg>