<svg xmlns="http://www.w3.org/2000/svg" xml:space="preserve" style="enable-background:new 0 0 88.9 63.7" viewBox="0 0 88.9 63.7"><path d="M88.6 38.2c-.3-.5-.9-.7-1.5-.7h-5.4V20.2c0-.9-.8-1.7-1.8-1.7H38.7c-1 0-1.8.8-1.8 1.7v17.3h-4.5V16.4c0-.9-.8-1.7-1.8-1.7H28V9.4c0-.9-.8-1.7-1.8-1.7l5.3-3V7c-.1.6-.2 2.5 1.1 3.9.5.5 1.5 1.2 3.1 1.2 1 0 1.8-.8 1.8-1.7 0-.9-.8-1.7-1.8-1.7-.1 0-.2 0-.3-.1-.2-.2-.3-.9-.2-1.3V1.7c0-.6-.4-1.2-.9-1.5-.6-.3-1.3-.3-1.9 0L19.1 7.7H14c-1 0-1.8.8-1.8 1.7v5.4H9.6c-1 0-1.8.8-1.8 1.7v21.1h-6c-1 0-1.8.8-1.8 1.7v7.9c0 3.5 1.6 6.8 4.5 9.1L6.8 58l-.9 3.6c-.1.5 0 1 .4 1.4.3.4.9.6 1.4.6h62.5c5.4 0 10.3-3.1 12.1-7.8l6.5-16.2c.2-.3.1-.9-.2-1.4zM28.7 22.3h-6.4c-1 0-1.8.8-1.8 1.7s.8 1.7 1.8 1.7h6.4v11.8H11.4V18.1h17.3v4.2zM45.1 28h-4.5v-6.1h4.5V28zm8.2 9.5h-4.5v-6.1h4.5v6.1zm8.2-9.5H57v-6.1h4.5V28zm8.3 9.5h-4.5v-6.1h4.5v6.1zM78 28h-4.5v-6.1H78V28z" style="fill:#3b58f6"/></svg>