<svg xmlns="http://www.w3.org/2000/svg" xml:space="preserve" style="enable-background:new 0 0 19.5 19.5" viewBox="0 0 19.5 19.5"><path d="M4.3 0c-.4 0-.8.1-1.1.4L.7 2.9C0 3.6-.2 4.5.1 5.4c.6 1.8 2.3 5.3 5.4 8.5 3.2 3.2 6.7 4.7 8.5 5.4.9.3 1.9.1 2.6-.5l2.4-2.4c.6-.6.6-1.7 0-2.3l-3-3c-.6-.6-1.7-.6-2.3 0l-1.5 1.5c-.5-.3-1.8-.9-3.1-2.1C7.9 9.3 7.2 8 7 7.4l1.5-1.5c.6-.6.6-1.7 0-2.3l-.1-.1-3-3.1C5 .1 4.7 0 4.3 0zm0 1.5c.1 0 .1 0 .2.1l3 3.1.1.1V5l-2 1.7-.4.4.2.5s.9 2.3 2.7 4l.2.1c1.7 1.6 3.8 2.5 3.8 2.5l.5.2 2.2-2.2c.1-.1.1-.1.2 0l3.1 3.1c.1.1.1.1 0 .2l-2.3 2.3c-.4.2-.8.3-1.2.2-1.7-.7-5-2.1-7.9-5.1-3-3-4.5-6.3-5.1-8-.1-.3 0-.8.2-1l2.3-2.3c.1-.1.1-.1.2-.1z" style="fill:#fff"/></svg>