<?xml version="1.0" encoding="utf-8"?>
<!-- Generator: Adobe Illustrator 24.0.3, SVG Export Plug-In . SVG Version: 6.00 Build 0)  -->
<svg version="1.1" id="Слой_1" xmlns="http://www.w3.org/2000/svg" xmlns:xlink="http://www.w3.org/1999/xlink" x="0px" y="0px"
	 viewBox="0 0 1021 680" style="enable-background:new 0 0 1021 680;" xml:space="preserve">

<path class="js-tab-link" data-target="crimea" style="fill:#ECEEF1;stroke:#FFFFFF;stroke-linecap:round;stroke-linejoin:round;" d="M818.5,599.6l0.1,0.5l-0.9,0.5l-1.2,2.2
	l-3.3,0.1l-2.8-1.3l-1.3,0.7l-0.4,1.8l2,1.3l-0.9,1l-2.4,0.7l-1.2,1.1l0.5,1.9l0.3-1.3l0.3,0.9l-2,4.3l1.1,6.2l1.9,3.2l-4.7,3.1
	l-6.4,0.5l-2.1,2l-11.1-1.8l-2,0.3l-1,1.3l-1.5,0.8l-2.6-0.5l-3.9,1.6l-0.5-1.1l-1.1-0.6l0-1.4l-2.1-2.3l-4.7-3.1l-6-1.8l-4.8,1
	l-3.3,1.8l-3,3.4l0.1,2l2,1l-3.8,1.9l-0.2,1l0.6,1l1.4,0.7l-0.3,0.5l-3.6-1.7l-3.4,0.4l-0.7,0.9l0.2,1.3l-0.8,1.6l-2.6,0.6l-1.7,1
	l-1.3,3l-0.3,2.8l-2.7,2.4l-1.9-0.7l0.1-1.1l-1.1-1.1l-1.7-0.4l-0.6,0.5l-1.3-0.9l-2.7,0.8l0,0.7l-1.3,0.4l-1.3-0.5l-8,0.8l-3.3,1.9
	l-3.5,1.1l-8.6,5l-2.4,3l-2.5,6.5l-1.2,0.6l-0.1,2.7l-2.3-0.4l-1.6,1l-1.5,2.7l-4.6,1l-2.3,5.1l-3.8,0.7l-1.5,1.2l-2.7,0.2l-0.9,0.7
	l-5.1-0.9l0.1-1.4l0.6-0.5h1.2l0.8-1.5l-4.3-7l-0.7-3.8l-4.7-2.4l-0.5-0.9l0.1-2.9l1.9-1.1l0.2-0.6l-0.4-1.8l-2.8-1.7l-4,1.6
	l-1.4-1.3l-0.2-1.2l0.7-0.8l1.6,0.2l1.1-0.6l-0.5-2.5l-0.9-0.8l-3.6-0.1l-1.4-0.9l-1.4,0.2l0.2-2.3l1.1,0.1l1.1-0.7l0.7-1.7l0.4-3.3
	l-0.7-5.2l0.2-1.7l-2.3-7l-2.7-3.9l-3.6-3.3l-3.6-1.7l-2.1,1.8l-2.6,0.1l-1.2,2l-1.3,0l-1.8-2.1l-2.4-0.8l-2-1.5l-4.8-5.9l-4.3-4
	l-4.5-2.8l-2.9-0.6l-5.6,0.3l-6,4.1l-8.8-2.6l1-1.1l0.1-1.1l-1.9-1.7l3.5-4.7l2.6-2.1l4.5-2.7l1.5-0.4l0.7,0.3l0.2-1.1l4.4-2.7
	l0.8,0.7l0.8-0.4l0.4,0.4l1.1-1.8l-0.3-0.6l-1.1,0l0.2-0.5l5-4.1l10.4-5.8l2.4-0.4l0.9-1.8l1.1-5.2l-0.4,1.4l0.7,1.2l2,1.5l1.3,0.2
	l6.2-2.7l4.1-4l1.3,0.8l0.4-0.8l1-0.3v-1l0.7-0.4l0.5,0l0.4,1.2l1.6-0.6l0.4,1l0.4,0l1.3-2.7l0.7,0.1l1.9-1.8l1.3,1.4l1,0.2l1.5,2.3
	l-0.2-5.2l0.9,0.1l1.7-1.6l1.7,0.3l0.2-0.5l-0.8-1.8l-4.7-0.3l-1.3,0.5l-0.1,0.5l-1.1-0.4l0.8-1.3l-0.9-7.3l1.6-2.4l-1.5-4.2
	l1.2-0.4l-1.2-7.1l1.6-0.3l2.4,2.3l0.9,0.2l0.5,2.5l0.6-0.6l0.5,0.2l-0.2,1.4l0.7,0.9l1.1,0.4l0.6-0.5l1.3,1.9l0.4,0.1l1.7-2.5
	l-0.9-0.4l-0.4-1.8l1-0.6l1.1,0.8l1.2,1.8v1l-1.5,1.8l0.4,0.7l-1.2-0.4l-0.1,0.8l1.6,0.2l2,1.7l0.8,2.9l-0.2,0.5l-0.7-0.4l-0.2,1.4
	l0.5-0.7l0.7,0.7l0.3-0.3l0-2.1l0.7-0.8l0.9-0.3l0.5,0.4l-0.5,0.2l0.2,0.8l0.7,1.7l0.5,0.1l0.5-0.3l-1.2-1.7l3-0.5l-0.8-0.8
	l-1.3,0.4l-1.7-1.2l0.7-1l4.3-0.6l2.6,2.2l0.8,0l0.6,2.4l2.1,0.7l2.1,2.5l1,0.3l-2.5,2.6l-0.4-0.1l-0.2-1.1l-1.6,0.1l1.1,2.3
	l1.8,0.1l-0.2,1.1l2.5-0.7l0.5-0.7l0.7,0.7l0.2-0.5l-0.7-0.5l-0.5-3.4l-1-0.7l0.3-0.9l-1.2-0.3l0.5,0.8l-0.6,0.2l-1.7-2.5l-1-0.7
	l-0.7,0.4l0.4-1.6l1.9,1.5l1.1-0.6l2.2,1.1l0.7-0.2l1.4,1.2l0,1l-0.8,0.2l0.8,1.8l0.4-0.3l-0.5-1.3l1.8-2.9l0.8,0.7l-0.6,1.7
	l0.4,1.4l2.2,0.6l0.1,0.6l0.8-0.8l-0.4-0.8l0.4-0.6l-1.3-0.4l0.1-0.5l1.4-0.1l0.9-0.7l1.9,2.5l1,2.9l4.5,3.7l-0.6,2.3l0.5,1.8
	l1.6-0.9l1.2-3.1l1.9,1.1l0.8-0.5l-1.6-4.2l0.7-1l-0.7-0.7l4.7,3l0.6,1.1l-1.2,4l-4.2,2l0,1.7l-2.1,1.9l-0.2,1l-2.8,0.2l0.7,1.6
	l4.1-0.9l3.5-3.9l2.8-2.1l4.1-1.3l1.2-0.9l0.9,1.5l-0.6,1l-1.4-1.1l-3.4,1.8l-0.9,4.5l5.3-1.9l0.2,1.6l0.6-0.2l0.9,1l-1.1,1.7
	l-0.8,0.3l-0.2,1.3l-2.1,0.3l-2,2.2l1,0.3l0.3,0.9l3.1-1.4l0.8,0.2l1.3-1l5.1-1.4l-3.2,2.6l0.8,0.2l-0.1,1.7l2.3-1.5l0.9,1.2
	l-0.7,0.4l0,0.9l0.9,0.9l1.1-0.8l2.8-0.5l-0.3,1.7l1.1,1.3l2.5,0.8l3.4,6.5l1.3,5.9l-1.4,1.7l-2.4,0.9l-0.8,1.2l1.7,4l1.7,2.4l2.8,2
	l0.9-0.1l0.6-0.8l1.7,0.3l4.5,2.9l4.3,1.7l0.6,0.8l-1.7,1.5l1.3,0.9l-0.1,0.9l1.1-2l4.2-0.9l0.5,0.5l0.2-2.9l-2.6-0.3l-1.8-3.1
	l-2.1-1.3l-1.5-2.9l-0.9,0.3l-4.6-7.8l-2.5-3.4l-1.6-1.3l-4.1-6.2l-1.1-0.7l-1.3-2.9l-1-1.1h-0.7l-2-6.2l-1.6-2.2l0.9-0.5l6.2,12.1
	l13.3,18.4l5.7,6.2l3.1,2.3l3.3,1.6l4.9-2.4l6.4-1.6l0.4-1.3l1.8-1.7l0.1-0.8l-0.7-0.9l4.1-3.4l-0.1-2.1l1.7-1l1.3,0.6l-1.5,1.4
	l1.2,2.2l3.2,2.8l2.8,1.2l2.7-0.2l1.9-1.4l1-1.4l-0.1-2.6l0.8-0.7l4.2-1.6l7-1l1.9,0.9l1.2-0.5l1.6,0.6l2.3,1.7l2.2-0.8l1.4,0.1
	l2.9,2.3l1.4,0.3l0.8-0.3l0.4-1l1.2,0.1l1,1.3l-0.2,1.2L818.5,599.6z"/>
<path class="js-tab-link" data-target="sevastopol" style="fill:#ECEEF1;stroke:#FFFFFF;stroke-linecap:round;stroke-linejoin:round;" d="M644.2,645.6l1.4-0.2l1.4,0.9l3.6,0.1
	l0.9,0.8l0.5,2.5l-1.1,0.6l-1.6-0.2l-0.7,0.8l0.2,1.2l1.4,1.3l4-1.6l2.8,1.7l0.4,1.8l-0.2,0.6l-1.9,1.1l-0.1,2.9l0.5,0.9l4.7,2.4
	l0.6,3.8l4.3,7l-0.8,1.5h-1.2l-0.6,0.5l-0.1,1.4l-2.2,0l-3.3,1.3l-2.5,0.1l-1.8-2.7l-2.2,0.2l-0.9-0.6l-0.8-3.5l-1.1-1.4l-0.7-0.3
	l-2.7,0.3l-2.8-1.2l-1,0.5l-1.8-2.6l-3.1-2.3l-1.2-1.8l1.2-0.6l0,1.4l0.4-0.3l0,0.6l0.4-1.8l0.9,1.7l-0.6-2l0.6-0.5l4.4-1l4.4,0.3
	l-1.6-1l-2.8-0.5l1.3-0.9l0.8-2.4l-0.6-9.5L644.2,645.6z"/>
<path class="js-tab-link" data-target="kherson" style="fill:#ECEEF1;stroke:#FFFFFF;stroke-linecap:round;stroke-linejoin:round;" d="M710.3,550.7l2.4-0.3l-0.4,2.1l-1.9-0.5
	l-2.5-2.6l1.2,0.2L710.3,550.7z M588.5,545l5.6,1l5.8,1.9l2.8-0.5l3-1.8l2,1.7l1.6,0.3l0.7-0.8l1.9,1.4l3.3,0.3l1.5,0.9l-2.1,0.6
	l-8.7-0.6l-18.2-4L588.5,545z M695.9,540.4l-1,0.7l-0.3,1.2l-1.9,1l0.2,2.3h-0.4l-0.7-2.9l2.2-2.1L695.9,540.4z M716.1,539.3
	l2.1,13.4l5.3,14.6l-0.9,0.5l-1.3-4.3l-1.2-1.7l-1,0.2l-0.5,1.8l-1.1,1.1l-1.3,0.2l-0.5-1.1l1.2-2.7l0.7-4.9l-0.7-0.9l0-1.4l1.8,1.8
	l-1.4-3.6l-1.1-0.4l0.3-1.7l-0.6,0.1l-0.5-2.7l-1-1.1l-1,0.1l-0.9,3.3l-1.2-2.4l-1.6-0.9l0.6-1.4l-0.5-1.2l-2.2-0.9l0-0.8l2.8,0.5
	l2.2-0.8l0.9,2.5l0.6,0.2l1-1.5l-0.5-3.7l1.1-1L716.1,539.3z M535.8,530.6l2.7-0.4l0.3,0.4l-1.1,0.3l-0.2,0.6l16.8,4.1l-14.5-3.2
	l-5.6-2.1l-3-2.4l-1.6-2.7l-0.2-3.1l0.7-1.4l0.5,0.1l-0.1,4.2l0.6,2.1l1.4,1.8L535.8,530.6z M618.4,420.8l4.3,1l3.6-0.8l0.2,1.5
	l-1,1l-0.2,1.2l1.6,0.1l2-1.2l0.4,0.3l-0.2,2.4l1.6,0.9l0.1,1.6l2.1-0.9l-1.2-1.5l-0.1-1l8.9-1.7l-0.5-3.6l5.7-1.1l0.9,2.1l0.9,0.2
	l-0.2,1.1l-0.8,0.3l0,4.4l2.5-0.8l0.5,2.4l16.2-2.6l2.3,3.5l1.5,1.3l8-1.6l4.8,2.5l1,1.1l1,6.1l0.7,0l1.1,6.7l0.7,0.6l1.3-1.3
	l1.6-0.2l0.9,0.8l1.5-0.3l-0.2-0.9l1.1-0.2l-0.2-1.9l5.7-1.1l-0.2,1.4l-1.8,0.5l0.6,2.8l1.6-0.2l0.5,1.3l0.2,1.3l-2.2,0.4l1.6,11.6
	l1.8-0.2l0.8,6.9l1.3-0.2l0.5,2.5l1.1,0l0.2,1.6l3.5-0.4l0.2,1.7l2.7-0.4l1,6.8l2.9-0.2l0.7,4.4l-3.4,0.5l0.5,3.5l-0.8,0l0,1.8
	l-0.8,0l0,0.7l-4.4,0.6l0.1,1.1l-1.8,0.3l0.5,3l2.7-0.3l0.2,1.1l3.5-0.4l0.5,4.7l-2.4,0.7l0.5,2.9l1.5-0.1l0.5,2.6l7.5-1.2l0.3,2.2
	l-0.8,0.2l0.5,2.5l3-0.5l4.3,2.7l1.9-0.2l1,14.9l1.6-0.1l-1.4,1.8l-2.3,1.4l-7.8,1.7l-3.6,2.9l-1.1,3.5l-2.1,0.1l-0.8-1.1l-1.6,0.4
	l-2.6-1.3l-3.2,0.9l-0.3,2l1.2,4.3l-2.1,5.2l-1.1,1.8l-2.4,2.2l-0.5-0.9l-0.8-0.4l-0.5,0.4l-0.9,0.8l-0.8,2.3l-0.5-2.7l0.5-1.1
	l-0.8-0.7l-2.8-0.7l0.1-1l0.9-1.3l2.6,0.4v-0.5l-1.9-0.3l-0.5-2.7l1.3-1l0.8-1.6l-0.3-0.7l0.7,0.1l0.6,2.8l0.7-2.3l2.3-0.9l1.1,2.1
	l-0.1,0.5l-0.7-0.1l0.1,0.7l0.9,0.3l1-2.4l0.1-4l-1.3-0.8l-1.2-1.8l-0.8,0l-0.6,0.8v1.2l0.9,1.8l-1.5,0.4l-0.2,0.7l-1.6-0.3
	l-1.3-1.2h-0.7l-0.4-1.1l-0.7,0l-2.3-2.4l-1.6,0.4l-1-1.5l0.1-1.6l-0.9-2l-0.9-0.2l0.9,2.4l-0.8,2.9l0.7,2.1l1.1-0.4l0.4,0.6
	l-1.1,1.8l-0.2,2.8l-1.1,0.3l-0.2-4.4l-1.9-2.2l-1.3-3.8l-1.2-1l-0.7-1.9l-1.6-1.8l-0.8,0l-0.8,2.3l-1.3-1.2l-0.7,0.8l2.5,0.7
	l1.7,5.2l1.6,1.4l-0.2,1l-2.5,1.9l-0.6-0.7l1.1-2.6l-0.8-2.3l-1-0.3l-0.7,2.3l-1.4,0.5l0.2,0.4l1.1-0.6l0.8,0.7l0.5,1l-0.2,1.2
	l1.3,0.9l-0.8,1.6l-0.8-1.6l-0.9-0.5l-1.1,1.4l-0.8-0.1l-0.1-1.7l-1.2-1.1l-1.2,1.8l0,1.5l-3.9-7.1l-1.6-1.3l-1.3-0.3l-1.6,0.6
	l-0.9-1.3l-0.6,0.9l-1.7,0.3l-3.5-2.8l-0.5,1.1l-2.4,0.1l-0.3,1.1l1.2,2.2l-1.1,0.2l-1.5-0.8l-0.9-0.7l-0.2-0.9l-0.6,0.3l-1.4-1.4
	l0.2,1l-1.6,0.3l1.2,7l-1.2,0.4l-0.5-1.2l-1.4-0.7l-1.1,1.8H644l-0.5,1.5l-0.8,0.2l-0.8-0.6l0.3,1.9l2.6,1.9l-2.5-0.5l-1.1,0.5
	l-0.3,1.8l1.4,1.9l-1.5-0.1l-1.7-1.4l-1.9,0.7l-0.2,0.9l-4.9-6.6l-0.5-0.2l-0.8,0.7l-0.3,2.3l-1.4-0.2l-0.1-1.1h1l0.5-2.3l-1.3-1
	l-1.7-0.5l-2,0.5l-0.5,0.3l0,1.9l-0.5-0.3l0.2-2.1l1.2-1.6l-1.2-1.7l1.1-3.5l-1.2,2.2l-0.9-0.3l0.5,1.2l-0.7,1.9l-3.1,2.5l-2.6-1
	l-0.8-1.4l-2-0.2l-0.5,0.6l0.5,0.8l-0.8,1.2l0.7,0.8l-0.8,0.3l-2.8-0.2l-1.6,0.5l-4.4-0.9l-1.5,0.5l-3.4-1l-1.4,0.5l-0.3,0.7
	l-3.5,0.7l-1.3-0.6l-2.8,0.6l-3.3,1.6l-0.3,0.8l0.4,0.3l-2.9-0.7l-16.5-5.1l1.3,0.2l0.7-1l-0.5-1.7l0.2-0.4l0.2,0.6l0.5-0.2
	l-0.5-1.2l-1.8-0.5l-0.8,0.7l0.7,0.5l-0.6-0.1l-2.2-2.3l-1.5,0l-2.2-1.6l-0.8-2.1l-1.5-0.7l-0.8,0.7l-3.5-0.6l-1.1-1.1l-0.6-1.7
	l-2.5-0.5l-1.1,2.3l-5-0.2l-0.6,0.6l-0.3-2.3l-1-0.2l0.3-0.9l1.5-1.2l2.4-0.9l5-0.1l2.2-0.7l2.4-1.1l0.8-1.5l1.5-0.1l0.9-0.8
	l-1.8-4.2l-0.9-1l-0.8-0.2l-1.5,1.2l-1.1,0l-8.3-3.2l0.9-1.5l1.3-0.1l0.6-1.5l1.1,0.5l1.4-0.6l0.3,0.6l4.4,1.6l3.4,0.2l1.8-0.7
	l2.7-0.1l4.2,1.5l3.4,0.2l4.6,1.2l3.3-0.7l1.2-1.2l0.1-0.7l-1.3-0.2l-2.1,0.4l-1.5,0.8L576,512h-1l-1.9-1.3l1.2-0.4l-0.1-0.6
	l-1.7-0.3l2.1-0.1l-1-0.4l-0.3-1l0.9-0.8l-0.9-0.8l0.8-0.1l0.1-1.6l-0.5-0.7l-2.8-1.4l-6.1,2.7l-2-4.5l-2.8-0.2l-3.9-3.3l0.3-0.8
	l2.4-0.1l-0.7-0.9l3.8-0.6l-0.5-3.6l-0.7,0.1l-0.3-1.3l2.7-0.7l0.5,0.4l2.8-0.5l0.3-0.9l2.7-0.6l-0.3-2.9l2.1-1l-1.4-2.4l6.9,4.4
	l1.5-0.1l-0.4-2.9l5.5-0.9l0.4,2l3.5-0.4l-0.4-2.1l0.7-0.2l-0.5-2.6l0.6-0.1l0.2,1l1.5-0.2l0.7,1.5l5.9-0.4l0.4,3.2l3.4-0.5l0.6,0.5
	l0.2-0.9l2.2-0.3l0.1-0.6l7.6-1.4l-0.2-0.9l-1.4,0.2l-0.3-1.4l-3.5,0.6l-0.7-0.3l-0.2-1.4l5-1.1l-0.2-1.3l3.2-0.4l-0.2-1.3l-1.5,0.2
	l-1-3.4l1.1-1l4,2.2l2.6-4l-7.6-4.7l-1.4-3.9l2.3-3.2l0.5-2.1h2.5l0.1-0.5l0.6,1.3l1.2,0.2l-0.1-0.7l1.6-1l0-1.6l1.8-0.3l0.8,1.4
	l0.9,0.1l0.8-0.5l-0.7-0.6l0.1-1.3l2.7-0.4l-2.4-2.7l-1.1-0.9l-0.7,0l-0.1-3.4l1.8-0.8l-0.7-4.6l-4.7,0.7l-0.3-0.6l-0.2-4.9l1.2-0.4
	l0-1.5l0.9-0.3l0.2,5l3.7-0.6l-0.7-7.2l1.3-0.7l-0.3-1.9l-0.2-0.5l-2.5,1.5L618.4,420.8z"/>
<path class="js-tab-link" data-target="zaporizhzhia" style="fill:#ECEEF1;stroke:#FFFFFF;stroke-linecap:round;stroke-linejoin:round;" d="M677.5,429.2l4.8-1.2l5.3-2.3l7.2-0.8
	l8.7-2.9l3.6,0.2l3.9,1.5l7.9,1.8l2.6-0.1l2.2-1l0.5-1.4l-0.4-1.6l-1.3,0.2l0.6-0.8l-1.4-0.7l0.6-0.3l-0.1-0.9l0.3,0.5l0.5-0.8
	l-0.7-2.8l-0.9,0.1l-0.5-3l1.8-0.5l-0.4-2.8l1.4-0.2l-0.1-2.2l0.5-0.2l-0.3-2.2l-3.6,0.6l-0.7-5l1.3-0.9l-0.2-1.8l-1.6,0.1l-0.6-2.3
	l-2.4,1.1l-0.8-4.2l2.8-0.4l-0.1-1l1.4-0.5l0.3,0.9l2-0.4l-0.6-4.2l-2.1,0.1l-0.5-2.6l-0.6,0l-0.4-3l2-0.4l-1.1-6.5l1.2,0l0.1,0.5
	l1.9-0.3l0,3.4l3.9-0.5l0.3,0.6l2.6-0.7l1.3-2l2.4-0.9l3.9,0.1l2.8-1.1l1.5,0.7l2.5-0.8l2.5,1.8l10.2,2.4l0.2,1.5l10.3-5.3l2.2,3.6
	l3.6-0.3l0.5,2.7l8.5-2.2l1,0.7l0,0.6l-0.8,0.5l0.1,1.1l0.5-0.4l0.4,0.4l-0.6,1l4.3-1l0.7,2.9l-1.8,0.7l0.4,1l1.2,0.3l0.5,2.3
	l-1.2,0.6l0.1,0.4l1.2-0.4l0.6,2.9l1.4-0.9l0.6,0.9l-0.6,0.5l1.1,1.7l-0.7,3.2h-2.5l0.2,1.5l4.5,0l2.2-0.9l-0.4,1.7l0.6,0.5l3.9,0
	l0.6,1.3l2.9-0.4l0-1.6l2.7,0.2l0.2,0.7l4.6,0.5l3.5-0.4l0.1-0.7l3.4-0.9l1.1-0.2l0.2,0.8l-0.4,1.9l-0.7,0.1l0,2.6l4.7-0.6l0.9,5.5
	l0.8,0l0.7,4.1l4.4-0.5l-1,1.6l-1.1-0.3l-0.1,0.6l-1.9,0.3l0.4,2.3l2.2-0.3l0,0.8l-1.2,0.2l0.2,1.2l1,0.5l3.6-1.7l3.7,6.3l2.9-2.3
	l1.1,1.6l0.8-0.6l1.2,1.9l1.1-1.2l3,5.1l0.4-0.4l4,3.6l1.3-2.5l0.8,0.4l-0.2,0.8l3,0.1l-0.1,2.6l-0.5,0l-2.2,5.3l0.5,1.5l-2.2,1.1
	l-1.4-3.2l-1.6,0.4l0.7,2.9l-2.3,1.5l0.1,0.6l-2.4,1.1l-0.6-1.1l-4.5,0.3l-0.3-0.7l-1,0.2l2.1,9.7l-4.4-0.4l0.2,0.5l-1.9,0.1
	l1.9,2.3l0.6-0.2l0.5,0.8l0.6-0.7l0.2,1l0.7-0.5l0.2,0.7l0.4-0.2l2,2.9l1-0.3l0.6,3.2l-1.5,0.9l5.4,2.5l1.1-0.9l1.4,1.5l-1.9,2.7
	l2.8,2.2l-2.3,1.4l-0.3-0.4l-4,3.2l2.4,3.7l-1.7,1.1l-2.5,0.4l-4.7,4l-2.4,4.4l-2.4,6.5l-3.1,4.1l-1.1-0.1l1.7-1.1l0.3-1.1l2.3-2.1
	l0.5-1.2l-1.1-2.5l-2.1-2.1l-3.1-1.8l-5.8,0.2l-2.3,1.3l-8.9,3l-2.2,1.5l-4,4.8l-6,10.4l-1.5,1.7l-1.2-0.3l-1.9,1.2l-0.5-0.1
	l0.1-0.7l0.9,0.3l0.9-0.6l0.6-1.6l1.1-0.1l2.4-1.8l2.4-4.1l0.1-2.5l-1.5-2.1l-2.6-1.5l-1.9,0.1l-2.4,1l-4.8-0.8l-5.3,0.6l-3,1.2
	l-8.2,4.8l-7.5,8.2l-8.1,3.9l-5.2,6.9l-10.2,16.9l-3.2,2.5l-7.4,2.7v-2l2.4-1.8l-0.1-1.1l1.7-0.9l4.4-0.8l4.3-2l0.5-2.7l3.8-5.3
	l0.5-2.3l1.1-0.2l2.1-3.4l-0.4-0.3l-0.9,0.5l-0.8,1.9l-1-1.6l-2.1-0.2l-0.6-3.6l1-1.5l0-1.4l-0.5-0.8l-2.8-1l-1.1-2l-0.7-0.2
	l0.6-1.6l-1.6,0.9l1.2,3.6l1.4,1.2l0.1,3.5l-1.2,2.1l-3.4,2.2l-1.4,3.3l-1.6,0.2l-1-14.9l-1.9,0.2l-4.3-2.7l-3,0.5l-0.5-2.5l0.8-0.2
	l-0.3-2.2l-7.5,1.2l-0.4-2.6l-1.5,0l-0.5-2.9l2.4-0.7l-0.5-4.7l-3.5,0.5l-0.2-1.1l-2.7,0.3l-0.4-3l1.8-0.3l-0.1-1.1l4.4-0.6l0-0.7
	l0.8,0l0-1.8l0.8,0l-0.5-3.5l3.4-0.5l-0.7-4.4l-2.9,0.2l-1-6.8l-2.7,0.4l-0.2-1.7l-3.5,0.4l-0.2-1.6l-1.1,0l-0.5-2.5l-1.3,0.2
	l-0.8-6.9l-1.8,0.2l-1.6-11.7l2.2-0.4l-0.2-1.3l-0.5-1.3l-1.6,0.2l-0.6-2.8l1.8-0.5l0.2-1.4L693,442l0.2,1.9l-1.1,0.2l0.2,0.9
	l-1.5,0.3l-0.9-0.8l-1.6,0.2l-1.3,1.3l-0.7-0.6l-1.1-6.7l-0.7,0l-1-6.1l-1-1.1L677.5,429.2z"/>
<path class="js-tab-link" data-target="donetsk" style="fill:#ECEEF1;stroke:#FFFFFF;stroke-linecap:round;stroke-linejoin:round;" d="M887.8,280.6l1,2.2l1-0.2l1.6,1.9
	l-2.4,1.5l0.5,0.7l-0.5,0.5l0.9,0.8l4.1,1.8l3.1,0.1l0.4-2.1l1.9,0.3l-1.1,7l-0.5,0.5l2.7,5.4l-2.6,0.9l0,1.7l-1.4-0.7l-1.3,2.5
	l1.8,0.1l0.2,0.8l2.4-0.1l1.5,0.8l1.2,0l0.6-0.7l3.5,0.5l1-0.4l-0.1,7.9l1.9-0.2l0.9,1.6l2.2-0.2l0.1,1.1l-1.4,0.1l-0.6,0.8l0.3,2.3
	l-1.1,1.9l1.3,1.4l1.8,0.2l0.4,1.2l-1.2,0.4l0.6,0.9l0,1.6l-1.5,0.4l-0.1,0.7l-1.4,0.5l0.8,10.4l2.4,2.8l-1,1.5l0.2,1.4l-0.6,0
	l1.4,1l-0.4,0.8l1.8,1.4l1.6-0.3l0.5,1l2.9-1.3l0.9,5.9l1.1-0.3l1.5,1.4l-3.3,2.1l0.2,1.8l-0.7,0.8l-0.1,1.8l2.4,1.2l5.1-0.6l2,2
	l0,2.3l1.3,2l-0.1,1.1l-0.7,0.7l0.5,1l1.7,0.9l3.2,0.1l-0.1,1l7.2,2.4l-0.6,2.4l1.2,0.7l0,1.3l-0.9,1.5l1.3,2.7l11.4,0.8l0,4l1,0.8
	l0.9-0.2l1.1,0.9l-1.5,3.9l0.5,1.9l-6.6,0.1l-4.5-0.6l-0.3,0.8l-2.2,0.3l-0.6,2.1l0.2,1.9l-2.2,0.1l-0.5,2.2l0.8,1.5l-0.3,2.7
	l-1.1,1l0.2,3.5l-2.1,0.4l-0.1-1.5l-3.9,0l0.1,2.5l-2.1,0l0,1.2l-0.7,0.9l-8.8,0.1l-0.2,2.1l-5.9,0.2l0,3.3l-2.4,0l-0.3,2.6
	l-1.2,0.1l0.1,3l0.5,0.5l-0.3,2l0.9,0.4l-0.1,6.8l-0.9,0l0.1,1.3l-2,0.5l-1.7,3.6l0.1,1.6l6.5,0.2l-0.5,2.1l0.2,1.4l-0.5,0.6
	l-1.9,0.1l-0.1,1.2l-3.1,0.7l0.7,1.4l-0.4,6.1l-1.2,2.6l-2.9,3.5l-1.7,0.3l-2-3.4l-2.1-0.7l-1.8,1.9l-2.1-0.7l-1.4,0.2l-4.2-1.3
	l-5.8,2.1l-4.9,0.5l-4.3-1.2l-5,1.1l-1.2,1l0.3,1.4l-1.8,0.7l-8.6,12.5l-2.2,2h-0.4l1.9-1.9l-0.3-1.7l-1.8-1.9l-2.8-1.3l-2.7,1.6
	l-1.3,1.4l-2.2,0.5l-3.4,1.9l-2.4-3.7l4-3.2l0.3,0.4l2.3-1.4l-2.8-2.2l1.9-2.7l-1.4-1.5l-1.1,0.9l-5.4-2.5l1.5-0.9l-0.6-3.2l-1,0.3
	l-2-2.9l-0.4,0.2l-0.2-0.7l-0.7,0.4l-0.2-1l-0.6,0.7l-0.5-0.8l-0.6,0.2l-1.9-2.3l1.9-0.1l-0.2-0.4l4.4,0.4l-2.1-9.7l1-0.2l0.3,0.7
	l4.5-0.3l0.6,1.1l2.4-1.1l-0.1-0.6l2.3-1.5l-0.7-2.9l1.6-0.4l1.4,3.2l2.2-1.1l-0.5-1.5l2.2-5.3l0.5,0l0.1-2.6l-3-0.1l0.2-0.8
	l-0.8-0.4l-1.3,2.5l-4-3.6l-0.4,0.4l-3-5.1l-1.1,1.2l-1.2-1.9l-0.8,0.6l-1.1-1.6l-2.9,2.3l-3.7-6.3l-3.6,1.7l-1-0.5l-0.2-1.2
	l1.2-0.2l0-0.8l-2.2,0.4l-0.4-2.3l1.9-0.3l0.1-0.6l1.1,0.3l1-1.6l-4.4,0.5l-0.7-4.1l-0.8-0.1l-0.9-5.5l-4.7,0.6l-0.1-2.6l0.7-0.1
	l0.4-1.9l-0.2-0.8l-1.1,0.2l-0.4-2.6l-1.5,0.1l-0.4-2.3l2.7-0.5v-0.8l2.8,0l-0.7-3.4l-2.4,0.3l-0.4-3.2l0.8-0.2l-1.3-1l1.2-0.7
	l-1-1.7l0.7-1l-0.3-2.3l1.3-0.4l-0.1-0.5l1.1,0.7l1.5-0.8h-0.6l0.8-0.6l0.5,1l0.8-0.2l2,0.9l0.3-0.5l1.3,1.2l0.3,1.5l0.8-0.5
	l0.7,0.9l1.6-0.5l0.4,1l2.4,0.6l0.3-1.6l1,0l1.1-2.2l-1.3-8.7l0.7,0.5l0.4-1.2l0.7,0.3l0.3-0.5l1.5,0l-1.5-9.8l-2.1,0.3l-0.2-0.9
	l-2.9,0.3l-0.5-2.9l0.2-1.4l0.8-0.6l-0.3-2.9l0.7-0.3l-0.5-0.4l0.8-0.5l0.8,0.2l-0.2-2.2l-0.7,0l-0.3-3.4l1.3-0.4l-0.2-2.4l3.1-0.5
	l-0.3-1.9l-1.7-0.5l-0.7-1.5l-2.7,0l-0.3-2.3l-1.6-0.4l-1.8,0.3l-0.4-2.5l-0.9-2.2l-0.4-3.4l0.7-0.1l0.5-0.9l-1.2-3.2l-0.2-2.2l-1,0
	l-0.2-0.5l1.7-2.6l1.7,0.4l0.1,1l1.3,0.7l2.4,0.1l0.3,0.6l1-0.1l0.9-2.3l6.3,0.6l3.6,3.8l0.7-1.4l-1.1-0.1l-0.1-0.7l-1.5-1.2
	l0.7-1.1l0.6,0l0.3-1.3l2.5,0.3l0.3-1.7l0.7,0.1l0.7-1.6l2.7,0.7l-0.2,0.8l2.8,1.6l0.1-5.5l1.2-0.8l0.8-1.6l2.2,0l0.1-1.4l3.3,0.1
	l0.3-1.5l-1.2-0.3l0.6-1.3l-1.4-1.2l0.6-0.8l0.5,0.3l0.4-0.6l-0.6-0.3l1.5-0.7l0.2-0.8l0.9,1l0.7-0.1l0.2-2.7l0.8,0.1l-0.3-2.1
	l1.1-0.2l0.7-0.9l1.8,0.2l0.1,0.5l0.8-0.6l0.8,0.3l-0.2-0.4l1.7-0.7l-0.3-1.8l-0.8-0.8l0.5-0.4l2.8-0.5l5.1-2.7l-1.5-1.7l-6-2.3
	l2.5-2.5l0.8-0.8l3.2-0.4l10.2,2.6l1.7-0.4l0,0.4l1.1,0.1l0.4-2L887.8,280.6z"/>
<path class="js-tab-link" data-target="luhansk" style="fill:#ECEEF1;stroke:#FFFFFF;stroke-linecap:round;stroke-linejoin:round;" d="M913.7,208l1.3,4.2l-0.2,1.6l3.6,2
	l0.9-1.5l2,0.4l-0.1,1l0.7,0.1l0.5,1.5l2.2,0.7l3.2-1.7l1.8,0.4l1.7,1.5l1.8-1.5l-0.1-2.3h0.5l1.4,1.7l-1.4,1.6l0.4,2.4l1.7,0.7
	l1.3,2.4l1.3,0.2l1,1.4l1.9,0l1.6,1.3l2.8-0.4l1,1l-0.7,0.9l0.4,1.5l-0.4,0.3l1.4,2.6l1,0.1l4.2-2.4l2.4,0.5l2.3-1.7l1.4-2.3
	l2.6-2.2l2.5,4.2l0.2,2.9l1.1,2.3l2,2l5.2,1.5l3.8-1.8l2.4,0.4l3,1.6l3.8,0.4l-0.6,2.2l3.4,8.2l5.1,1.6l3.2,3.4l4.8-0.2l1.9-0.7
	l1.8-2.4l5.2-0.6l1,0.5l4-1.5l0.1,1.7l1.7,2.3l-7.1,4.2l-0.5,4.9l2.6,4.7l3.5,2.4l2.8,3l-0.8,4.6l2.3,2.4l-0.2,1.8l-0.9,0.5l-3.5,0
	l-3.4,4.5l-2.6,0.7l-5,8.1l-0.2,2.4l-3.3-0.6l-4,0.2l-2.2,1.7l-4.3-1l-1.1,0.9l0.6,0.5l-1.1,3l0.7,0.8l1.1-0.9l1.3,1l1.7,0.1
	l0.3,1.7l1.8,2.4l-0.8,1.2l1.1,1.1l0.5-0.3l1,0.7l0.5,1.8l1-1.3l0.5,0.8l3.7-0.4l1.9,1.9l2.2,0.4l0.7-2.8l1.7-1.3l1.3,0.7l1.1,3.3
	l-5.6,6.6l-10-4.1l-0.4,0.4l0.3,0.9l-0.6,0l-0.4,1.1l0.2,1.7l-0.9,1.2l0.1,1.1L993,321l0,1.8l-0.7,0.3l-0.1,1.1l-1.1,0.5l0.4,0.6
	l-0.5,0.6l0.8,0.2l0.2,1.6l-1.1,1.2l0.5,0.3l0,0.9l-1,0.5l0.2,0.9l-1.9,2.5l1.5,2l3.2-0.4l0.4,0.7l2.2-0.9l0.9,0.7l0.9-0.1l-0.2,0.6
	l1.5,0.8l1,5.1l-1.1,0.7l0,2.5l2.8,2.1l-0.4,1l1.1,1.2l-0.2,1.4l0.7,0.5l-0.7,0.6l0.9,1.3l1-1l-0.4,1.4l0.6,1.6l-3.2,1.5l-2.2,0
	l-0.5,2l2.3,0.1l0.5,0.9l0.6-0.2l0.8,1l-0.3,0.9l0.5,0.5l2-2.7l0.9,0.3l-0.4-0.3l0.6-0.9l0.8-0.2l1.9,5.3l-0.7,0.9l0,1.5l-3.8-0.3
	l-0.3,4l-1.5,0.2l-0.5,3.1l-1.6,2.1l-0.3,3.1l-1.7,1l2.6,1.6l0,0.7l-6.1,0.1l1,2.4l1.2,0.8l-0.4,1.2l0.6,0.5v2.4l-0.7,0.2l-0.8,2.4
	l0,4.1l-1.7,0.4l0,1.8l-1.5,1.7l-6.4-1l-3.3,0.2l-1.1,0.9l-0.7-0.6l-0.8,0.4l-2.3-2.9l-1.9,0.6l-0.6,1.4l-1,0.5l-1.6-3.4l-8.2,0.3
	l-0.4,1.1l-4.7,0.3l-0.2,0.7l-3.4-0.8v-1.6l-0.6,0l-0.5-1.9l1.5-3.9l-1.1-0.9l-0.9,0.2l-1-0.8l0-4l-11.4-0.8l-1.3-2.7l0.9-1.5
	l-0.1-1.3l-1.2-0.7l0.6-2.4l-7.2-2.4l0.1-1l-3.2-0.1l-1.7-0.9l-0.5-1l0.7-0.7l0.1-1.1l-1.3-2l0-2.3l-2-2l-5.1,0.6l-2.4-1.2l0.1-1.8
	l0.7-0.8l-0.2-1.8l3.3-2.1l-1.5-1.4l-1.1,0.3l-0.9-5.9l-2.9,1.3l-0.5-1l-1.6,0.3l-1.8-1.4l0.3-0.9l-1.4-1l0.6,0l-0.2-1.4l1-1.5
	l-2.4-2.8l-0.8-10.4l1.4-0.5l0.1-0.7l1.6-0.4v-1.6l-0.6-0.8l1.2-0.4l-0.4-1.2l-1.8-0.2l-1.3-1.4l1.1-1.9l-0.3-2.3l0.6-0.8l1.4-0.1
	l-0.1-1.1l-2.2,0.2l-0.9-1.6l-1.9,0.2l0.1-7.9l-1,0.4l-3.5-0.5l-0.6,0.7l-1.2-0.1l-1.5-0.7l-2.4,0.1l-0.2-0.8l-1.8-0.1l1.3-2.5
	l1.4,0.7l0-1.7l2.6-0.9l-2.7-5.4l0.5-0.5l1.1-7l-1.9-0.3l-0.4,2.1l-3.1-0.1l-4.1-1.8l-0.9-0.8l0.5-0.5l-0.5-0.7l2.4-1.5l-1.6-1.9
	l-1,0.2l-1-2.2l-0.3-0.8l2.6-1.2l-0.7-0.9l3.3-1.2l-0.6-1.6l-3.6-0.8l-0.3-1.5l1.1-6.5l-1.1-1.2l0-2.4l-1.8,0l0.3-3.5l-0.7-0.7
	l0.6-2.3l2,0.2l2.1-1.6l0.2-0.8l-2.4-0.4l0.8-1.9l2.8,0.2l-0.6-2l0.3-1.5l1.6-0.1l0.2-1l1.2-0.4l-0.8-1.7l3.4-0.9l-1-0.5l-0.8-2.8
	l-0.7-0.5l0.9-0.5l-0.2-0.7l-1.3-0.1l-0.9,0.6l-1.3-1.9l1.3-3.1l1.2,1.2l2.1-2.6l1-0.2l0-0.6l-2.5-1.8l0.6-2.1l2.9,0l1-1l-3.3-4.6
	l1.3-2l3.8-1.5l0.2,1.7l2.5-1.7l-0.4-1l1.7-0.8l0-0.7l1.2-0.8l-1.7-3.7l-0.5-5.1l5.2,0.7l2.4-1.4l0.9,0.3L913.7,208z"/>
<path class="js-tab-link" data-target="kharkiv" style="fill:#ECEEF1;stroke:#FFFFFF;stroke-linecap:round;stroke-linejoin:round;" d="M865.7,174.1l0.5,0.2l-0.3,2l-1.1,0.5
	l0,3.9l1.1,2.3l1.1,0.4l1,1.4l1.9,0.6l1,1.8l1.5-0.8l2,0.5l-0.6,1.7l0,4.6l-0.7,1.8l1.5,2.3l0.1,1.5l3.7,4l2.6,4.4l2.3-0.4l3.1,2.3
	l2.1,0.5l1.9,1.3l2.4,5.2l1.7,1.2l0.5-0.2l2.2,3l-1.1,0.6l-0.1,1.2l0.6,0.9l3.3,4.6l-1,1l-2.9,0l-0.6,2.1l2.5,1.8l0,0.6l-1,0.2
	l-2.1,2.6l-1.2-1.2l-1.3,3.1l1.3,1.9l0.9-0.6l1.3,0.1l0.2,0.7l-0.9,0.5l0.7,0.5l0.8,2.8l1,0.4l-3.4,0.9l0.8,1.7l-1.2,0.4l-0.2,1
	l-1.6,0.1l-0.3,1.5l0.6,2l-2.8-0.2l-0.8,1.9l2.4,0.3l-0.2,0.8l-2.1,1.6l-2-0.1l-0.6,2.3l0.7,0.7l-0.3,3.5l1.8,0l0,2.4l1.1,1.2
	l-1.1,6.5l0.3,1.5l3.6,0.8l0.6,1.6l-3.3,1.2l0.7,0.9l-2.6,1.2l0.3,0.8l-1,1.2l-0.4,2l-1.1-0.1l0-0.4l-1.7,0.4l-10.2-2.6l-3.2,0.4
	l-0.8,0.8l-2.5,2.5l6,2.2l1.5,1.7l-5.1,2.7l-2.8,0.5l-0.5,0.5l0.8,0.8l0.3,1.8l-1.6,0.7l0.2,0.4l-0.8-0.3l-0.8,0.6l-0.1-0.5
	l-1.8-0.2l-0.7,0.9l-1.1,0.2l0.3,2.1l-0.9-0.1l-0.1,2.7l-0.7,0.1l-0.9-1l-0.2,0.8l-1.5,0.7l0.6,0.4l-0.4,0.6l-0.5-0.3l-0.6,0.8
	l1.4,1.2l-0.6,1.3l1.2,0.3l-0.3,1.5l-3.3-0.1l-0.1,1.3l-2.2-0.1l-0.8,1.6l-1.2,0.8l-0.1,5.5l-2.8-1.6l0.2-0.8l-2.7-0.7l-0.7,1.6
	l-0.7-0.1l-0.3,1.7l-2.5-0.3l-0.3,1.3l-0.6-0.1l-0.7,1.1l1.5,1.2l0.1,0.7l1.1,0.1l-0.7,1.4l-3.6-3.8l-6.3-0.6l-0.9,2.4l-1,0.1
	l-0.3-0.6l-2.4-0.1l-1.3-0.7l-0.1-1l-1.7-0.4l-1.7,2.6l0.2,0.5h1l0.2,2.2l1.2,3.2l-0.5,0.9l-0.7,0.1l0.4,3.4l0.9,2.2l-3.7,0.2l0,0.6
	l-1.2,0.2l0.1,0.6l-3.7,0.6l-0.7-1.2l-0.8-0.1l-4.6-4l-2.1,2.5l-0.8-0.1l-0.2,0.4l0.9,0.3l-0.6,0.8l0.9,0.2l-1.5,0.5l-2.3,3.3
	l0.7,0.5l-2.2,2.6l0-0.6l-1.6-1.2l-1.5,2l-1.4-1.1l2.6-3.8l-3.7-2.7l1.7-3.3l-7.9-5.6l1-2.1l-1.3-1.5l2.1-0.2l0.5-1.3l-0.6-0.5
	l-0.9,0.2l-2-2h-3.3l0.6-2.3l-3.1-1.6l1.1-1.7l-1.5-1.2l1.7-2.4l-3.8-3.7l0.6-0.8l-2.7-2.6l-1.4,2.5l-1.7-0.4l-0.3,1l-1.3,0.4
	l-0.5,0.8l-1.2,0.1l-1.1,1.8l-0.6-0.3l-0.4-1.8l-1.4-0.4l-1.2,0.3l-0.3-0.9l-0.7,0l-0.8,1.3l-1.5-1.7l-3,0.2l-0.1-1.5l-1.8,0l-1.8,1
	l-2.8-0.5l-0.3-0.7l-0.2,0.8l-1.1,0.4l0.2-0.9l-0.6,0.1l-1.2-1.3l-3.2-1.7v-1.1l-0.6,0.4l-2.6-2l0.1-0.7l-2.5-1.2l0.6-0.6l-0.2-0.9
	l-1.9-0.5l-1-1.7l-1.2-0.2l-0.4,1l-2.1-0.5l-0.1-0.9l2.3-0.4l-2-1.4l0.1-0.5l0.9-0.3l-0.9-0.7l-1.7-0.1l-1.2,1l-1.1-1.3l-1.7,0.8
	l-0.5,1.1l-0.3-1.5l-1.5-1.1l-0.6,1.6L727,288l-2.1-8.5l2.4-6.5l0.7-0.5l2.1,1.1l0.9,1.4l2.2-0.1l1.6,0.6l4.7-0.5l0.4,0.3l-0.7,0.5
	l2.3,1.4l0.7-1.5l-0.4-2.1l5.3-6.7l-1.5-0.6l0.7-3.7l-2.6-0.9l1.1-4l8.2,1.6l0.2-2.6l-3.1-1.1l-0.1-2.1l-1.3-0.3l0.4-0.6l4.2-0.9
	l-2.3-5.9l-1.1-1.5l0.5-1.2l-4.5,0.7l-1.2-1.4l-3.6-0.4l-1.4-0.8l0.7-1.3l-0.7-0.4l0.8-0.5l-0.2-1.3l-1.5-0.2l-1-1.1l0.1-3.1
	l-0.5-1.3l1.1-0.4l-0.3-2.2l-4.1-2.4l-1.1,0.5l-3.1-0.5l-0.8-2.3l-1.2,0l-1.3,1.2l-1.2-1.4l-1,0.2l-1.6-1.3l-1.5-3l-1.2,0.3
	l-0.5-0.5l-1.5-4.3l6-7.9l-1.6-2.2l-0.2-2.5l0.6-1.8l1.7-0.6l-0.6-2.2l2.1,0.2l0.4,0.5l0.2-0.6l1.2,0.3l0.1,1l0.7,0.2l1.6-2.2
	l-0.1-1.3l2.4-1l2.1-2.3l2.3,1.2l0.3-0.8l2.1,1l0.2-0.7l1.1,0l0.5-2.6l2,0.1l1.5-1l-1.8-1.2l1.9-2.6l2.9,2.1l-0.1-2.1l1.5,0l1-1.2
	l0.9,1.5l1,0.1l2,1.9l0.5-0.5l1.1,0.7l0.6-1l-1-1.3l3.1-0.2l1.2-0.9l2,0.5l-0.2,0.4l0.8,0.6h1l0.2-1l0.8-0.2l0.3-1.4l-1.3-0.3
	l0.3-0.6l4.3-0.3l3.6-3.7l0.2-1l-0.5-0.6l2.1-1.4l0.3,0.7l0.8-0.4l0.9,0.5l1.1-1.6l2.1,0.7l7.8-1.6l5.3,1.7l0.9,2.6l0.8-0.4l2.6,4
	l2.4,1.9l-0.5,1.3l1.5,2.8l4,0.4l0.7-0.4l-0.3-0.6l1.8-0.9l1.5-1.7l0.6,1.6h2.3l0.8,1.2l1.5,0.3l0.1,0.8l1.2,0.4l2.1-0.3l0.4,0.8
	l-1,0.1l0.2,1.1l-1,1.1l2.7,2.2l2.2,0.5l1.5-1.6l0.7-2.6l0.6,0.2l0.9-1.1l1.8-0.4l1.2-1.8l3.6-1l1.6-1.6l3.9-1.4l5.1-0.1l1.3,0.6
	l3.2-0.6l-0.1-0.7l1.8-0.2l0.8,0.5l7.9-4l1.2-2.3l1.3-0.9l4.5,0.4L865.7,174.1z"/>
<path class="js-tab-link" data-target="sumy" style="fill:#ECEEF1;stroke:#FFFFFF;stroke-linecap:round;stroke-linejoin:round;" d="M660.4,2.7l1,2.5l-0.8,1.3l1.8,1.2
	l1.7,0.5l0.3-0.6l0.5,0.3l1.4,2.1l-0.3,3.1l1,0.2l0.2,1l2.1,0.4l0.6,2.2l2.4,0.3l0.6,1.7l-0.2,1.5l3.2,2.3l-0.3,2l-1.2,1.2l0.5,1.3
	l-2,1.9l1,0.1l1.1,2.6l-0.4,1.3l0.3,1.8l2.2,0.7l-0.4,1.6l0.7,1.3l2.5-0.1l1,2.6l1.1,1.1L682,43l2.2,0.9l0,2l-0.6,0.7l0.9,0.2
	l0.8-0.8h1.1l1.7,1.7l1.7,0.7l0.6,1.3l1,0.2l1.6,1.6l-0.4,3.4l1.6,2.1l0.2,2l-1,1.9l-3.2,0.9l-3.2-0.7l-1,1.4l-3.1,0.7l-1.3-0.5
	l-0.6,0.7l-2.3,0.7l-1.8-0.2l-2.5,2l0.4,0.5l0.8-0.2l0.4,1.2l1.1,0.1l0,0.7l2-0.2l0.9,4.2l1.7-0.2l0.2,2.2l1.1-0.9l1.1,2.3l0.1,2.4
	l2.1,0.1l0.8,1.2l-0.2,0.7l-1,0l0.2,2.7l-1.2,0.6l-1.2,1.6l0.4,1.5l-0.5,0.8l-1.2,0.2l0.4,0.9l-0.6,0.2l0.4,1.6l1.3-0.1l1.1,1.2
	l1.1-0.2l-0.2,1.1l0.9-0.1l1.7,0.9l0.2,1.1l-1.4,2l-1.7-0.1l0.4,1.2l-0.3,1l-0.4-0.1l-0.3,1.1l-1.5,0.6l0.6,1.4l-1.1,0.4l-0.2,0.7
	l4.5,2.4l1.2-0.1l3-3l2.8,1.4l0.6-0.3l2.3,1.5l1.4,0.2l0.5-0.8l1.1,0l2.2,1.5l1.3-1.8l3.3,0.6l0.5,4.5l2.7,2.1l0.7-0.7l2.5,0.6
	l0.7-0.9l1.1,1.1l1.2,0.2l0.2-1.1l1.5-1.4l0.8,0.6l1.2-0.4l0.7-0.9l1.5,0.2l0.3-1.1l2-1.5l1.6,0.2l1.6,1.1l0.2,1.3l1.2-1l0.6-1.3
	l2.9,0.1l1.5,0.6l-1.1,2.7l0.3,2l-0.6,0.7l0.8,0.9l0.2,1.7l1.7,0.9l-0.6,1.3l0.8,1l-0.2,0.8l-1-0.2l-0.4,0.7l0.9-0.1l1.4,2.8
	l1.4,0.6l2.1-1.7l1.2,0.7l0.1-0.7l1.7-0.6l0-0.5l2.4,1.3l1.6-0.2l0.6,1l1.1,0.4l0.2,2.1l-1.3,0.6l-0.7,1l-2.9-0.7l1.8,3.5l-1.3,2.9
	l0.3,0.8l1.9,0.2l0,0.6l1.2,0.2l0.5,0.8l0.2,1.1l-1.2,0.6l0.9,1.3l-0.8,0.9l1.2,0.7l0.8,1.5l-0.2,4l2.1,1.6l1.4,0l0.6,0.5l-0.9,2.8
	l0.2,0.7l-1.2,1l0.2,0.7l0.6,0.1l-0.5,1.3l0.5,1.2l1.4,1.2l-0.4,1.9l-1.4-0.9l-3.6,1.3l-0.2,1.1l1.7,3.3l-1.8,2.1l2.1,1.6l0.4,2.7
	l2.2,3.7l4.8,3l0.4-0.9l0.9,1.2l0,5.6l1.6,0.9l-0.5,0.8l1.3,1.2l2,0l-0.3,0.6l1.3,0.3l-0.3,1.4l-0.8,0.2l-0.2,1h-1l-0.8-0.6l0.2-0.4
	l-2-0.5l-1.2,0.9l-3.1,0.2l1,1.3l-0.6,1l-1.1-0.7l-0.5,0.5l-2-1.9l-1-0.1l-0.9-1.5l-1,1.2l-1.5,0l0.1,2.1l-2.9-2.1l-1.9,2.6l1.8,1.2
	l-1.5,1l-2-0.1l-0.5,2.6l-1.1,0l-0.2,0.7l-2.1-1l-0.3,0.8l-2.3-1.2l-2.1,2.3l-2.4,1l0.1,1.3l-1.6,2.2l-0.7-0.2l-0.1-1l-1.2-0.3
	l-0.2,0.6l-0.4-0.5l-2.1-0.2l0.6,2.2l-1.7,0.6l-5.2-1l-0.6,0.6l-1.9-0.1l-0.2,0.5l-3.2,0.8l0.4-1l-0.9-0.4l-1.8,1.1l0,3.3l-1.2-0.1
	l0.2-0.5l-0.5-0.3l-0.8,1l-0.5-0.6l-1.2,0.6l-2.3-1.4l-0.9,0.6l-1.5-1.1l-0.9-1.9l0.4-1.3l-0.8-0.9l2.1-2.3l0.7-1.7l-1.2-1.7
	l-1.1-0.2l-0.1,0.7l-0.6-0.5l-0.4-3.3l-3.5-0.5l-2.1-1.8l-0.7-0.7l0.6-1.7l-1.8-1.8l0.5-0.8l-7.2-5.9l-0.6-7.4l-1.6-1.4l-1,1
	l-1.6-0.3l-3,1.4l-0.1,1.6l-1.1,0.9l-0.8-0.7l1-1.4l-2.3-0.9l-2.1,1.4l0.2-1l-4.2-3.2l-2.1,2.8l-1.4-1.5h-1l-3.5,1.5l0.2,0.7
	l1.5,0.2l0.5,0.6l-0.3,0.7l-2.9,1.2L656,174l-1.1,0.1l-1.3-1l-8.1-2.3l-1.9,0.5l-0.8,0.8l-1.3-1.5l-1,1.7l-0.3-1l-0.8-0.3l-1.6,0.6
	l0,0.8l-0.8-0.6l-0.4-1.4l-2,0.1l-0.2-2l-3.1-0.1l-0.2-1l-0.9-0.3l-1.3-1.6l-2,1.2l-0.2,2.6l-0.9,0.5l-1.7-0.4l-1-1.3l-3.1,1.6
	l-0.8-1l-1.9-0.3l-1-1.8l2.7-3.4l0.2-1.1l1.2-0.3l-1-0.6l1-3.1l-0.3-0.8l1.8-0.9l0.2-3.3l-0.8-1.5l4.2-1l1.4-0.9l-0.4-0.5l-1,0.1
	l-0.4-0.9h-1l-2-3.9l0.8-0.7l-0.7-2.4l1.6-1.9l-0.8-0.4l0.6-1.3l-0.5-1.7l0.7-0.7l1.4,0l-0.6-2.7l0.2-3.3l-2.2,0.1l-0.7,0.5
	l-0.6-0.3l-1.2-4.4l-2.2,1.3l0,0.8l-2-0.8l0.9-2.9l1.4-1l-1.3-1.1l0.6-1.7l-1.8-0.3l-0.1-0.8L611,118l-0.2,0.4l-0.6-0.6l2.7-4.6
	l-1.7-1.6l1.3-1.9l-0.5-0.4l0.8-0.9l2.1-0.1l0.8-0.5l-0.5-2l2.1-2.3l-0.5-1.1l0.8-2.1l-1.8-0.4l1-0.2l-0.7-0.6l1.2-0.4l0.7-1.5
	l-0.8-2l-1.6,0l0.1-2l-1.1-2.4l1.6-1.2l0.5,0.4l-1.1,1.2l1.3,0.7l0,1l1.4,0.3l1.4-0.2l-0.1-1.2l-0.8-0.1l-0.4-0.8l1.3,0.1l0.3,0.8
	l0.8,0l0.2-1.5l-1-0.5l0.9-1.2l-1.1-1l0.4-2.7l0.8-0.9l-0.2-1.4l0.4-1.1l0.7,0.3l2.4-1.3l-0.4-2.8l-0.9-0.5l-0.7-1.8l0.2-0.7
	l2.6,0.1l0.9-0.9l-1.8-0.3l-2-2.3l-0.1-2.9l-1.3-0.4l0.8-1.8l-0.5-5.3l-1.8-2l-0.7-2.4l-0.6-0.2l0.5-0.7l0.7,0.1l1.2-2.6l1.3-0.6
	l-0.5-1.3l-0.6-0.3l-0.3-2.7l3-1.9l0-1.8l2.5-0.2l-0.1-0.7l1.5-0.1l0.6-0.9l1.7,0.4l0.3-1.1l1-0.3l0.8,0.7l1.4,0l1.3-4.4l-2.2-2.7
	l-1.7-0.7l0.7-1.5l2.2,0.1l1.9-1.8l0.8,0l1.3,2.1l2.3-1l1.8,0l0-4.5l-0.5,0.5l-1.9-0.6l-1.1,0.3l0.3-0.8l-0.5-1.2l-1.4-0.5l0.1-0.9
	l-4.1-1.9l-0.8,0.5l0.8,0.4l-1.1-0.2l0.3-1.6l0.6-0.2l-1.2-1.8l-0.2-1.2l1.1-1.1l-0.9-1.1l1.9-0.7l1-1.9l-0.5-1.4l0.7-0.1l0.6-0.9
	l-0.1-1.2l0.7-0.8L635,8.6l0.9-0.3l-0.6-1.5l1.3-0.5l0.8-2.1l1.1,0.3L638,3.4l1-1.3l0.5,0.8l2.7,0.1l0.4,1.3l-0.5,0.8l-1,0.2
	l-0.7,1.8l4.3,1.1l0.4-0.9L644,6.2l2,1.1l1.3-2l3-0.5l1.2-0.9l0.2-0.8l1.8-0.5l0.9,0.8l3.3-1.3L660.4,2.7z"/>
<path class="js-tab-link" data-target="uzhhorod" style="fill:#ECEEF1;stroke:#FFFFFF;stroke-linecap:round;stroke-linejoin:round;" d="M30.3,296.7l1.6,0.8l1-1l2.9,0.7l0.8-0.9
	l2.5,2.4l1-0.1l0.8,2l2.4-0.5l0.2-0.9l-1-1l0.4-0.7l3.2,1.8l-2,1.4l0.9,2.7l-1.1,0l-1.3,1l0,1.4l1.2,2.8l2.1,1.8l1.9,0.8l0.4,2.6
	l0.8,1l0.7,0.3l1-1.3l1.2-0.5l1,0.3l2.2-1.4l1.9,1.1l0.1,1.3l1,0.2l2.9,6.1l3.5-0.1l1.2-1.1l2.3,1.8l2.1-1.3l0.8,2.3l2.6,1.2
	l2.7,0.8l2.1-1.2l2.3,0.5l2.4,0.6l0.5,1.1l1.4,0l0.7,0.6l0.1,1.4l3.8,3.7l4.7,0.2l0.3,3.9l3,3.1l3.1-0.6l1.1,1.5l-1,5.1l0.8,1.4
	l2.7,0.7l0.6-0.5l-0.2-0.8l1.2-2.7l2.1,0.4l1.7-1.3l0.6,0.4l0.8-1.1l1.7-0.7l0.7,0.8l-0.5,0.9l0.1,2l0.8,1l-0.9,1.3l0.2,1.6l0.9,0.9
	l-0.2,2.1l0.7,0.7l-0.2,1.1l1.7,1.1l0,0.6l3.6,0.7l0.7,0.7l1.8-2.6l-0.1-1.2l3,0.6l1,0.8l-0.3,1.4l0.8,1l2.8,1.5l1.5,2.3l2.4,1.8
	l0.4,0.8l-0.4,2.3l2.3,1l1.1,1.3l-1.4,1.5l0.2,0.5l-0.8,0.7l0.5,0.9l-1,1.4l1.6,2.9l1.3,0.5l0.4,1.2l2.2,1.4l1.5,3.2l-2.8,2.4
	l-0.7,4.4l-0.7,0.8l-1.6-0.1l-0.9,0.8l-4.2-1.6l-2.4,1.4l-0.7,2.3l-1.8,1l-1.4-0.9l-2.5,1.7l-1.3-0.1l-1.6,0.9l-2-1.7l-4.5,0.3
	l-1-1.9l-1.8-1.3l-1.7,0.3l-1.3-1.5l-1.4,0.7l-0.3-0.6l-1.4,0.3l-0.6,1.3l-3.3,0.4l-0.9,0.8l-1-0.7l-1.4-3.2l-2.5-1.4l-1.7-0.2
	l-4.6,1l-2.9-2l-2.8,0.4l-2.1-1.4l-0.4,2l-1.5,2.4l-2.5-0.7l-1-1.1l-1.1,0.1l-0.8-1.1l-1.3-0.1l-1.5-1.4l-1,0l0.2-1.5l-2.4-0.7
	l-0.7-0.8l0.6-1.5l-1.2-1.1l-0.1-1.1l-0.7-0.1l-0.4,0.7l-3-0.4l-0.7-1.7l-0.7-0.2l-1,0.7l-0.6,1.4l-1.4,0.6l0.5,0.8l-1,1l0.3,1
	l-0.7,0.9l0.5,0.6l-1,1.3l0.4,0.3l-0.3,0.8l-3.3,0.2l-1,1.2l-2.4-1.8l-0.6,0.3l-1.8-0.9l-0.5,1.1l1,0.7l0.6,2.6l-2.9,0.9l-0.4-1.1
	l-2.7-1.1l-0.2-0.6l1.6-1.8l0.9-3.5l-0.7,0.2l-0.4-1.8l-1.3-0.8l-0.8-1.5l0.1-1.5l-0.5-0.1l-0.5,1l-0.3-1.3l-0.6,0.4l-1-0.4l0.2,0.7
	l-0.5,0.3l-0.6-0.9l-1.2,0l-3.7,2.4l-4.5-1.4l0.4-0.8l-0.6-2l0.5-0.2l-0.8-1.3l-0.5,0.1l-0.6-1.6l0.4-1.6l-2.2-1l-0.9-1.4l0-0.9
	l-1-0.2l0.2-0.7l-0.8-0.5l-1.7,1l-1.4-0.9l-1.8,0.2l-1.1,1.2l-2.3-3.7l-0.2-2.3l-1.3-1.5l0.3-2.3l-2.9-0.6l-1.5-2.1l1.3-2.1L6.5,351
	l-1.6-1.3l-3.5,2L1,348.9l1.2-11.1l1.3-3.1l1.8-1.6l0.9,0l1.2-2.1l2.9-2.5l2-0.6l1.2-4.2l0-0.7l-1-0.8l0.1-0.9l2.3-3.3l-0.6-3
	l0.4-2.2l0.8-1.3l1.3-0.8l0.6-3l-0.4-0.7l2.8-4l0.2-1.3l1.3-0.6l1.1,0.2l1.4-0.8l-0.5-1.2l0.8-0.7l0.1-4.2l1.1-1.3l0.9-0.4l2.1,1.4
	L30.3,296.7z"/>
<path class="js-tab-link" data-target="lutsk" style="fill:#ECEEF1;stroke:#FFFFFF;stroke-linecap:round;stroke-linejoin:round;" d="M175.1,39.5l1.9-0.7l4.3,2.9l3.7,0.7
	l0.5,0.7h3.6l0.6-1l1.4,0.8l1-1.6l3.4,1.3l0.3,0.9l1.9,1.3l2.2-0.1l2,0.7l-0.7,1.1l-1.7,1l-1.3,2.3l0.8,2.1l-0.8,0.5l-0.4,1.4
	l1.6,1.8l-0.6,1.4l0.6,0.3l0.7-0.6l0.6,1.5l-1.1,2.2l0.1,1l-0.9,0.8l-0.6,2.6l-2,3.5l-1-0.3l-0.6,1.8l-0.6-0.1l0.2-0.6l-2.1,0.2v1.4
	l1.2-0.7l0.5,1.8l1.1-0.1l1.2,2l-0.4,2l-1,0.5l-0.6,1.5l1.5,0.7l0,0.8l-2.5,0.9l0.2,0.9l2.9-0.3l-0.3,1.1l1.3,0l-0.2,1.1l1.2-0.1
	l0,5.1l2.5,1.8l0.4,1.2l0.5,0l-0.1,1.4l0.6-0.6l0.9,0.3l-0.6-0.8l0.7-1.1l1.8,0l-0.2,1.6l1.3,0.7l0.5-0.4l0.9,0.3l1.5-1.1l0.7,1.3
	l-1.2,0.5l0.4,0.4L209,96l1.3,1.4l2,0.9l0.4,1.9l1,0.1l1.4,1.2l-0.4,1.1l0.7,0.9l0.1,1.5l3.1,0.7l3.5,3.9l0.4,2.5l-1,0l0,1l-2.4,1
	l-0.2-0.7l-0.8-0.1l0,1.5l-1.9-0.3l-1.3,0.6l0.7,1.3l-0.4,1.7l2.1,0.6l2.3-0.3l4,2.6l1,4.3l-1.2,0.4l-0.2,2.6l-4.7,0.4l-1.9,0.7
	l2.2,1.8l-0.6,6.2l1.2,0.1l1.4,1.3l0.1,0.8l-1,1.9l-6.3-1l-1.2,2.9l0,2.7l-0.8,2.1l0.4,3l-0.4,1.7l-2.6,3.8l1.1,1.4l-0.5,0.6
	l-0.7-0.2l-1.6-3.7l-1.1-0.7l-1.9,0.6l-1.8-0.2l0.8-1l-1.8-1.9l0-1.8l-3.4,1l-2-0.1l0.2,1.7l-0.7-0.4l-4.2,1.5l-2.9,1.3l0.2,0.7
	l-3.5-0.7l-1.2-1.6l0.5,1.8l-0.8,1.3l-0.7-0.1l-0.6,0.9l0.6-0.1l0.2,1l1.8,1.9l-2.6,0.2l-0.2-0.5l-1.4-0.1l-1-1.2l-1.3,0l1,3
	l-0.5,1.8l1.2-0.5l0.4,1.5l-0.8,0.6l-0.8,1.9l-2.7,0.3l-0.6-0.6l-2.4-0.3l-0.3-0.7l-3.7,0.1l-0.1,1.7l1.7,1.3l0.4,1l-0.5,3.2
	l-3.6-0.6l3.6,2l-0.7,2.2l1.1-0.3l0.6,1l0.1,2l1.4,0l0.8,1.4l-0.7,1.5l-1,0.2l-0.6-1.7l-1.4,0.9l0.3,2.1l1,1.3l-2.2,1l0.1,0.7l-1,0
	l-0.5,1l0.6,1.1l-3.1-1.3l0.2-2.2l-0.5-1.2l-1.8-0.1l-4.3-4l-0.7,0.9l0.3,2.9l-2.8,0l0-1.2l-1.1-0.1l-0.5,0.7l-3.9,0.4l-0.8,0.6
	l-3.6-0.5l0.5-2.8l-3.8-2.3v-0.6l-3.3-0.3l0.1-3.9l-0.5-0.4l0.6-0.4l-0.6-2.3l0.4-0.5l-0.6-0.3l-0.2,0.8l-1.1,0.3l-0.6-0.5l0.1-2.3
	l-1.5-2.9l-1-0.3l-2.4,1.3l-1.1,0l-2.3-1.6l-0.4-1.3l0.6-1.1l-1.7-1.8l-0.8,0.9l-2.1,0l-0.8,2l-3.9-0.7l-2.2-1.5l-0.6-1.5l-1-0.3
	l-2.1-3.9l-2.9,0.2l-0.3-1.2l-1.1-0.3l0.5-3.7l-1.6,0.3l-1.5-0.7l-0.1-2.1l0.4-0.4l-0.6-0.2l0.6-1l-0.6-0.6l-1.9,0.4l-0.6-0.6
	l-0.6-1.6l0.3-1.8l1.3-1.9l1-0.5l2.3,0.1l0,0.5l3.5-0.4l1.9-1.5l0.4-1.1l-1.6-0.2l-1.7-1.6l-1.9-0.2l-4.7-5.3l-0.8-3.5l-2.4-1.9
	l1.2-0.3l-0.7-0.2l-0.4-1l0.8-0.9l-0.9-0.3l-0.2-2.8l-1.4-0.7l-0.5,0.5l-0.3-1.5l-0.7-0.5l0.2-1.1l-0.7-0.8l0.3-0.8l0.8,0l0.2-1.8
	l-1.5-1.2l-1.1,0.2l-0.9-2l-1.3-0.4l-1.6-2.1l-0.9-0.1l0.2-1.1l-0.9-0.9l0-2.2l-1.6-1.9l0-0.8l-0.2,0.4L87,99.8l-0.3,0.5L86,99.9
	l0.4-0.7l-0.7-0.9l-0.2-2.1l1-0.7l-0.3-0.3l0.8-2l1.1-0.1L87.8,92l0.5-0.8l-0.6-0.5l1.5-0.8l0-0.9l-0.5-0.3l0.6-0.4l-0.6,0l-0.7-1.1
	l0.4-1l-2-0.3l-0.1-1.1l1.5-1.1l-0.3-1L86.8,82l-1.2,0.4l-1.1-1l-0.1-1.3l0.2,0.7l2.4,0.5l0.6-0.6l-2.2-4.2l1.3-1.4l0.2-1.3l-1.8-1
	l-1.4-2.8l3.2-1.6l0.8-1.1l1.8,0.3l4-1.5l0.6,0.7l0.1,1.8l2-0.6l4.8,1.3l-1.9,2.2l0.2,1.5l2.3-0.6l4.2,1.6l1.4-1.8l3-1.8l2.6-4.1
	l8.4-4.6l2.7-2.9l-1.3-4.8l2.7-4.2l-0.3-1l2.7-2l5.1,0l5.3-0.8l3.3-1.1l2.4,0.9l2.5-0.3l1.5,1.2h0.9l3.8-2.7l0.7,0.1l0.4,1.3
	l4.2-1.3l0.7,1.3h1.9l1.8-1.8l1.3-0.2l4.3-3l2.5,0l3.1-1.6L175.1,39.5z"/>
<path class="js-tab-link" data-target="lviv" style="fill:#ECEEF1;stroke:#FFFFFF;stroke-linecap:round;stroke-linejoin:round;" d="M110.9,156.1l2.9-0.2l2.1,3.9l1,0.3
	l0.6,1.5l2.2,1.5l3.9,0.7l0.8-2l2.1,0l0.8-0.9l1.7,1.8l-0.6,1.1l0.4,1.3l2.3,1.6l1.1,0l2.4-1.3l1,0.3l1.5,2.9l-0.1,2.3l0.6,0.5
	l1.1-0.3l0.2-0.8l0.6,0.3l-0.4,0.5l0.6,2.3l-0.6,0.4l0.5,0.4l-0.1,3.9l3.3,0.3v0.6l3.8,2.3l-0.5,2.8l3.6,0.5l0.8-0.6l3.9-0.4
	l0.5-0.7l1.1,0.1l0,1.2l2.8,0l-0.3-2.9l0.7-0.9l4.3,4l1.8,0.1l0.5,1.2l-0.2,2.2l3.1,1.3l0.7,0.3l2.4-0.7l2.2,1l-0.1,2.9h-0.8
	l-0.8,1.2l0.3,0.9l-0.7,0.5l0.1,1.5l2.6,1.9l-0.8,1.1l-0.3,3.3l6.5,9.3l2.1,1.6l2.9,1.7l0.5,1.4l-0.4,1.6l1.2,0.8l-2.1,0.7l-0.6,1.8
	l0.9,1.3l-1,2.7l-4.1,1.1l-0.6,2.3l-1.6-0.9l-0.7,0.2v0.9l-0.9,0.1l-2.9-1.3L172,229l-1.3-0.1l-0.8,1.5l-3-0.9l0.4,3.5l-0.8,1.4
	l2.3,2.4l-2.8,2.8l-1.3-1.7l-1.3-0.5l-1.2,3.3l-0.6,4.9l-1.2,0.4l-0.8,1.7l-1-0.1l0.2,0.7l-1.6-0.5l-0.6,0.5l0.3,0.9l-1.8-0.9
	l-0.6,0.9l-1.4,0l0.1,1.5l-0.7-1l-1.7,0.6l-0.3,1.1l-4.3,0.2l0.6,2l-0.3,4.4l-1.3,0.2l-2.5-1.1l-1,0.6l-2.4-1.4l-1.3-1.7l-1.7,1
	l-1.3-0.1l-0.6-1l0.8-0.5l-1.2-1.1l-1.5-0.3l0.2,0.6l-0.7-0.2l-0.1,0.5l-1.7,1.1l0.6,2.6l-1.9,0.1l-0.6,0.9l0.8,1.9l-0.4,2.3
	l-1.6,0.3l-0.7,1l1,3.2l2.6,1.2l-2.4,2.1l0.4,1.6l-1.3,2.1l-1-0.8l-1,1l-2.2-0.6l-0.1,1.2l0.1,1.6l1.9-0.4l1.5,0.7l-0.7,2.4
	l-0.7,0.7l0.5,0.9l2.1,0.5l3.7-0.2l-0.6,1.3l0.4,0.6l-0.7,1.4l0,1.6l-1,0.4l-1.9-1.6l-1.3,0.2l-4.4,1.4l-2.7,2.1l-1.3-0.4l-0.6,0.9
	l-1.4-0.5l-0.4,1.4l-0.8-0.1l-0.6-0.9l-4.5-0.7l-2.3,2.7l-0.5-1.1l-2.2-0.9l-3.4,2.4l-0.5,0.9l-3.5-1.1l-2.2,0.7l-1-1.1l-0.5,0.2
	l-0.9-0.6l-2,2.3l-0.7-0.4l-1.1,0.6l-1.2,5.2l-1.1,0.8l-0.8-0.5l-0.6,0.5l-0.3,1.1l-3,3.3l1.2,1.8l-1.4,3.6l0.6,1.6l1.8,0.6l0.2,0.6
	l-1.9,0.9L82,314l-1.1,1.9l1.4,3.4l-2,3.6l0.3,1.2l-2.3-0.5l-2.1,1.2l-2.7-0.8l-2.6-1.2l-0.8-2.3l-2.1,1.3l-2.3-1.8l-1.2,1.1
	l-3.5,0.1l-2.9-6.1l-1-0.2l-0.1-1.3l-1.9-1.1l-2.2,1.4l-1-0.4l-1.2,0.5l-1,1.3L49,315l-0.8-1l-0.4-2.6l-1.9-0.8l-2.1-1.8l-1.2-2.8
	l0-1.4l1.3-1l1.1,0l-0.9-2.7l2-1.4l-3.2-1.8l-0.8,0l0.4-1.1l-0.5-1.3l1.4-2.6l-1.8-0.5l-0.4-1l-1.2,0.2l-0.8-1.6l-1.2-0.7l-0.2-1.6
	l-2.1,0.4l-0.7-0.5l0.9-2l-1.2,0l-0.9,1.5l-0.6-0.9l1.5-3l0.7-0.4l-1.5-0.5l-0.3-0.9l0.4-0.9l1-0.5l0.6-5.9l-0.3-3.9l-2.7-11.4
	l-2-0.7l-1.2-2.5l1.3-0.8l1.9-3.8l4.8-6.3l0.3-1.8l0.9-1.3l1.2-0.3l1.2-1.2l1.5-2.5l1.3-1l1.3-2.8l2.4-2l0.5-2.9l1.5-0.4l6.6-9.8
	l5.6-6.6l0.3-1.6l1.4-0.6l2.1-2.6l0-1.5l0.8,0.1l1.2-0.9l8.8-9.2l6.2-4.3l3.1-4.6l2.7-1.1l0.8-3.6l1.4-1.3l4.5-1.5l7.6-0.8l3.3,0.2
	l0.4-2l1.6-0.9l2.8-8.5l0.8-5.6l-0.4-1.2l0.3-1.6l-0.6,0l-0.4-0.8L110.9,156.1z"/>
<path class="js-tab-link" data-target="ivano-frankivsk" style="fill:#ECEEF1;stroke:#FFFFFF;stroke-linecap:round;stroke-linejoin:round;" d="M80.6,324.1l-0.3-1.2l2-3.6l-1.4-3.4
	L82,314l0.1-1.7l1.9-0.9l-0.2-0.6l-1.8-0.6l-0.6-1.6l1.4-3.6l-1.2-1.8l3-3.3l0.3-1.1l0.6-0.5l0.8,0.5l1.1-0.8l1.2-5.2l1.1-0.6
	l0.7,0.4l2-2.3l0.9,0.6l0.5-0.2l1,1.1l2.2-0.7l3.5,1.1l0.5-0.9l3.4-2.4l2.2,0.9l0.5,1.1l2.3-2.7l4.5,0.7l0.6,0.9l0.8,0.1l0.4-1.4
	l1.4,0.5l0.6-0.9l1.3,0.4l2.7-2.1l4.4-1.4l1.3-0.2l1.9,1.6l1-0.4l0-1.6l0.7-1.4l-0.4-0.6l0.6-1.3l-3.7,0.2l-2.1-0.5l-0.5-0.9
	l0.7-0.7l0.7-2.4l-1.5-0.7l-1.9,0.4l-0.2-1.6l0.1-1.2l2.2,0.6l1-1l1,0.8l1.3-2.1l-0.4-1.6l2.4-2.1l-2.6-1.2l-1-3.2l0.7-1l1.6-0.3
	l0.4-2.3l-0.8-1.9l0.6-0.9l1.9-0.1l-0.6-2.6l1.7-1.1l0.1-0.5l0.7,0.2l-0.2-0.6l1.5,0.3l1.2,1.1l-0.8,0.5l0.6,1l1.3,0.1l1.7-1
	l1.3,1.7l2.4,1.4l1-0.6l2.5,1.1l1.3-0.2l2.3,5.2l0.9,4.3l0.9,0.4l1.1-0.6l0.7,0.5l0.6,2l1.3,0.9l-1.8,2.7l0.1,2.7l0.7,0.7l0.2,1.4
	l4.8,2.4l-4.1,4.8l0,1.4l2.5,2.9l3.3,0.3l1.2,0.7l-0.5,3l0.9,0.2l0.1,0.8l-4.2-1l-0.7,2.4l3.5,3.6l-0.1,1.6l2.9-1.5l4.1,2.5l1.4-1.3
	l-0.3,2.7l2.1,1.7l-1.6,1.7l1.2,4.8l1,0.4l0.6-0.5l-0.2-2.2l1.7-1.5l-0.3-1.1l1.1,0.4l1.4-0.8l-0.3,4.2l-1.1,2.9h1l1.1-1.7l1.9,0.5
	l0.8,1.5l1.3-0.2l0.4,0.5l-0.6,1.2l-3,0l-1.1,0.8l-0.2,1.3l0.9,1.5l1.5,0.1l0.7-1.9l1.2-1.2l0.8,0.1l0.8,1.1l0.6-0.2l-0.5-4.4l1.3,0
	l3.4,1.3l0.5-0.6l-0.6-1.5l0.4-0.4l1,0.4l0.9,1l-1.1,1.3l0.3,0.7l2.8,2.2l2.2,0.3l3.1,3.1l2.3,1.4l-0.2,0.8l-1.5,1.1l0.2,0.7
	l2.2,0.9l-0.1,0.8l-1.7,1.5l0.5,0.6l-2.5,3.6l0.4,0.6l-0.1,2.9l0.8,1.6l-0.1,10.4l1.2,4.2l-0.6,1.4h-3.8l-1.3-1.2l-3-0.5l-1.8,0.7
	l-2.1,0l-3.6,1.5l-4.1,4.2l-4.4,6.4l-2.2,0.4l-2.1,1.8l0.6,0.4l-0.1,0.9l1.3,1.1l-0.1,1.1l-0.6,0.3l-1.5-0.6l-0.9,0.4l0.4,1.5
	l-1.4,0.4l-0.1,2.2l-1.5,0.4l-0.2,1.4l-1.9-0.7l-0.9,0.4l-0.3,0.6l0.8,1.8l-4.6,5l0.4,1.5l-0.7,1.2l0.8,2.7l-0.3,0.7l0.5,0.3
	l-0.5,0.6l2.1,2.3l0.2,1.3l-0.8,0.3l0.2,0.8l2,1.9l-0.1,0.6l0.8,0.3l-0.8,2.3l-2,2.9l-1.4,5.6l-2.2,0.3l-0.4-2.4L153,404l0-1.1
	l-0.8-1l0.4-1.2l-2.5-0.4l-0.3-1l-0.7-0.2l-0.8,0.8l-0.9-1.1l-1.7,0.2l-0.2-1l-1.7-0.9l-0.3-1l0.4-1.6l-1.2-2l-0.8-0.4l-0.5-2.1
	l-1-0.1l-0.5,0.5l-0.9-1.6l-1-0.2l0.7-4.4l2.8-2.4l-1.5-3.2l-2.2-1.4l-0.4-1.2l-1.3-0.5l-1.6-2.9l1-1.4l-0.5-0.9l0.8-0.7l-0.2-0.5
	l1.4-1.5l-1.1-1.3l-2.3-1l0.4-2.3l-0.4-0.8l-2.4-1.8l-1.5-2.3l-2.8-1.5l-0.8-1l0.3-1.4l-1-0.8l-3-0.6l0.1,1.2l-1.8,2.6l-0.7-0.7
	l-3.6-0.7l0-0.6l-1.7-1.1l0.2-1.1l-0.7-0.7l0.2-2.1l-0.9-0.9l-0.2-1.6l0.9-1.3l-0.8-1l-0.1-2l0.5-0.9l-0.7-0.8l-1.7,0.7l-0.8,1.1
	l-0.6-0.4l-1.7,1.3l-2.1-0.4l-1.2,2.7l0.2,0.8l-0.6,0.5l-2.7-0.7l-0.8-1.4l1-5.1l-1.1-1.5l-3.1,0.6l-3-3.1l-0.3-3.9l-4.7-0.2
	l-3.8-3.7l-0.1-1.4l-0.7-0.6l-1.4,0l-0.5-1.1L80.6,324.1z"/>
<path class="js-tab-link" data-target="chernivtsi" style="fill:#ECEEF1;stroke:#FFFFFF;stroke-linecap:round;stroke-linejoin:round;" d="M197.8,328.8l4.7,0.9l1.3,2.5l1.2-2.5
	l0.9-1l0.6,0l1.1,0.6l2.9,3.9l-0.2,2.1l1.4-0.2l1.9,1.1l1.5-0.4l2.3-2.5l2.6,1l0.6-2.7l1.1-0.4l0.5,0.6l0.4,2.9l-1.2,1.9l2.8,3.9
	l1.8-1.3l-0.1-1.2l-1.7-2.7l0.3-1.2l0.9-0.5l1.5,1.7l0.2,4.4l1.2,1.7l1.6,0.3l4-1.2l1.9,2.6l1.3-0.6l1.5,0.7l2.2-2.3l2.9-0.2
	l2.4-0.6l3.8,7.3l2.7,0.5l1.5-0.9l-1-2.7l0.2-1.1l1.3,0.1l1.3,1.8l2.3-0.1l0.9-0.7l-0.3-1.1l-1.6-1.5l-0.3-1.3l-2.7,0.4l-0.5-0.7
	l0.2-0.9l0.8-0.6l1.3,0l2.5,2.4l1.4,0.1l0.7-0.6l0.2-1.2l-0.2-1.2l-1-1l0.5-0.7l1.1,0.7l0.6,2.6l1.1,0.2l0.9-1.7l-1-2.5l1.4-1.2
	l1.2,0.5l-0.3,1.9l1.1,2l2.2,1.5l1.3-0.6l1.4-2.2l2.2-0.1l1.3-1.1l0.5,1.5l4.8,1.1l1.8-0.1l1.3-1.5l1.3-0.6l4.6,1.5l1.1-1.5
	l-1.5-2.1l0.4-1.3l2,0l2.2,2l1.3-0.6l0.5-1.9l1.1-0.1l4.5,2.6l1.7,5l-0.2,2.8l1.1,2.1l1.9,1.1l-1.7,1.3l-1.7,0.2l-1.5,3.5l-3.2,0
	l-0.6-0.9l0.1-1.2l-0.7-0.6l-0.9-0.6v0.7l-0.6-0.6l-0.2,0.7l-1-0.2l-2,6l-1.1-0.8l-1.6,0.6l-1.2-1.3l-1.2-0.3l-1.5,1.3l-1.6,0.4
	l-2.6-3l-0.5-2.1l-1,1.1l-2.7-0.1l1.3,1l0.5,2.5l-0.2,0.4l-1-0.6l-1.4,0.3l-0.5,1.8l-3.6-1.1l-0.2,0.6l-1.7-1.6l0.1-1.3l-1.2-1.8
	l-1.5,0.5l-4-0.4l-1.4,1.7l-1.6-0.9l-0.7,0.5l2.8,4.2l1.6,0.9l0.8-0.6l0.8,0.6l0.4,2.6l-0.8,1.6l-1,0.2l-1.2-0.7l-0.9-1.7l-1,0.6
	l-2.6-3.7l-0.6,0.1l0.7,2.3l-1.1,0.2l-0.1,0.7l-1.5,1.1v0.6l-1.7,1.9l0.6,1.4l-0.1,0.8l-0.8-0.2l0.2,0.9l-1.3,0.1l-0.6-0.6l-0.7,0.4
	l-0.1,1.8l-1.1-0.5l-0.2,0.8l-1.3,0.6l-3.1-0.9l-0.8,1.2l-1.2,0.3l0.2,0.6l-0.9-0.5l-2,1.2l-0.7-0.9l-0.8,1l-0.6-0.5l-0.1,0.6
	l-0.8,0l-0.3,0.6l0.4,1.5l-2,2.1l-1.3,4.3l-3.4,2.6l-0.8,3.8l-0.8,1l-4.3,1.3l-2.5-0.8l-6.3,1.5l-2.1-0.5l-0.6,1.1l-0.8,0.3
	l-1.7-0.8l-2,0.5l-0.8,1.1l-2,0.9l-5.1-0.2l-2-0.6l-3.3,1l-15.5,1.9l-2.4,1.8l-2.2,0.1l-0.6,2.8l-3,4.2l-0.1,1.5l-1.1,0.1l-0.8,0.8
	l-0.9,2.1l-2.7,1.1l-0.7-0.4l-0.9,1.8l-1.8-0.7l-0.6,0.7l-4.3-0.1l1.4-5.6l2-2.9l0.8-2.3l-0.9-0.3l0.2-0.6l-2-1.9l-0.2-0.8l0.8-0.3
	l-0.2-1.3l-2.1-2.3l0.5-0.6l-0.5-0.3l0.3-0.7l-0.8-2.7l0.7-1.2l-0.4-1.5l4.6-5l-0.8-1.8l0.3-0.6l0.9-0.4l1.9,0.7l0.2-1.4l1.5-0.4
	l0.1-2.2l1.4-0.3l-0.4-1.5l0.9-0.4l1.5,0.6l0.5-0.3l0.1-1.1l-1.3-1.1l0.2-0.9l-0.6-0.4l2.1-1.8l2.2-0.4l4.4-6.4l4.1-4.2l3.6-1.5
	l2.1,0l1.8-0.7l3,0.5l1.3,1.2h3.8l0.6-1.4l-1.2-4.2l0.1-10.4l-0.8-1.6l0.1-2.9l-0.4-0.6L197.8,328.8z"/>
<path class="js-tab-link" data-target="ternopil" style="fill:#ECEEF1;stroke:#FFFFFF;stroke-linecap:round;stroke-linejoin:round;" d="M182,214l0.9-3.6l3.8-0.6l0.4-1.6l1-0.9
	l-0.2-1.1l2-0.7l-0.2-1l-1.6-0.3l-0.4-0.8l-0.1-2l1.6-1.3l1.5,0.2l-0.1,0.7l3,0.5l1.2-2.2l2.9,2l3.2-2.3l2,0.4l0.3-1.2l2.1,0.7
	l1.7-0.6l1.4,0.3l2-0.8l1.1-2.5l3-3.3l1.6,0l0.8,1l1.8,0.6l0.4,0.8l2.9-2.3l5.7,2.4l1.7-3.1l1.6-0.2l-0.3,3.2l-1.8-0.1l0.4,1.3
	l-0.7,1.6l2.3,1.5l-0.5,0.5l0.4,1.4l-0.5,0.5l0.8,0.9l1.1-0.1l-0.5,1l2.2,1.7v1l-4.1,0.3l0.1,2.6l1.1,0.8l0.3,1.2H231l0,0.8
	l-1.1,0.1l-1.2,1l1.9,0.7L230,215l-1.8-0.2l-0.1,0.8l-1.1,0.9l-0.2,1.7l1.1,3.1l-1.7,1.4v0.7l1.5,0.7l0.1,0.6l2.3,1.2l-1.3,1.8
	l2.1,3.2l0.5,2.5l0.8,0.5l0.3,2.5l-1.7,1l-1.3,2l2.8,1.8l1.7,1.9l0.2,1l-0.9,0.4l-0.1,1.3l-1.4-0.1l-0.4,1.1l-1.5,1.3l0.8,1.8
	l-0.4,0.7l0.6,2.5l-0.8,0.3l-0.4-0.9l-1.2,0.7l-1.9,3.4l2.8,2.6l0.1,4.4l2.2,2.6l-0.7,1.9l1.3,0.8l-0.6,0.9l0.6,1.1l-0.9-0.1l0,1.8
	l1.3,1.2l-0.1,1.2l0.7,0.8l-0.6,0.3l0.3,0.9l-0.8-0.1l0.8,1.2l-0.8,0.8l0,0.9l-2.3,0l-0.1,1.9l-0.7,0.1l0.3,0.7l-0.6,1.3l0.6,1.3
	l-0.3,0.8l1.2,0.9l-1.2,0.2l0.8,2.3l-0.4,0.4l0.4,2.5l-0.6,2l1.3,0.3l-1.7,1.5l1.3,1.7l-0.5,1l0.9,1.4l-0.3,0.6l-1-0.3l-0.8,0.6
	l0.3,0.7l1.6,0.4l-2,0.9l1.7,1.6l-0.8,1.6l0.2,1.4h-0.7l0.6,1.2l0.9-0.7l0.6,0.2l-1,1.1l0.5,1.5l-0.6,2l0.8,0.4l1,2.7l1.3,0.2
	l-0.6,0.7l-1.2-0.4l0.5,2l-1.1-1l-0.4,0.4l0.4,1.5l1.2,0.3l-0.3,1.3l0.8,0.6l-0.1,0.4l-1.1-0.3l1.2,1.3l-0.7,2.3l0.5,1l-1,0.9
	l0.3,0.5l1-0.2l0.1,1.3l1.6-0.1L234,331l2.1-0.6l-1.1,1.4l1.6,0.2l0.2,0.5l-1.7,0.6l1.8,1l1,2.2l0.9-0.1l-1.2,1.5l1.6,0.9l-0.3,1.3
	l0.7,0l0.6-1.8l1.5,1.9l1.5-0.5l0.4,0.8l-2.9,0.2l-2.2,2.3l-1.5-0.7l-1.3,0.6l-1.9-2.6l-4,1.2l-1.6-0.3l-1.2-1.7l-0.2-4.4l-1.5-1.7
	l-0.9,0.5l-0.3,1.2l1.7,2.7l0.1,1.2l-1.8,1.3l-2.8-3.9l1.2-1.9l-0.4-2.9l-0.5-0.6l-1.1,0.4l-0.6,2.7l-2.6-1l-2.3,2.5l-1.5,0.4
	l-1.9-1.1l-1.4,0.2l0.2-2.1l-2.9-3.9l-1.1-0.6l-0.6,0l-0.9,1l-1.2,2.5l-1.3-2.5l-4.7-0.9l-0.5-0.6l1.7-1.5l0.1-0.8l-2.2-0.9
	l-0.2-0.7l1.5-1.1l0.2-0.8l-2.3-1.4l-3.1-3.1l-2.2-0.3l-2.8-2.2l-0.3-0.7l1.1-1.3l-0.9-1l-1-0.4l-0.4,0.3l0.6,1.5l-0.5,0.6l-3.4-1.3
	l-1.3,0l0.5,4.4l-0.6,0.2l-0.8-1.1l-0.8-0.1l-1.2,1.2l-0.7,1.9l-1.5-0.1l-0.9-1.5l0.2-1.3l1.1-0.8l3,0l0.6-1.2l-0.4-0.5l-1.3,0.2
	l-0.8-1.5l-1.9-0.5l-1.1,1.7h-1l1.1-2.9l0.3-4.2l-1.4,0.8l-1.1-0.4l0.3,1.1l-1.7,1.5l0.2,2.2l-0.6,0.5l-1-0.4l-1.2-4.8l1.6-1.7
	l-2.1-1.7l0.3-2.7l-1.4,1.3l-4.1-2.5l-2.9,1.5l0.1-1.6l-3.5-3.6l0.7-2.4l4.2,1l-0.1-0.8l-0.9-0.2l0.5-3l-1.2-0.7l-3.3-0.3l-2.5-2.9
	l0-1.4l4.1-4.8l-4.8-2.4l-0.2-1.4l-0.7-0.7l-0.2-2.7l1.8-2.7l-1.3-0.9l-0.6-2l-0.7-0.5l-1.1,0.6l-0.9-0.4l-0.9-4.3l-2.3-5.2l0.3-4.4
	l-0.6-2l4.3-0.2l0.3-1.1l1.7-0.6l0.7,1l-0.1-1.5l1.4,0l0.6-0.9l1.8,0.9l-0.3-0.9l0.6-0.5l1.6,0.5l-0.2-0.7l1,0.1l0.8-1.7l1.2-0.4
	l0.6-4.9l1.2-3.3l1.3,0.5l1.3,1.7l2.8-2.8l-2.3-2.4l0.8-1.4l-0.5-3.5l3,0.9l0.8-1.5l1.3,0.1l0.5-0.5l2.9,1.3l0.9-0.1v-0.9l0.7-0.2
	l1.6,0.9l0.6-2.3l4.1-1.1l1-2.7l-0.9-1.3l0.6-1.8l2.1-0.7l-1.2-0.8l0.4-1.6l-0.5-1.4L182,214z"/>
<path class="js-tab-link" data-target="dnipro" style="fill:#ECEEF1;stroke:#FFFFFF;stroke-linecap:round;stroke-linejoin:round;" d="M663.6,309.2l2.1,2l3,1.2l2,0l0.9,1.9
	l1.8,1.4l2.9,0.3l0.4,0.7l-0.3,1.9l0.6,0.9l1.4,0.6l1.1-0.3l1.4,1.4l1.7,0.5l1.2,1.1l2,0l0.5,0.4l-0.1,1.3l1.2-2l-0.3-1.8l1.6-1.6
	l-0.8-0.6l-1.5,0.6l-0.2-3l2.9-0.2l-1.3-0.8l0.1-0.9l1.3-0.1l0-0.9l-0.7-0.1l0-1.3l-1.5-1.1l-0.4-1l0.6-3.9l2.2-3.5l-1.5-1.4
	l1.5-1.3l0.6-1.5l2.9-1.8l-0.8-3.4l3.4,2.5l0.7-0.6l1.2,0.9l1.1-0.8l2,1.3l1.2-0.6l-0.4-1.6l0.6-1.2l0.9,0.3l-0.1-1.6l1.1,0.1l1-1.1
	l1.3-0.3l0.7,0.8l0.8-0.1l0.9-1.2l0.9,0.2l1.9-1.2l1.4,0.2l0-2.5l1.1-0.6l1.5,0.7l0.8-0.6l-0.3-0.6l2.1-0.3l0.2,0.5l2,0.6l-0.5,0.8
	l-1.2-0.1l-0.2,0.6l1.8,1l1.1-0.7l0.7-2.2l1.2-0.9l3.3,3l0,0.9l0.5-0.2l1.4-0.6l0.6-1.6l1.5,1.1l0.3,1.5l0.5-1.1l1.7-0.8l1.1,1.3
	l1.2-1l1.7,0.1l0.9,0.7l-0.9,0.3l-0.1,0.5l2,1.4l-2.3,0.4l0.1,0.9l2.1,0.5l0.4-1l1.2,0.2l1,1.7l1.9,0.6l0.2,0.9l-0.6,0.6l2.5,1.2
	l-0.1,0.7l2.6,2l0.6-0.4v1.1l3.2,1.7l1.2,1.3l0.6-0.1l-0.2,0.9l1.1-0.4l0.2-0.8l0.3,0.7l2.8,0.4l1.8-1l1.8,0l0.1,1.5l3-0.2l1.5,1.7
	l0.8-1.3l0.7,0l0.3,0.9l1.2-0.4l1.4,0.4l0.4,1.8l0.6,0.3l1.1-1.8l1.2-0.1l0.5-0.8l1.3-0.4l0.3-1l1.7,0.4l1.4-2.5l2.7,2.6l-0.6,0.8
	l3.8,3.7l-1.7,2.4l1.5,1.2l-1.1,1.7l3.1,1.6l-0.6,2.3h3.3l2,2l0.9-0.2l0.6,0.5l-0.5,1.3l-2.1,0.2l1.3,1.5l-1,2.1l7.9,5.6l-1.7,3.3
	l3.7,2.7l-2.6,3.8l1.4,1.1l1.5-2l1.6,1.2l0,0.6l2.2-2.6l-0.7-0.5l2.3-3.3l1.5-0.5l-0.9-0.2l0.6-0.8l-0.9-0.3l0.2-0.4l0.8,0.1
	l2.1-2.5l4.6,4l0.8,0l0.7,1.2l3.7-0.6l-0.1-0.6l1.2-0.2l0-0.6l3.7-0.2l0.4,2.5l1.8-0.3l1.6,0.4l0.3,2.3l2.7,0l0.7,1.5l1.7,0.5
	l0.3,1.9l-3.1,0.5l0.2,2.4l-1.3,0.4l0.3,3.4l0.6,0l0.2,2.2l-0.8-0.2l-0.8,0.5l0.5,0.4l-0.7,0.3l0.3,2.9l-0.8,0.6l-0.2,1.4l0.5,2.9
	l2.9-0.3l0.2,0.9l2.1-0.3l1.5,9.8l-1.5,0l-0.3,0.6l-0.7-0.3l-0.4,1.2l-0.7-0.5l1.3,8.7l-1.1,2.2l-1,0l-0.3,1.7l-2.4-0.6l-0.4-1
	l-1.7,0.5l-0.7-0.9l-0.8,0.5l-0.3-1.5l-1.3-1.2l-0.3,0.5l-2-0.9l-0.8,0.2l-0.5-1l-0.8,0.6h0.6l-1.5,0.8l-1.1-0.7l0.1,0.5L815,379
	l0.3,2.3l-0.7,1l1,1.7l-1.2,0.7l1.3,1l-0.8,0.2l0.5,3.2l2.4-0.3l0.7,3.4l-2.8,0v0.8l-2.7,0.5l0.4,2.3l1.6-0.1l0.4,2.6l-3.4,0.9
	l-0.1,0.7l-3.5,0.4l-4.6-0.5l-0.2-0.7l-2.7-0.2l0,1.6l-2.9,0.4l-0.7-1.3l-3.9,0l-0.6-0.5l0.4-1.7l-2.2,1l-4.5,0l-0.2-1.5h2.5
	l0.7-3.2l-1.1-1.7l0.6-0.5l-0.6-0.9l-1.4,0.9l-0.6-2.9l-1.2,0.4l-0.1-0.4l1.2-0.6l-0.4-2.3l-1.2-0.3l-0.4-1l1.8-0.7l-0.7-2.9l-4.3,1
	l0.6-1l-0.4-0.4l-0.5,0.4l-0.1-1.1l0.8-0.5l-0.1-0.6l-1-0.7l-8.5,2.2l-0.5-2.6l-3.6,0.3l-2.2-3.6l-10.3,5.3l-0.2-1.5l-10.2-2.4
	l-2.5-1.8l-2.5,0.8l-1.5-0.7l-2.8,1.1l-3.9-0.1l-2.4,0.9l-1.3,1.9l-2.6,0.7l-0.3-0.5l-3.9,0.5l0-3.4l-1.9,0.3l-0.1-0.5l-1.2,0
	l1.1,6.5l-2,0.4l0.4,3l0.6,0.1l0.5,2.6l2.1-0.2l0.6,4.2l-2,0.5l-0.4-0.9l-1.4,0.5l0.1,1.1l-2.8,0.4l0.8,4.2l2.4-1.1l0.6,2.3l1.6-0.1
	l0.2,1.8l-1.3,0.9l0.7,5l3.6-0.6l0.3,2.2l-0.5,0.2l0.1,2.2l-1.4,0.2l0.4,2.8l-1.8,0.5l0.5,3l0.9-0.1l0.7,2.8l-0.5,0.8l-0.3-0.5
	l0.1,0.9l-0.6,0.3l1.4,0.7l-0.6,0.8l1.3-0.2l0.4,1.6l-0.5,1.4l-2.2,1l-2.6,0.1l-7.9-1.8l-3.9-1.5l-3.6-0.3l-8.7,2.9l-7.2,0.8
	l-5.3,2.3l-4.8,1.2l-8,1.6l-1.5-1.3l-2.3-3.5l-16.2,2.6l-0.5-2.4l-2.5,0.8l0-4.4l0.9-0.3l0.2-1.1l-0.9-0.2l-0.9-2.1l-5.7,1.1
	l0.5,3.6l-8.9,1.7l0.1,1l1.2,1.5l-2.1,0.9l-0.1-1.6l-1.6-0.9l0.2-2.4l-0.4-0.3l-2,1.2l-1.6-0.1l0.2-1.2l1-1l-0.2-1.4l-3.6,0.8
	l-4.3-1l0.1-1.6l-7.5,0.4l2-2l-1.3-8.7l5.6-1.4l-0.2-1.9l-0.6-0.1l-0.3-1.6l0.9-0.4l-0.5-3.7l1.3-0.4l-0.7-3.8l0.8-0.3l-0.3-2.8
	l-3.5,0.7l-0.7-0.4l-0.7-1.4l0.8-0.3l-0.7-3.3l0.6-1.1l0.9,0.4l0.1-2l0.8-0.6l0.3-1.7l3.8-0.5l-0.2-2.1l0.3,0.4l1.8-0.2l0.5,1.9
	l-0.6-2.9l4.7-1.3l-0.1-1l0.7-0.1l-0.1-0.6l-2.8,0.7l-0.2-1.1l2.6-0.6l-0.8-3.8l1.7-0.1l0.1,1.8l1.5-0.1l0.2,4.1l0.8,0.2l0.7-1.5
	l0.7,0l-1.3-2.5l1.2-0.2l0.1-0.6l6.5-1l-0.1-1.4l2.9-0.5l0-0.5l1-0.4l0.2-2.1l2.5-0.7l-0.8-3.2l-1-0.1l0.1-4.4L640,358l0-1.6
	l-0.8-0.5l0.6-1.1l-0.1-1.8l1.6-0.5l-1.4-12.9l0.6-0.3l-0.1-0.7l1.5,0l0-0.9l4.2-0.5l0.3,1.2l1.9-0.6l-0.6-2.6l2.2,0l0.5,1.1
	l4.7-2.6l1.1-0.8l-0.3-2.5l2.5-0.5l0.2-2.3l-3.1,0.5l-0.2-1l-0.9,0.1l-2.7-2.6l-1.8,0.2l-1.8-0.6l-0.6-2l-0.9,0.3l-0.4-0.5l-0.2-3.6
	l1.1-0.2l0.9,0.9l2.1-0.3l1.5-2l0.5,0.6l1.5-0.1l0.4,1.7l0.6,0.1l1.5-0.7l0.6,0.5l1.2-0.2l-0.1-0.5l0.9-0.2l0.4,2.4l1.9,0.2l0-2.5
	l0.9-3.2l0.6-0.3L663.6,309.2z"/>
<path class="js-tab-link" data-target="odesa" style="fill:#ECEEF1;stroke:#FFFFFF;stroke-linecap:round;stroke-linejoin:round;" d="M431.8,368l0.7,0.8l2.9-1.1l2.4,2.4
	l2.3-4l2.4,1.3l0.9-1.1l1.1,1.9l-0.2,2l1.5,0.1l1.3,2.4l2.9,0.7l1-1l3,0l3.6,1.2l1.3-0.5l2.1,0.4l0.6,2.5l2.4,0.3v0.8l-1.5,0.4
	l-0.7-0.6l-0.2,0.5l0.6,0.3l-2,0l-0.3,1l-1.8-0.3l-1,1.5l-1.3,0.3l1.5,0.9l1.2,2.7l-1.7,0.9l1.2,2.8l-0.2,1.1l2.1,1.2l1.4,1.9
	l-0.4,0.5l1.7,9.2l5.2-0.7l0.3,1.7l0.4,0.1l0,1l-1.2,0.2l0.5,2.1l-2,0.7l1.8,9.9l2.5-0.4l0.4,1.9l7.7-1.4l0.4,0.8l2.6-0.7l-0.2,2.7
	h0.9l2.5-0.7l-0.6-2.4l4.5-0.9l0.2,1.1l-1.1,1.1l0.3,3.2l-1.9,0.4l0.1,0.8l0.2,0.8l1.2,1l3-0.1l0.3,0.9l2.2-0.4l0.6,2.9l-1.7,0.4
	l0.7,4.7l-0.9,0.2l0.1,1.8l2.1-0.3l0.5,1.9l-1.1,0.3l0.4,2.7l0.2,0.7l0.8-0.1l0.5,1.1l-2.1,1l0.3,1.3l0.9-0.2l0.8,3.5l5-1l-0.5,1.8
	l1.1-0.1l0.7,2.5l8.6-2.2l0.2,3.5l-1.7,0.4l0.6,3l-1.9,0.3l-0.3-1l-0.5,0.1l0,2.8l4.8,0l0.3-1.3l2.3-0.5l0.4,0.7l1.1-0.2l1.9,7.3
	l-0.4,0.2l0.5,2.7L517,465l-0.1,1.8l-1.5-0.3l-2,0.4l0.8,2.5l-5.8,1l-0.4-0.8l-2.6,0.5l0,0.8l-4,1.1l1.2,5l1.1,0.1l1.7,1.3l1.1,3.2
	l1.1-0.1l1.5,1l-0.2,2.7l1.4,2.5l-1.6,2.3l2,2.7l-0.4,3.1l1.2,0.8l-1.1,0.6l0.7,0.4l-0.7,1.6l-9.1,2.3l-10.1,3.9l-2.4-0.5l-2.4,1.1
	l-1.3,2.9l0.5,1.3l0.9,0.5l0.3-0.4l0.8,3.9l-1.2,5.5l-1.8,1.3l-2.1,2.9l-3.7,7.8l-3.4,5.9l-2.5,2.9l-1.6,3.4l-5.9,6.1l-8.9,11.3
	l-28.6,23l-4.3,5l-0.6,2.4l-0.8-0.2l-0.1,0.5l2.3,2.3l0.8-0.6l-0.4-0.7l0.5-0.8l0.9,0.8l0,1l0.5-0.9l2.3-0.3l1.4,0.8l0.4-0.6
	l0.3,0.4l-0.7,1.3l0.6,1.7l-0.9,2.1l0.9,5.8l-1.4,4.9l0.3,3l-1.4,0.1l-0.2,1.1l-1.7,0.3l-0.5-0.5l-0.9-3l1-1.5l-0.5-3.1l-0.8-2.1
	l-3.2-3.9l-2.8-1.9l-4-1.1l-2.9-1.6l-4.2,0.5l-1.4-0.9l-2.1,1.7l-2.8-0.5l-1.1,1l-1.8,0.5l-0.5,1.1l-1.5,0.9l-3.8,1.2L387,604
	l-1.3,0.2l-1,1.5l0.2,1.7l-0.7,0.9l-1.5-0.5l-2.3-2.4l-1.6-0.1l-1.4-1.4l-1.3,0l-0.9,0.9l1.3,1l-0.2,0.9l-2.7,1.4l0.7,1.4l1.6,1
	l0,0.8l-4.1,1.4l-4.4-1.5l-4.3-0.4l-12.2-5.9l-3.5-6l-0.1-3.9l-3.8-1.6l1.8-3.2l3.5-3.2l4.5,1.7l2.2-0.4l-0.3,1.1l0.6,2.4l4.6-1.1
	L359,585l3.2-0.7l-1.6-6.9l-2,0l1.9-4l1.5-1.5l2.8,0.4l0.3-1l-0.6-2.3l2.2,0.5l4.8-1.3l-0.5-2.9l4.8-1.4l-1.5-7.4l0.4-1l-0.3-1.6
	l1.3-0.3l-0.3-0.8l11.5-2.6l1.5-3.6l-3.1-3.9l6.4-8l-6.3-5.2l2.4-5.8l-3.6-10.3l5.4-0.4l-0.1-1.3l-1.9,0l-0.1-0.8l2.4-0.3l0.5-1.1
	l1.5-0.5l5.4-0.2l0.1-2.3l4-1.2l0.2,4.8l0.5,0l0.4,1.2l-2,1.8l1.4,3.8l-2.2,2.6l1.9,0.6l1.5-1.4l-0.1-0.9l1.8-0.9l0.5,0.7l1-0.4
	l-1-2.4l0.8-0.6l-0.5-1.2l1.5-0.7l-0.2-1.8l0.8-0.6l2.8,6.4l-0.5-1.8l3.6-3.9l2.9,2.9l-1.3,1.6l1.3,1.3l3.2,0.6l0.9,4.5l1.2-0.2
	l0.3,0.7l3.9-0.6l-0.7-6l0.8-0.5l0.6,1.2l2.6-0.6l0.5-0.8l-0.9-1.8l0.8-0.4l2,1.3l0.8,3.3l1.8,1.4l-0.8,0.9l4.3,2.6l-0.1-1.6
	l2.9-2.3l2.7,1.5l0.7-0.6l1.3,0.5l2.2-1.2l1.8,1.5l3.9-2.6l-0.3-1.3l-1.3,1.5l-0.5-1.2l-0.6-0.5l-0.5,0.3l-0.5-1l0.1,1.1l-0.9-0.7
	l-0.2,0.9l-1.2-0.3l0.4-1.2l-2.3,0l0.1-0.9l-1.7-0.6l1.6-0.7l-1.4-0.2l-0.5-0.6l0.6-1.4l-0.8,0.1l0-1.2l-0.3,0.8l-0.6-0.3l-0.6,0.9
	h-0.5l0.4-1.5l-1.2,1.3l0.2-0.7l-0.9,0l0-0.8l-1.1-0.1l0.3-0.6l-0.9-0.5l0.3-0.4l-0.7-1.1l-0.7,0l4.2-1l-0.7-0.8l0-1.1l1.4-1.5
	l-0.7-3.8l1.5-3.5l0-5.1l-2.1-4.4l1.4-1l0.9,0.1l-0.5-1.3l-1.2-0.7l-2.3,1.7l-1.2-2.5l0.4-0.3l-0.5-2.6l-2,0.3l-0.3,0.7l-5.1,1
	l-1.8-5.7l-0.5,0.6l-3.5,0.2l-0.5-2.7l-3.7,1l-0.9-1.4l2.2-0.4l0.3-6.2l1.4-0.6l-0.8-4.4l-3.7,0.3l0.1,1.5l-1,0.2l-0.8-3.2l-1,0.2
	l-0.1-1l4.8-1.2l-1.6-9.4l2.6-0.7l-1.5-9.4l-3.8,0.6l-1,0.7l0,1.2l0.5,0.3l-0.8,0.5l0,2l-3,1.4l-0.3-1.3l-1.4,0.4l-0.8-3.7l0.8-0.6
	l-0.4-2.3l-2.9,0.8l-1.1-6.4l-2.5,1.1l-1.4,1.6l-0.3-3.7l-2.9,3l-0.6-2.1l0.9-1l-0.2-0.5l-1.5,1.2l-0.4-0.4l1.6-1.4l0.1-3.2
	l-0.3-0.4l-1.8,0.8l-2.1-3.9l3.9-1.4l0.1-1l1.8-2.3l-0.4-1.3l1.2-1.2l-1.5,0.1l0.8-1.5l0-1.9l0.6-0.2l-1.4-3.1l0.5-1.5l1.9-1.2
	l1.4-4.2l-1.4-0.6l-1.5,1.2l-1.2-1.7l0-0.9l1.3-2.3l2.7-2l0.3-1l-3.4,0.3l0-0.8l-0.3,0.9h-0.5l-1.5-9l-2.7-0.1l0.2,1l-2.2,0
	l-0.4,0.4l0.7,0.3l0.1,1l-1.1-0.8l0.4,1.8l-1.2,0.5l-2.1-0.2l-3.5-2.9l-2.4,1.7l-2.5-3.4l0-1.1l-2.3-1.8l0.7-2.2l-0.2-1l-0.8-0.2
	l0.8-0.6l1.1,1l0.2-1l3.2-1.1l1-5.2l2.2,1l0.6-0.5l0.9,0.2l0.7,2.7l0.8-0.5l-0.4-0.9l1-1.4l-0.2-1.9l0.8-0.8l-0.2-0.7l0.6-0.2
	l3.6,3.4l0.7-0.2l0.6,0.5l-0.8,0.8l2.2-0.1l1.2,0.6l0.6-0.7l1.3,0.1l0.8-0.6l0.5,1.5l-1,0.2l-0.2,0.6l-1.9,0.2l0.9,1.3l2.2-0.7
	l0.4,1.4l0.9,0.5l1.7,0.2l2.1-0.8l0.2,0.6l0.8-0.5l0.2,0.4l0.8-0.4l-0.2-0.7l0.6-0.9l4.2-0.7l0.6,1.3l1.3,0.5l3.9,0.4l0.2-0.5l0.9,0
	l-0.3-0.8l0.8-0.4l0.3-1.2l2.1,0.7l-0.1,1l1.5,0.3l0.2-0.6l-0.7-0.4l0.8-0.2l0.4-3.6l-1.1-2.4l1.5,0.5l2.2-1.3l2.8,0L431.8,368z"/>
<path class="js-tab-link" data-target="mykolaiv" style="fill:#ECEEF1;stroke:#FFFFFF;stroke-linecap:round;stroke-linejoin:round;" d="M533.1,506.7l4.2,0.1l5.7-0.8l2.8,1.7
	l2.9,0.8l-0.6,1.5l-1.3,0.1l-0.9,1.5l-2.9-0.8l-1.8,0.4l-1.3,1.4l-0.2,1.3l0.8,1h-0.4l-4.3-4.6l-4.2-3.5l-2.4-3.5l1.4,2L533.1,506.7
	z M461.2,373.4l3.7-2.6l7,0.6l0.5,1l1.3-1.6l1.6,1.8l3.7-0.1l0.3-0.9l1.7-0.5l-0.4-1.1l4-1l0.2,0.8l3.6-0.3l0.5,1.9l1.2-0.2l0.1-1.7
	l0.7,0.7l1.1-0.1l0.5,1.9l1.7-0.5l0.8,0.6l1.4-0.6l0.4-1.5l3.2-0.2l-0.6-3l4-0.8l0.2,0.8l4.7-0.7l0.1,0.7l1.3,0.2l1.6,2.1l-0.7,1.2
	l1.1,0.9l1.1-0.2l0.9,4.5l4.7-1.5l0.3,1.9l2.3-0.5l0.9-1l0.7,2l1.4-0.3l0-0.7l3.8-0.7l0.7,3.4l-1.1,0.4l-0.4,1.5l0.9-0.1l0.2,1.2
	l0.8-0.5l0.1-0.8l2.3-0.1l-0.4-3.3l0.8-0.1l0.5,0.7l0.9-0.5l0.1-2l2.7-0.5l0.5,1.6l2.5-0.3l0.6,2.2l4.1-0.7l0.7,5l-2.8,0.7l-0.1,0.8
	l1.2,6.8l1.4-1.2l0.4,0.3l3.4-0.7l0.6,4.1l1.4-0.3l0.4,4.5l-1.5,0.1l-0.1,1.7l0.8,1.6l-2.3,0.5l0.5,2.7l7.2-1l-0.1-1l5.2-0.7l0.3,1
	l0.9-0.1l0.8,1.9l1.2-0.1l0.3,2.4l0.8-0.1l0.5,0.8l0.9-1.2l0.3,0.9l3.8-0.8l-0.4-2.6l1-0.2l0-1.7l3.5-0.9l3.6,2.9l3.1-1l0.4,1l0.9,0
	l11.9-2.4l1.3-2.6l-0.6-0.4l-0.2-1.3l1.1-0.2l-0.5-2.7l-1.1,0.1l-0.2-1.2l5.2-0.9l-0.5-1.6l-2.1,0.4l-0.2-3l5.6-0.9l0.7,1.5l5-0.8
	l-0.3-2.9l-0.9-1h2.6l-0.1-0.5l1.5-0.3l0.6,0.5l2.2-1.2l0.7,5.1l-0.6,1.1l0.7,3.3l-0.8,0.3l0.7,1.5l0.7,0.3l3.5-0.6l0.3,2.8
	l-0.9,0.4l0.7,3.8l-1.3,0.4l0.5,3.7L616,404l0.3,1.6l0.6,0.1l0.2,1.9l-5.5,1.4l1.3,8.7l-2,2.1l7.5-0.4l-0.1,1.6l0.1,4.5l2.5-1.5
	l0.2,0.5l0.3,1.9l-1.3,0.7l0.7,7.2l-3.7,0.6l-0.2-5l-0.9,0.3l0,1.5l-1.2,0.4l0.2,4.9l0.3,0.6l4.7-0.7l0.7,4.6l-1.8,0.8l0.1,3.4
	l0.7,0l1.1,0.9l2.4,2.7l-2.7,0.4l-0.1,1.3l0.7,0.6l-0.7,0.5l-0.9-0.2l-0.8-1.4l-1.8,0.3l0,1.6l-1.6,1l0.1,0.7l-1.2-0.2l-0.6-1.3
	l-0.1,0.5h-2.5l-0.5,2.1l-2.3,3.2l1.4,3.9l7.6,4.7l-2.6,4l-4-2.2l-1.1,1l1,3.4l1.5-0.2l0.2,1.3l-3.2,0.4l0.2,1.3l-5,1.1l0.2,1.4
	l0.7,0.3l3.5-0.6l0.3,1.4l1.4-0.2l0.1,0.9l-7.6,1.4l-0.1,0.6l-2.2,0.3l-0.2,0.9l-0.6-0.5l-3.4,0.5l-0.4-3.2l-5.9,0.4l-0.7-1.5
	l-1.5,0.2l-0.1-1l-0.6,0.1l0.5,2.6l-0.7,0.2l0.4,2.1l-3.5,0.4l-0.4-2l-5.5,0.9l0.4,2.9l-1.5,0.1l-6.9-4.4l1.4,2.4l-2.1,1l0.3,2.9
	l-2.7,0.6l-0.3,0.9l-2.8,0.5l-0.5-0.5l-2.7,0.7l0.3,1.3l0.8-0.1l0.5,3.6l-3.8,0.6l0.6,0.9l-2.4,0.1l-0.3,0.8l-4.3-0.4l-1.3,2.1
	l-4.9,2l-1.2-1.1l-2.5-0.3l-3.4-1.5l-3.2-0.1l-1.9,1.2l-1.6,2.6l-1.8-1.5l-1.8-0.6l-3.7-0.2l-0.8,0.7l-2.2-0.2l-0.9,1.8l-3.5-1
	l-3.1,0.1l-3.1-1.4l0.7-1.6l-0.7-0.4l1.1-0.6l-1.2-0.8l0.4-3.1l-2-2.7l1.6-2.3l-1.4-2.5l0.2-2.7l-1.5-1l-1.1,0.1l-1.1-3.2l-1.7-1.3
	l-1.1-0.1l-1.2-5l4-1.1l0-0.8l2.6-0.5l0.4,0.8l5.8-1l-0.8-2.5l2-0.4l1.5,0.3l0.1-1.8l0.6-0.2l-0.5-2.7l0.5-0.2l-1.9-7.3l-1.1,0.2
	l-0.4-0.7l-2.3,0.5l-0.3,1.3l-4.8,0l-0.1-2.8l0.5-0.1l0.3,1l1.9-0.3l-0.6-3l1.7-0.4l-0.2-3.5l-8.6,2.2l-0.7-2.5l-1.1,0.1l0.5-1.8
	l-5,1l-0.8-3.5l-0.9,0.2l-0.3-1.3l2.1-1l-0.5-1.1l-0.8,0.1l-0.2-0.7l-0.4-2.7l1.1-0.3l-0.5-1.9l-2.1,0.3l-0.1-1.8l0.9-0.2l-0.7-4.7
	l1.7-0.4l-0.6-2.9l-2.2,0.4l-0.3-0.9l-3,0.1l-1.2-1l-0.2-0.8l-0.1-0.8l1.9-0.4l-0.3-3.2l1.1-1.1l-0.2-1.1l-4.5,0.9l0.6,2.4l-2.5,0.7
	h-0.9l0.2-2.7l-2.6,0.7l-0.4-0.8l-7.7,1.4l-0.4-1.9l-2.5,0.4l-1.8-9.9l2-0.7l-0.5-2.1l1.2-0.2l0-1l-0.4,0l-0.3-1.7l-5.2,0.7
	l-1.7-9.2l0.5-0.5l-1.4-1.9l-2.1-1.2l0.2-1.1l-1.2-2.8l1.7-0.9l-1.2-2.7l-1.5-0.9l1.3-0.3l1-1.5l1.8,0.3l0.3-1l2,0l-0.6-0.4l0.2-0.5
	l0.7,0.6l1.5-0.4v-0.8l-2.4-0.3L461.2,373.4z"/>
<path class="js-tab-link" data-target="kropyvnytskyi" style="fill:#ECEEF1;stroke:#FFFFFF;stroke-linecap:round;stroke-linejoin:round;" d="M605.1,279.8l1.9,0.9l2.2,0.2l2.4-1.1
	l0.8,0.7l-0.2,1.9l0.6,0.9l1.3,0.1l1,1.4l4.3,0.2l2.4,3.8l-0.5,1.1l0.6,1l0.2,2.8l1.4-0.3l0.9,0.9l2.5-0.2l0-5.6l-0.5-1.7l0.4-0.1
	l1.1,1.3l0.2,1.3l0.5-0.2l1.5,1.4l-0.7,1.8l-1.3,0.5l0.9,0.8l1.4,0.3l-0.2,0.5l1,0.9l-0.3,1.2l0.8,1.9l-1.8,1.9l1.7,3.6l-0.8,0.3
	l0.3,0.6l1.8-0.3l2.8,2.2l0.3-2.5l1,0l0,0.5l0.4-0.5l2.2,0.3l0.4,0.1l-0.2,3.1l3.5-1.3l0.6,1.5l1.4,0.1l-0.3-0.5l1.6-0.2l1-1.5
	l-0.7-0.4l1.9-1.7l0.1-1l1.6-0.4l1.1,1.9l1.7,1.4l2.6-0.5l3.1,0.7l4.4,3l-1,5.1l-0.6,0.3l-0.8,3.2l0,2.5l-1.9-0.2l-0.4-2.4l-0.9,0.2
	l0.1,0.5l-1.2,0.2l-0.6-0.5l-1.5,0.7l-0.6-0.1l-0.4-1.7l-1.5,0.1l-0.5-0.6l-1.5,2l-2.1,0.3l-0.9-0.9l-1.1,0.2l0.2,3.6l0.4,0.5
	l0.9-0.3l0.6,2l1.8,0.6l1.8-0.2l2.7,2.6l0.9-0.1l0.2,1l3.1-0.5l-0.2,2.3l-2.5,0.5l0.3,2.5l-1.1,0.8l-4.7,2.6l-0.5-1.1l-2.2,0
	l0.6,2.6l-1.9,0.6l-0.3-1.2l-4.2,0.5l0,0.9l-1.5,0.1l0,0.7l-0.6,0.3l1.4,12.9l-1.6,0.5l0.1,1.8l-0.6,1.1l0.8,0.5l0,1.6l2.3-0.1
	l-0.1,4.4l1,0.1l0.8,3.2l-2.5,0.7l-0.2,2.1l-1,0.4l0,0.5l-2.9,0.5l0.1,1.4l-6.5,1l-0.1,0.6l-1.2,0.1l1.3,2.5l-0.7,0l-0.7,1.5
	l-0.8-0.2l-0.2-4.1l-1.5,0.1l-0.1-1.8l-1.7,0.1l0.8,3.8l-2.6,0.6l0.2,1.1l2.8-0.7l0.1,0.6l-0.7,0.1l0.1,1l-4.7,1.3l0.6,2.9l-0.5-1.9
	l-1.8,0.2l-0.4-0.4l0.2,2.1l-3.8,0.4l-0.3,1.7l-0.8,0.6l-0.1,2l-0.9-0.4l-0.7-5.1l-2.2,1.2l-0.6-0.5l-1.5,0.4l0.1,0.5h-2.6l0.9,1
	l0.3,2.9l-5,0.9l-0.7-1.5l-5.6,0.9l0.3,3l2.1-0.4l0.5,1.6l-5.2,0.9l0.2,1.2l1.1-0.1l0.5,2.7l-1.1,0.2l0.2,1.3l0.6,0.4l-1.3,2.6
	l-11.9,2.4l-0.9,0l-0.4-1l-3.1,1l-3.6-2.9l-3.5,0.9l0,1.7l-1,0.2l0.4,2.6l-3.8,0.8l-0.3-0.9l-0.9,1.2l-0.5-0.8l-0.8,0.1l-0.3-2.4
	l-1.1,0.1l-0.7-1.9l-0.9,0.1l-0.4-1l-5.2,0.7l0.1,1l-7.2,1l-0.5-2.7l2.3-0.5l-0.8-1.6l0.1-1.7l1.5-0.1l-0.4-4.5l-1.4,0.3l-0.6-4.1
	l-3.4,0.7l-0.4-0.3l-1.4,1.2l-1.2-6.8l0.1-0.8l2.8-0.7l-0.8-5l-4.1,0.7l-0.6-2.2l-2.5,0.3l-0.5-1.6l-2.7,0.5l-0.1,2l-0.9,0.4
	l-0.5-0.7l-0.9,0.1l0.4,3.3l-2.3,0.1l-0.1,0.8l-0.8,0.5l-0.2-1.2l-0.9,0.1l0.4-1.5l1.1-0.4l-0.7-3.4l-3.8,0.7l0,0.7l-1.4,0.3l-0.7-2
	l-0.9,1l-2.3,0.5l-0.3-1.9l-4.7,1.5l-0.9-4.5l-1.1,0.2l-1.1-0.9l0.7-1.2l-1.6-2.1l-1.3-0.2l-0.1-0.8l-4.7,0.7l-0.2-0.8l-4,0.8l0.6,3
	l-3.2,0.2l-0.4,1.5l-1.5,0.6l-0.7-0.6l-1.7,0.5l-0.5-1.9l-1.1,0.1l-0.7-0.7l0,1.7l-1.2,0.2l-0.5-1.9l-3.6,0.3l-0.2-0.8l-4,1l0.4,1.1
	l-1.7,0.5l-0.3,0.9l-3.7,0l-1.6-1.8l-1.3,1.6l-0.5-1l-7-0.6l-3.7,2.6l-2.1-0.4l-1.3,0.5l-3.6-1.2l-3,0l-1,0.9l-2.9-0.7l-1.3-2.4
	l-1.5-0.1l0.2-2l-1.1-1.9l-0.9,1.1l-2.4-1.3l-2.3,4l-2.4-2.4l-2.9,1.1l-0.7-0.8l-0.5-1.2l0.6-1.6l-0.6-1.2l0.1-1.3l-1.3-1.5l0-0.7
	l0.7,0.2l0.7-0.7l0.5-2.1l1.1-0.2l0.5-1.4l-1.4-1.8l4.5-3.9l-0.3-0.8l4.8-2l1-1.9l4.5-0.8l2.5,2.4l1.2,0.1l1.9-2l0.3-1.8l0.7-0.6
	l3.2,2l0.6-0.1l1.5-0.5l-0.1-1.4l2.8-0.6l1.1-0.9l3.5-0.5l0.9-3.8l2.8-0.7l1.5,1.6l4.7-0.3l0.1-2l-0.5-0.4l0.6-0.8l-2.3-1.9l1.4-2.2
	l2.3-0.8l0.7-2.8l-1.9-2l1.9,0.1l0.8-1.9l0.6,0.2l0.1-1l3.3-1.4l2.1,0.7l1.1-0.1l0.2-0.7l2.8,1l0.5-1.1l1.2,1.5l2.8,0.5l0.6-0.2
	l0.1-1.1l2.8,0.2l-0.1-1l0.4,0l0.7,0.7l1.8-0.3l0.4,0.6l1.2-0.3l1.3,0.8l0.5-0.2l0.8,1.6l1,0.4l0.3-0.6l1.2,0.9l0.5-1.1l0.4,0.3
	l0.6-0.8l0.6,0.4l1.1-1.7l1.9,0.4l0.6-1.1l1.9,0.3l0.6,1.5l2.6-0.8l1.1,2.6l1.4,0l0.2-1l1.4,0.9l0.8-1.6l-0.1,1.1l1.1-0.9v-0.8
	l0.9,0.6l0.3-0.5l-0.6-0.7l1.6-1.4l4.2-1.9l0-1.2l1.8-1.1l-0.5-0.5l0.9-1.5l-0.4-0.6l1.2-1l-0.7-1.5l0.5-0.5l-0.6-0.4l1-1l0.7,0.5
	l-0.9,1.7l2.3-1.6l3.7,0.7l0.8-2.9l2.6,0.4l2.7-1.1l0.5-0.8l1.1,1.2l1,0.1l4.1,2.3l0,2.1l1.7-2l3.3-0.7l1.2-1.5l1.3,1.2l2.3,0
	l-0.2,1.1l0.6,0.2l0.4-0.7l2.2-0.1l0.5-0.4l0.1-2.1l-1.2-0.9l0.1-1.1l2.4-0.7l0.5-2.1l1.8,1l0.8-6.2l1.5-0.1l0.1-1.6l1.2,0l0.1-0.5
	l0.8,1l2.9-0.6l0.2,0.9l0.7-0.2l0.5,1.8l-0.3,1.1l0.7,0.4l2.3,0.3l1.2-1.9l0.5,1.1l1.2,0.4l-0.4,0.4l0.4,1.9l1.4-0.6l1.3,6.4
	l1.5-0.1l-0.5-2.3l1.9,0.7l0.4,0.7l1.3-1.1l0.1,0.8l4-0.3l-0.7-1.4l0.5-0.9l1.1,0.2l0.2,0.6l1.8-0.2l0.2,1l6.2-1.3l0-0.8l1.6-0.2
	L606,301l-2.4-1l0.7-1.4l-0.7-3.3l-0.8-0.7l4.3-1.9l0-1.9l-6.6-2.2l-1-1.5l0.9-2.1l4.1-3.8L605.1,279.8z"/>
<path class="js-tab-link" data-target="rivne" style="fill:#ECEEF1;stroke:#FFFFFF;stroke-linecap:round;stroke-linejoin:round;" d="M209.1,42.7l5.9,0.9l2.9-1.5l1.3-0.1
	l2,0.6l0.2,0.9l2.4,0.4l2.6,3.1l0.9-0.2l0.1,1.2l1.2-0.2l0.6,0.5l1.8-0.9l3.9,0.3l0.9,0.7l3.4-0.2l1.6-1.1l0.2,3.7l1.4-0.2l1.2,1.8
	l1.4,0.4l0.2,1.2l4,0.1l0.7-1.4l1.9-0.6l0.2-0.8l1.2,0.5l4.3-0.1l1,1.1l2.3,0.8l0.5,0.7l-0.3,1.6l2,1l0.4,0.9l3-0.8l1.8,1.5l2.1,0.1
	l1.7,1.1l2.6-3l11.8-0.5l0.4,9.9l2.3-0.2l1.3,1.1l-1.6,2.9l0,1.7l5.5-0.2l1.1-1.1l1.7,0.9l1.9,0.2l0.1-0.7l1.4-0.7l0.7,1.2l1-0.7
	l0.3,0.5l-0.6,1.3l1.4,0.8l1.3-1.8l-0.8,0l-0.2-2l0.5-0.6l1.1,1.2l0.7-1.2l4,2.8l1.4-1l2,0.4l0.6,0.7l1.7,0l0.3,1.3l-0.5,2.3
	l-2.3,2.2l-0.1,1.8l-0.7,0.3l0.3,1.7l-1.1-0.4l-1.5,1.8l-2.5,0.4l0.1,4.4h1.1l0.8,2.5l-1.7,0l-0.7-1.2l-2.3-1.5l0.2-1.8l-1.6,0
	l-0.7,6.8l1.5,0.7l0,2.3l-1.5,2.2l-3,0.6l1.3,4.1l-0.8,0.8l1.3,0.7l0.1,0.9l-3.2,3.1l-2.4,4.2l0.2,0.8l-0.8,0.4l0.1,4l-2.4,1.6
	l-0.3,1.8l0.6,1.4l-2.6,0.1l-0.3,0.8l-3,0.2l0.1,2l-1.5,0.7l2.2,4.9l0,0.8l-1,0.4l-0.2,1.2l2.2,1.9l-0.5,1l0.4,0.4l-0.4,1.1l0.3,1.1
	l-1,1.6l0.5,1l-0.5,2.6l0.5,0.5l0,2l1.6,0.7l-0.4,1.5l0.6,2.1l-1.8,4.1l-1.9,0.4l-0.5,0.7l0.6,0.5l-0.1,1.5l-1.2,1.3l2.2,1.6
	l-0.7,1.6l0.8,1.7l-2,0.4l-3.6,0.2l0-2.4l-0.8-0.6l-2.4,1.5l-0.1,2.1l-2.9-0.6l-0.5,1.8l-1.2,0.5l-0.4,0.9l-2.8-0.7l-1.8-1.2
	l-2.6,3.2l-1.1-1.2l-0.5,0.2l-0.4,1.5l-1.9,0.1l-0.5,1.1l-0.5,0l-0.2,1.7l1.5-0.5l-0.2,0.7l-2.5,0.6l0.2-1.6l-0.6,0.2l-0.4,1.7
	l0.5,1.2l-1.1-0.2l-0.3,2.6l-1-0.3l-0.7,2.7l-1.2-0.2l-0.7,2.4l-2.6-0.3l-0.8,2.5l-1.9,0.8l0.3,1.1l-0.8,0l0,0.8l-1-0.2l-0.2,1.1
	l-0.9,0.7l0.4,0.7l-1.2,0.1l0.1,1.2l0.6,0.3l-6.1-0.1l-0.9,1.1l-1.1,0.1l-2.1,1.8l-1.1,1.3l-0.1,1.6l-0.9,1.4l-3.2,0.6l-0.6-0.6
	l-2.3-1.5l0.7-1.6l-0.4-1.3l1.8,0.1l0.3-3.2l-1.6,0.2l-1.7,3.1l-5.7-2.4l-2.9,2.3l-0.4-0.8l-1.8-0.6l-0.8-1l-1.6,0l-3,3.3l-1.1,2.5
	l-2,0.8l-1.4-0.3l-1.7,0.6l-2.1-0.7l-0.3,1.2l-2-0.4l-3.2,2.3l-2.9-2l-1.2,2.2l-3-0.5l0.1-0.7l-1.5-0.2l-1.6,1.3l0.1,2l0.4,0.8
	l1.6,0.3l0.2,1l-2,0.7l0.2,1.1l-1,0.9l-0.4,1.6l-3.8,0.6L182,214l-2.1-1.6l-6.5-9.3l0.3-3.3l0.8-1.1l-2.6-1.9l-0.1-1.5l0.7-0.5
	l-0.3-0.9l0.8-1.2h0.8l0.1-2.9l-2.2-1l-2.4,0.7l-0.7-0.4l-0.6-1.1l0.5-1l1,0l0-0.7l2.2-1l-1-1.3l-0.3-2.1l1.4-0.9l0.6,1.7l1-0.2
	l0.7-1.5l-0.8-1.4l-1.4,0l-0.1-2l-0.6-1l-1.1,0.3l0.7-2.2l-3.6-2l3.6,0.6l0.5-3.2l-0.4-1l-1.7-1.3l0.1-1.7l3.7-0.1l0.3,0.7l2.4,0.3
	l0.6,0.6l2.7-0.3l0.8-1.9l0.8-0.6l-0.5-1.5l-1.2,0.5l0.5-1.8l-1-3l1.3,0l1,1.2l1.4,0.1l0.2,0.5l2.6-0.2l-1.8-1.9l-0.2-1l-0.6,0.1
	l0.6-0.9l0.7,0.1l0.8-1.3l-0.5-1.8l1.2,1.6l3.5,0.7l-0.2-0.7l2.9-1.3l4.2-1.5l0.7,0.4l-0.2-1.7l2,0.1l3.4-1l0,1.8l1.8,1.9l-0.8,1
	l1.8,0.2l1.9-0.6l1.1,0.7l1.6,3.7l0.7,0.2l0.5-0.6l-1.1-1.4l2.6-3.8l0.4-1.7l-0.4-3l0.8-2.1l0-2.7l1.2-2.9l6.3,1l1-1.9l-0.1-0.8
	l-1.4-1.3l-1.2-0.2l0.6-6.2l-2.2-1.8l1.9-0.7l4.7-0.4l0.2-2.6l1.2-0.4l-1-4.3l-4-2.6l-2.3,0.3l-2.1-0.6l0.4-1.7l-0.7-1.3l1.3-0.6
	l1.9,0.3l0-1.5l0.8,0.1l0.2,0.7l2.4-1l0-1l1,0l-0.4-2.5l-3.5-3.9l-3.1-0.7l-0.1-1.5l-0.7-0.9l0.4-1.1l-1.4-1.2l-1-0.1l-0.4-1.9
	l-2-0.9L209,96l0.2-2.5l-0.4-0.4l1.2-0.5l-0.7-1.3l-1.5,1.1l-0.9-0.3l-0.5,0.4l-1.3-0.7l0.2-1.6l-1.8,0l-0.7,1.1l0.6,0.8l-0.9-0.3
	l-0.6,0.6l0.1-1.4l-0.5,0l-0.4-1.2l-2.5-1.8l0-5.1l-1.2,0.1l0.2-1.1l-1.3,0l0.3-1.1l-2.9,0.3l-0.2-0.9l2.5-0.9l0-0.8l-1.5-0.7
	l0.6-1.5l1-0.5l0.4-2l-1.2-2l-1.1,0.1l-0.5-1.8l-1.2,0.7v-1.4l2.1-0.2l-0.2,0.6l0.6,0.1l0.6-1.8l1,0.3l2-3.5l0.6-2.6l0.9-0.8l-0.1-1
	l1.1-2.2l-0.6-1.5l-0.7,0.6l-0.6-0.3l0.6-1.4l-1.6-1.8l0.4-1.4l0.8-0.5l-0.8-2.1l1.3-2.3l1.7-1l0.7-1.1l-2-0.7l-2.2,0.1l-1.9-1.3
	l-0.3-0.9l6.6,0.8l2.9-0.7l1.2,0.2l-0.7-2.3l0.7-0.2l2.5,0.6l-0.2,1.3L209.1,42.7z"/>
<path class="js-tab-link" data-target="сhernihiv" style="fill:#ECEEF1;stroke:#FFFFFF;stroke-linecap:round;stroke-linejoin:round;" d="M624.4,1.5l0.6-0.2l5.4,2.3l0.8-0.4
	l1.1,0.3l2-1.9l1,0.1l1.3,1.1l-0.2,0.8l0.9,0.4l-0.8,2.1l-1.3,0.5l0.6,1.5L635,8.6l0.5,0.6l-0.7,0.8l0.1,1.2l-0.6,0.9l-0.7,0.1
	l0.5,1.4l-1,1.9l-1.9,0.7l0.9,1.1l-1.1,1.1l0.2,1.2l1.2,1.8l-0.6,0.2l-0.3,1.6l1.1,0.2l-0.8-0.4l0.8-0.5l4.1,1.9l-0.1,0.9l1.4,0.5
	l0.5,1.2l-0.3,0.8l1.1-0.3l1.9,0.6l0.5-0.5l0,4.5l-1.8,0l-2.3,1l-1.3-2.1l-0.8,0l-1.9,1.8l-2.2-0.1l-0.7,1.5l1.7,0.7l2.2,2.7
	l-1.3,4.4l-1.4,0l-0.8-0.7l-1,0.3l-0.3,1.1l-1.7-0.4l-0.6,0.9l-1.5,0.1l0.1,0.7l-2.5,0.2l0,1.8l-3,1.9l0.3,2.7l0.6,0.3l0.5,1.3
	l-1.3,0.6l-1.2,2.6l-0.7-0.1l-0.5,0.7l0.6,0.2l0.7,2.4l1.8,2l0.5,5.3l-0.8,1.8l1.3,0.4l0.2,2.9l2,2.3l1.8,0.3l-0.9,0.9l-2.6-0.1
	l-0.2,0.7l0.7,1.8l0.9,0.5l0.4,2.8l-2.4,1.3l-0.7-0.3l-0.4,1.1l0.2,1.4l-0.8,0.9l-0.4,2.7l1.1,1l-0.9,1.2l1,0.5l-0.2,1.5l-0.8,0
	l-0.3-0.8l-1.3-0.1l0.4,0.8l0.8,0.1l0.1,1.2l-1.4,0.2l-1.4-0.3l0-1l-1.3-0.7l1.1-1.2l-0.5-0.4l-1.6,1.2l1.1,2.4l-0.1,2l1.6,0l0.8,2
	l-0.7,1.5l-1.2,0.4l0.7,0.6l-1,0.2l1.8,0.4l-0.8,2.1l0.5,1.1l-2.1,2.3l0.5,2l-0.8,0.5l-2.1,0.1l-0.8,0.9l0.5,0.4l-1.3,1.9l1.7,1.6
	l-2.7,4.6l0.6,0.6l0.2-0.4l4.4,0.8l0.1,0.8l1.8,0.3l-0.6,1.7l1.3,1.1l-1.4,1l-0.9,2.9l2,0.8l0-0.8l2.2-1.3l1.2,4.4l0.6,0.3l0.7-0.5
	l2.2-0.1l-0.2,3.3l0.6,2.7l-1.4,0l-0.7,0.7l0.5,1.7l-0.6,1.3l0.8,0.4l-1.6,1.9l0.7,2.4l-0.8,0.7l2,3.9h1l0.4,0.9l1-0.1l0.4,0.5
	l-1.4,0.9l-4.2,1l0.8,1.5l-0.2,3.3l-1.8,0.9l0.3,0.8l-1,3.1l1,0.6l-1.2,0.3l-0.2,1.1l-2.7,3.4l1,1.8l-1.4,1.5l-1.1,0.1l-0.6,2.6
	l-2.3-0.1l0.3,1.1l-0.6,0.2l-0.3,1.4l-0.8-0.1l-0.8,0.7l0.4,0.6l-1.6,0.5l0.2,1.3l-4.5,3.1l-2.6,0.3l-0.2,0.8l0.8,0.5l-0.5,0.7
	l-1.2-0.6l-0.3,0.4l-0.8-0.9l-0.4,0.6l-0.2-0.5h-3.8l0.1-1.1l-2.2,0.3l-0.2,1l-3.9-0.3l-2.1,1.3l-2.2-2.2l0.3-2.6l-2.7,0.1l-2.4-1.1
	l-0.4,0.4l-1.3-0.6l-0.2-1.2l-2.4,0.2l-0.4,0.7l0.4,1.1l-1.6,0.7l-0.2,1.4l-2.1,0.6l0.6,1l-0.6,1.3l-0.9-0.7l-0.6,0.5l-0.6-0.7
	L565,184l-0.1-0.6l1-1.3l-0.2-0.7l-2.1-0.4l-1.9,0.6l-0.4-1.6l1.2-1.9l-2.8,1.3l-1.4-5.1l-3.2-1.1l0.6-1l-0.8-0.4l1.1,0.1l0.1-1
	l0.8-0.1l0.4,0.9l2-0.6l1-1.5l-0.6-1l0.6-1.6l-1.6-0.1l-3.7,0.1l-0.9-0.3l-1.7-4.4l-2.2-1.1l-1.4-2.1l-2.7,0.7l0,1.3l-1.4,0.3
	l0.3,2.1l-0.6,0.3l0.1,1.5l-5.3-0.3l-1.1,1.1l-1.1-0.4l0,1.7l-0.9,1l-3.4-0.4l-0.9,0.8l-1.9-0.9l-0.3,0.7l-1.4,0l-3,1.9l-1.2-0.1
	l-0.2-1.3l-2.4-1.5l-2.3,2.9l-0.6-2.3l-3.5-1.3l0-1.5l-0.5,0l-0.2-1l-3.2-0.6l0-1.2l-1.1,0l0-1.8l2.8,0.2l0.5-0.5l-0.4-0.6l0.4-0.6
	l-1.5-1.4l1.2-2.4l-0.2-2.1l-0.6-0.2l0-0.7l-0.9,0.3l-0.1-2l-1.3-0.1l0-0.8l-2.4-1.5l0.1-2.1l-2.7-0.4l-0.6,1.4l-6.1,0.1l-0.4,0.6
	l-2.8-0.8l-0.6-0.6l-0.8,0.5l-0.2,1.9l-1.2,0.2l-0.9-0.1l-0.2-1l0.7,0.1l0-0.9l1.6-1.3l-2.2,1.7l-3.3-1.6l-2.1,0.5l-0.1-1.1l0.7-1.4
	l-0.9-1.4l0.8-0.3l0.9,0.7l0.2-1.2l0.8-0.7l-0.7-3.9l-1.6-0.9l-0.3-0.8l-2.6-0.7l-1.3-3.9l-1-1.4l0-3.2l-2.2-0.9l-0.2-1.4l-5.6,0.3
	l-0.4-2.7l0.8-1.9l-1.3-1.9l1.6-0.7l0.2-0.7l-1.3-2l-0.2-3.1l0.6-0.8l1.5,0.2l0.7-0.5l-1.3-0.7l0.8-1.5l-1.5-2l0.5-0.5l2,0.2
	l0.5-0.4l-0.1-1.3l-1-1.1l4.2-2.1l0.5-1.8l-1.1,0.5l0.5-0.6l-1-0.6l1.7-1.6l1.5-0.6l-0.8-1.9l1-1.7l-2-4.2l-1.3,0.3l-0.5-0.5l-0.2-2
	l2.2-0.8l0.1-0.6l-1.8-1l-0.4-2.2l-0.8-0.8l0.8-3.2l-0.7-0.4l-1.3,0.9l-1-2l0-0.8l1.4-0.7l-1.5-0.4l-1-1.2l0.6-0.7l1.5,0.4l0.5-0.5
	l-1.2-0.8l0.1-0.6l-1.5-0.4l0.1-1l1.3-1.7l-1-1.1l0.7-0.5l1.1,1.1l1.1,0.1l0.3-1.4l-0.7-2.6l3.4-0.7l0.3-2l1.1-2.2l-0.4-0.4
	l-1.4,0.4l-0.2-0.7l1-0.6l1.4,0.1l-0.1-0.8l0.9-1.2l-1-2.6l2.4-1.1l0.6-2.7l1.8-1.6l0.5-1.7l3.1,0.4l1.3-2.1l-0.8-2.5l0.7-0.6
	l1.2,0.7l0.5-0.6l-0.8,0l0-0.6l1.4-0.9l0.5,0.4l0.9-0.2l-0.2-1.3l1.4-0.3l-1-0.8l0.5-0.8l0.8,1.1l0.9-0.2l0-0.9l-1-0.4l0.4-0.6
	l-0.4-0.6l0.9-0.2l-0.4-0.9l0.7,0.1l-0.7-0.6l0.9-0.5l-0.8-1.2l0.5-0.2l0.3,0.9l0.6,0l-0.8-2.1l1-0.1l-0.1-1.3l0.7-0.1l-0.1,0.7
	l1.4,0.5l4.5-1.2l1.8,0.1l2.4-1.1l1.1,2.1l3,0.7l-0.1,0.9l0.8,1l1.6,0.8l2.4-0.9l1.2-2.6l-0.4-0.5l0.7-1.7l3.4-1.4l-0.4-1.1l1.5-0.8
	l2.6,0l1,2l1.2,0.2l1.7-0.8l4.8,1l3.8,0l2.3,0.7l0.4,1l3.3-1.6l2,1.3l2.8-1.1l2,0.7l3.2,2.3l-0.2,0.9l-0.8,0.9l-1.2,0.3l0.5,0.6
	l-0.7,0.3l3.1-0.8l6.9,1.7l0.2-1l1.9,0.1l0.8-2.4l2.7-0.1l1.6-1.2l1.6-0.3l2.1-1.4l0.2-1.5l1.3-0.2l0.2-1l2.6-1.2l-0.2-0.9l-2.1,0.4
	l1.2-3.5l-1.3-2.8l1.2-2l2,0.2l0.9-0.6l-0.6-1l0.4-1.7h-1.2l-1-3.3l0.1-1.4l0.6-0.7l2.1-0.1l1.9,1.3l1.4-0.4l1.4,1.2l1.2-1.3
	l2.3,0.2l1.7,2.3l1.6-0.4l4.3,3.2l1,1.9l3.1-1.6l0.5,0.8l1.8-0.6l1,0.4l1.2-1.7l2.6,0.4l0.2,2.3l1.2,0.3l3.1-2.5l1.8,0l0.5-1.4
	l2.2-1.7l1-1.9l0.6,0.3l0.1,0.8l-0.6,0.3l0.4,0.7l2.6-2.1l1.1-1.7l1.9,0.4l0.1-2.9l1-0.1L624,1L624.4,1.5z"/>
<path class="js-tab-link active" data-target="poltava" style="fill:#ECEEF1;stroke:#FFFFFF;stroke-linecap:round;stroke-linejoin:round;" d="M617.1,168.6l1.9,0.3l0.8,1l3.1-1.6
	l1,1.3l1.7,0.4l0.9-0.5l0.2-2.6l2-1.2l1.3,1.6l0.9,0.3l0.2,1l3.1,0.1l0.2,2l2-0.1l0.5,1.4l0.8,0.6l0-0.8l1.6-0.6l0.8,0.3l0.3,1
	l1-1.7l1.3,1.5l0.8-0.8l1.9-0.5l8.1,2.3l1.3,1l1.1-0.1l1.9-1.6l2.9-1.2l0.3-0.7l-0.5-0.6l-1.5-0.2l-0.2-0.7l3.5-1.5h1l1.4,1.5
	l2.1-2.8l4.2,3.2l-0.2,1l2.1-1.4l2.3,0.9l-1,1.4l0.8,0.7l1.1-0.9l0.1-1.6l3-1.4l1.6,0.3l1-1l1.6,1.4l0.6,7.4l7.2,5.9l-0.5,0.8
	l1.8,1.8l-0.6,1.7l0.7,0.7l2.1,1.8l3.5,0.5l0.4,3.3l0.6,0.4l0.1-0.7l1.1,0.2l1.2,1.7l-0.7,1.7l-2.1,2.3l0.8,0.9l-0.4,1.3l0.9,1.9
	l1.5,1.1l0.9-0.6l2.3,1.4l1.2-0.6l0.5,0.6l0.8-1l0.5,0.3l-0.2,0.6l1.2,0.1l0-3.3l1.8-1.1l0.9,0.4l-0.4,1l3.2-0.8l0.2-0.5l1.9,0.1
	l0.6-0.6l5.2,1l-0.6,1.8l0.2,2.5l1.6,2.2l-6,7.9l1.5,4.3l0.5,0.5l1.2-0.3l1.5,3l1.6,1.3l1-0.2l1.2,1.4l1.3-1.2l1.2,0l0.8,2.3
	l3.1,0.5l1.1-0.5l4.1,2.4l0.3,2.2l-1.1,0.4l0.5,1.3l-0.1,3.1l1,1.1l1.5,0.2l0.2,1.3l-0.8,0.5l0.7,0.4l-0.7,1.3l1.4,0.8l3.6,0.4
	l1.2,1.4l4.5-0.7l-0.5,1.2l1.1,1.5l2.3,5.9l-4.2,0.9l-0.4,0.6l1.3,0.3l0.1,2.1l3.1,1.1l-0.2,2.6l-8.2-1.6l-1.1,4l2.6,0.9l-0.7,3.7
	l1.5,0.6l-5.3,6.7l0.5,2.1l-0.7,1.5l-2.3-1.4l0.6-0.5l-0.4-0.3l-4.7,0.5l-1.6-0.6l-2.2,0.1l-0.9-1.4l-2.1-1.1l-0.7,0.5l-2.4,6.5
	l2.1,8.5l-0.4,0.2l0-0.9l-3.3-3l-1.2,0.9l-0.7,2.2l-1.1,0.7l-1.8-1l0.2-0.6l1.2,0.1l0.5-0.8l-2-0.6l-0.2-0.5l-2.1,0.3l0.3,0.6
	l-0.8,0.6l-1.5-0.7l-1.1,0.6l0,2.5l-1.4-0.2l-1.9,1.2l-0.9-0.2l-0.9,1.2l-0.8,0.1l-0.7-0.8l-1.3,0.3l-1,1.1l-1.1-0.1l0.1,1.6
	l-0.9-0.3l-0.6,1.2l0.4,1.6l-1.2,0.6l-2-1.3l-1.1,0.8l-1.2-0.9l-0.7,0.6l-3.4-2.5l0.8,3.4l-2.9,1.8l-0.6,1.5l-1.5,1.3l1.5,1.4
	l-2.2,3.5l-0.6,3.9l0.4,1l1.5,1.1l0,1.3l0.7,0.1l0,0.9l-1.3,0.1l-0.1,0.9l1.3,0.8l-2.9,0.2l0.2,3l1.5-0.6l0.8,0.6l-1.6,1.6l0.3,1.8
	l-1.2,2l0.1-1.3l-0.5-0.4l-2,0l-1.2-1.1l-1.7-0.5l-1.4-1.4l-1.1,0.3l-1.4-0.6l-0.6-0.9l0.3-1.9l-0.4-0.7l-2.9-0.4l-1.8-1.4l-0.9-1.9
	l-2,0l-3-1.2l-2.1-2l-4.4-3l-3.1-0.7l-2.6,0.5l-1.7-1.4l-1.1-1.9l-1.6,0.4l-0.1,1l-1.9,1.7l0.7,0.4l-1,1.5l-1.6,0.2l0.3,0.5
	l-1.4-0.1l-0.6-1.5l-3.5,1.3l0.2-3.1l-0.4-0.1l-2.2-0.3l-0.4,0.5l0-0.5l-1,0l-0.3,2.5l-2.8-2.2l-1.8,0.3l-0.3-0.6l0.8-0.3l-1.7-3.6
	l1.8-1.9l-0.9-1.9l0.3-1.2l-1-0.9l0.2-0.5l-1.4-0.3l-0.9-0.8l1.3-0.5l0.7-1.8l-1.5-1.4l-0.5,0.2l-0.2-1.3l-1.1-1.3l-0.4,0.1l0.5,1.7
	l0,5.6l-2.5,0.2l-0.9-0.9l-1.4,0.3L622,291l-0.6-1l0.5-1.1l-2.4-3.8l-4.3-0.2l-1-1.4l-1.3-0.1l-0.6-0.9l0.2-1.9l-0.8-0.7l-2.4,1.1
	l-2.2-0.2l-1.9-0.9l-2.3-0.2l-3,1.5l-1-1.6l-1.5-0.6l-3.5,0.8l-1.4-1.1l-1,0.7l-1.1-2.1l-1.5-0.6l-0.9-1.2l-2.3-0.7l-2.2-1.9
	l0.7-1.1l-0.8,0l-0.1-0.5l0.9-0.9l1.7-4.3l1.8,2.2l3.1,0.4l3.3,1.9l4.8,0.1l-0.1-1.8l-1.3-1l-1.3,0.1l-0.8-1.3l0.2-2.1l-1.6-1.1
	l1.2-1l0.1-4.3l1.9-0.1l2.2-2.2l-0.1-4l0.4-0.4l-3.3-2.4l0.9-0.9l-0.8-2.8l0.6-1.1l-1.4-0.3l-1.2-1.6l-5-1.8l-0.1-4.3l-1-1.6
	l-2.2-0.3l-0.7-2.7l-3,0.8l-0.8-2.3l-3.5-4.5l0.9-0.9l0.6,0.8l1.8-1.1l-1.1-1.3l0.3-1.9l0.6-0.2l-0.7-0.6l0.5-2.2l-2.6-1.7l-0.8-4.6
	l-1.1-0.2l0.2-1.1l-1-0.8L575,211l-0.6,0.1l-3.1-3.9l0.9-1.3l-1.1-1.2l2.9-0.7l-0.3-2.1l-6.9-2L566,198l-2.8-2.2l0.7-1l-0.5-0.4
	l-1.5-1.7l0.9-2.9l-0.3-0.4l2.4-1.6l-0.6-1l1.2-1.7l-0.4-1l4.1-0.9l0.6,0.7l0.6-0.5l0.9,0.7l0.6-1.3l-0.6-1l2.1-0.6l0.2-1.4l1.6-0.7
	l-0.4-1.1l0.4-0.7l2.4-0.2l0.2,1.2l1.3,0.6l0.4-0.4l2.4,1.1l2.7-0.1l-0.3,2.6l2.2,2.2l2.1-1.3l3.9,0.3l0.2-1l2.2-0.3l-0.1,1.1h3.8
	l0.2,0.5l0.4-0.6l0.8,0.9l0.3-0.4l1.2,0.6l0.5-0.7l-0.8-0.5l0.2-0.8l2.6-0.3l4.5-3.1l-0.2-1.3l1.6-0.5l-0.4-0.6l0.8-0.7l0.8,0.1
	l0.3-1.4l0.6-0.2l-0.3-1.1l2.3,0.1l0.6-2.6l1.1-0.1L617.1,168.6z"/>
<path class="js-tab-link" data-target="zhytomyr" style="fill:#ECEEF1;stroke:#FFFFFF;stroke-linecap:round;stroke-linejoin:round;" d="M346,70.2l1.4-0.2l3.5,4.4l0.6,3.2
	l2.1-1.1l4.4-3.8l2.7,0.2l0.4,0.7l1.7,0.2l0,0.9l5.7,0.2l-1.5,0.7l0.2,0.4l1.1-0.4l-0.6,0.7l2.3,9.5l1,0.4l2-2.1l0,2.8l0.9,1.8l1-1
	l0.2-2l0.4-0.2l-0.3-2l-0.8-1.1l3.5-6.6l1.7-0.3l3.1-2.2l3.4-0.1l0.4,1.5l1.3-0.1l1.7-1.3l4.4-5.7l3.3-0.1l0.5,0.5l-0.7,1.7l1.1,0.5
	l-0.4,1l1.6,1.3l0.3,2.2l2.4,0.6l0.4,3.3l-0.7,3.1l1.2,1.9v1.2l2,0.6l1.1,4.6l-0.2,2.2l2.2-0.6l0,0.8l2-0.3l0.2,5l-2.4,4.5l-1.4,0.2
	l0-0.5l-3.5,1.1l1.5,7.6l1.3,4.7l0.5,0.1l0.3-2.7l0.9-0.2l3.6,2.5l2.6,3.8l2.8,2.5l-2.6,4l0.1,2.8l0.6,0.6l-2-0.8l-1.6,0.1l-0.1,3.2
	l1.4,0.5l1.4,1.4l1.2,3l1.8,1.4l0.5,1l-1.2,2.8l1.6,1.1l0.8-0.3l0.4,1.3l-2.3-0.4l-0.7,0.4l0.2,1.3l1.2,0.7l-0.7,0.5l0.2,0.9
	l-2.2,0.3l2,0.5l1.4-0.8l2.3,0.4l0.1,1.8l1.4,1.9l-1.2,2.7l-2.5,1.8l0,1.2l-1.3,0.8l-0.9-0.5l-0.5,0.3l-0.3,0.4l0.5,0.7l-1,1
	l0.2,0.5l-0.9-0.2l0.2,0.5l-0.7,0.3l2.7,2.4l0.6,1.7l-0.2,2.1l-0.8,1.2l-1.5-0.1l0.4,1l-0.4,1.1l2.5,1.3l0.2,2.5l-1.5,1.1l-1.6-1
	l-0.4,1.6l2.6,0.3l0.2,0.9l-1.7,2.1l-1.5-0.1l0.9,1.4l1.1-0.3l0.6-0.9l3.9-0.7l0.9,0.8l0.9,1.4l0.1,1.9l1.1,0.3l0.4,0.8l1.1-0.5
	l-1.2,2.6l0.6,1l2.6,0.7l1.2-0.3l-0.9,2.4l0.7,1.5l-1.3,0.5l2,3.9l-0.8,0.3l-0.6,2l-1.7,1.9l2.7,2.5l-1.9,2.3l-0.1,0.7l1,0.1
	l-1.5,1.1l2.6,3.1l-0.1,2.5l-1,0.8l1.2,2.4l-0.4,0.7l1.6,1.8l-0.3,0.5l1.2,2.2l-0.5,1.1l-3.1,1.7l1.3,0.7l-2.4,2.3l0.7,0.4l-0.8,0.8
	l-0.6-0.4l-1.2,1.5l-1-0.4l-0.3,1l-2.8,0.7l-0.4,1.4l-1.8-1.3l-0.9,0.7l0.3,0.8l-0.8,1.2l-0.7-1l-1.1,1l-0.7-0.2l1.4,3.7l-1.3,3
	l0.5,1.3l2.6,0l-0.2,3.7l1.4,0.6l-0.6,1.2l-4.2-0.9l-0.3,0.8l-1.1-0.6l-1.5,3.2l-1.4-0.7l-0.8,1.3l-0.7-1.1l-2.8-0.1l-0.2,3.3H402
	l-0.6-1.1l-1.6,1.2l-3.7-0.3l-1.6,0.7l-0.9-0.8l-4.9,0.2l-1.5-0.5l0-1.4l1.2-1.9l-1.6-0.9l-0.5-1.7l-1.4-1.3l2.6-3.1l0.5-2l-2.2-1.6
	l0-1.8l-1.3-0.6l1.5-1.8l-0.4-1.5l-0.7,0.1l0.3-1.8l-3.3-2.3l0.1-1.2l-1.3-0.6l-0.8,0.2l-0.8,2.2l-3.2,0.8l-0.2,0.7l-1.7-0.1l-1.1,4
	l-0.6,0.1l-0.9-1.1l-1.6,0.4l-3.1-0.8l-1.2,0.3l-0.1,2.4l-1.6,0.7l-2.4-3.8l-2.4,0.9l-0.8-1.3h-2.6l-0.9,2.8l-1.6,0.9l-2.5-1.2
	l-3.9-0.7l-1-1l-0.1,1.3l-1.1,1l-0.5-0.4l-3.8,0.2l-2.3,1.5l-2,0.2l-6.5-0.7l-1.5,0.8l-1.7,0.1l-0.9,1l-2,0.4l-0.8-0.3l0,0.7l-1,0.2
	l-0.3,1.3l-1.1,0.2l-3.2-3.3l-1.7-0.3l1.4-2.8l-3.4-0.6l-0.6,1l-2-3.7l0.2-1l-0.8-2.2l0.8-1.4l-1.6,0.2l-1.5-1.7l-0.6,0.7l-0.7-0.2
	l0-2.5l0.5-0.1l0.1-1l0.9-0.3l-1.4-3.8l0-1.7l0.6-0.1l0.2-0.7l0.7,0l1.9,1.3l1.7-2.8l1.5,1l0.7-0.9l-0.7-3.5l-2.9-0.8l0.8-1.5
	l-0.2-0.9l1-0.1l-0.9-0.7l0.4-1.9l2.7-1.2l-0.9-1.1l-0.1-1.9l-1.5,0.5l0.3,1.3l-1,0.1l-0.9-3.9l-0.8,0.2l0.2-3.8l-3.1,1l-0.8,1.7
	l-0.5,0l-1.6-1.2l-0.5-1.5l-2.1-0.4l0-1.2l-1.1-0.1l0,0.4l-1.8-1.6l0.9,0.1l-0.2-0.5l0.9-0.4l-2-2l-1-0.8l-2.8,0l0.1-3.3l-3.9-2.3
	l0.5-2.4l1.9-3.2l0.4-3l-1.8,0.1l-0.4-2l-2.8-1.6l-0.8-2.6l2-0.4l-0.8-1.7l0.8-1.6l-2.2-1.6l1.2-1.3l0.1-1.5l-0.6-0.5l0.5-0.7
	l1.9-0.4l1.8-4.1l-0.6-2.1l0.4-1.5l-1.6-0.7l0-2l-0.5-0.5l0.5-2.6l-0.5-1l1-1.6l-0.3-1.1l0.5-1.1l-0.5-0.4l0.5-1l-2.2-1.9l0.2-1.2
	l1-0.4l0-0.8l-2.2-4.9l1.5-0.7l-0.1-2l3-0.2l0.3-0.8l2.6-0.1l-0.6-1.4l0.3-1.8l2.4-1.6l-0.1-4l0.8-0.4l-0.2-0.8l2.4-4.2l3.2-3.1
	l-0.1-0.9l-1.3-0.7l0.8-0.8l-1.3-4.1l3-0.6l1.5-2.2l0-2.3l-1.5-0.7l0.8-6.8l1.6,0l-0.2,1.8l2.3,1.5l0.7,1.2l1.7,0l-0.8-2.5h-1.1
	l-0.1-4.4l2.5-0.4l1.5-1.8l1.1,0.4l-0.3-1.7l4.2,3.5l1.3,0.1l2.2-5.1l2-0.3l0.8-0.7l-1.3-3.1l0.8-2.8l-1.1-0.8l1.8-1.2l3.4,1.3
	l0.6,1.1l-0.2,2.4l1.3-0.3l0.7-1.2l1.2,0l-2,3.2l5.4-0.7l1.8-1.2l1.7,0.1l1.6-2.5l1.4-0.2l0.9-1.5l0.2-2l4.8-3.2l0.6,0.5L346,70.2z"
	/>
<path class="js-tab-link" data-target="vinnytsia" style="fill:#ECEEF1;stroke:#FFFFFF;stroke-linecap:round;stroke-linejoin:round;" d="M322,236.4l0-0.7l0.8,0.3l2-0.4l0.9-1
	l1.7-0.1l1.5-0.8l6.5,0.7l2-0.2l2.3-1.5l3.8-0.2l0.5,0.4l1.1-1l0.1-1.3l1,1l3.9,0.7l2.5,1.2l1.6-0.9l0.9-2.8h2.6l0.8,1.3l2.4-0.9
	l2.4,3.8l1.6-0.7l0.1-2.4l1.2-0.3l3.1,0.8l1.6-0.4l0.9,1.1l0.6-0.1l1.1-4l1.7,0.1l0.2-0.7l3.2-0.8l0.8-2.2l0.8-0.2l1.3,0.6l-0.1,1.2
	l3.3,2.3l-0.3,1.8l0.8-0.1l0.4,1.5l-1.5,1.8l1.3,0.6l0,1.8l2.2,1.6l-0.5,2l-2.6,3.1l1.4,1.3l0.5,1.7l1.6,0.9l-1.2,1.9l0,1.4l1.5,0.5
	l4.9-0.2l0.9,0.8l1.6-0.7l3.7,0.3l1.6-1.2l0.6,1.1h1.2l0.2-3.3l2.8,0.1l0.7,1.1l0.8-1.3l1.4,0.7l1.5-3.2l1.1,0.6l0.3-0.8l4.2,0.9
	l1.6,1.1l-1.3,1.3l-0.4,2.3l1.7,3.2l0.6,3.2l1.6,1.4l0.9-0.2l-0.1,0.9l-2,0.9l0.2,1l2.4,1.9l-2,3.4l-3,1.5l-0.3,1.8l1,0.8l0.2,2.5
	l0.9,1.2l1.9-0.1l2.7,1.5l-0.5,1.3l0.2,1.2l0.6,0.1l-0.8,1l1.6,1.4l1.3-0.2l1.3,1l0.6-1.6l0.8-0.4l0.5,2.4l0.8,0.4l-0.5,0.7
	l-1.2-0.3l1.2,2.1l-0.7,4.7l0.5,0.9h0.7l0.1,1l-2.9,0.9l0.3,2.1l-2-0.7l-1.3,3.6l-0.7-1.1v0.8l-0.5,0.2l1.9,3.6l2.4-1l0,1.6l0.6,0.3
	l-2.5,3.8l0.6,0.7l-0.6,1l2,2.1l0.8-0.5l1.7,0.9l-1,1.1l0.6,0.6l0.5,2.6l1.4,0.9l0.6,5.2l5.6,1.8l-0.3,0.6l1.3,2l-1.1,0.2l-0.6,1.4
	l0.7,0.5l-0.3,0.7l1,0l2.3,2.3l1.5,0l-0.1,1.3l1.7,0.6l0.2,1.2l0.9,0.1l-0.4,1.9l-2,0.3l-0.2,1.2l0.6,1l2.6,0.8l0.9,4.6l-1.6,0
	l0.8,0.5l-0.2,1.5l-2,0.5l0,1.5l-1,1.9l-4.8,2l0.3,0.8l-4.5,3.9l1.4,1.8l-0.5,1.4l-1.1,0.2l-0.5,2.1l-0.7,0.7l-0.7-0.2l0,0.7
	l1.3,1.5l-0.1,1.3l0.6,1.2l-0.6,1.6l0.5,1.2l-0.5,0.6l-2.8,0l-2.2,1.3l-1.5-0.5l1.1,2.4l-0.4,3.6l-0.8,0.2l0.7,0.4l-0.2,0.5
	l-1.5-0.3l0.1-1l-2.1-0.7l-0.3,1.2l-0.8,0.4l0.3,0.8l-0.9,0l-0.2,0.4l-3.9-0.4l-1.3-0.5l-0.6-1.3L410,376l-0.6,0.9l0.2,0.7l-0.8,0.4
	l-0.2-0.4l-0.8,0.5l-0.2-0.6l-2.1,0.8l-1.7-0.2l-0.9-0.5l-0.4-1.4l-2.2,0.7l-0.9-1.3l1.9-0.2l0.2-0.6l1.1-0.2l-0.5-1.5l-0.8,0.6
	l-1.3-0.1l-0.6,0.7l-1.2-0.6l-2.2,0.1l0.8-0.8l-0.6-0.5l-0.7,0.2l-3.6-3.4l-0.6,0.2l0.2,0.7l-0.8,0.8l0.2,1.9l-1,1.4l0.4,0.9
	l-0.8,0.5l-0.7-2.7l-0.9-0.2l-0.6,0.5l-2.2-0.9l-1,5.2l-3.2,1l-0.1,1l-1.1-1l0.5-1.7l-0.9-2l-1.5,0.1l-0.4-0.7l-2,0.6l-0.9-0.9
	l-3.7,0.9l-0.5-1.7l-1.8,0.1l-0.1-0.6l-2-0.6l-1.2-1.3l-0.7,0.5l-0.7-0.6l-2.2,1.8l-1.3,0.2l0.8,1.1l-1,0.8l-0.3,1.5l-0.2,2.9
	l0.4,0.9l-2-0.6l-2.4-4.1l1.1-1.8l-0.7-2.4L353,371l-1.7,3.2l-1.6,0.3l-0.9-0.6l0.1-1.9l2.3-1.5l1-1.9l0-2.2l-0.9-1.6l-1.7,1.2
	l-1.1-0.7l-5.4,3.1l-1.1-0.8l0-3.1l-1.3-0.8l-1.1-0.1l-0.5,1.4l-1.4,1.1l-1.1-0.1l-0.6-1.3l0.8-3.8l-0.8-1.7l-1.3-0.7l-5.9-0.6
	l-3.2-2.6l-1.3-3.7l-2.8-1.2l-2-2.3l-2.4-0.9l-3.5,1.4l-2.2-0.2l-2.8-1.6l0.8-1.9l-0.5-0.6l-3.5,1.9l-1.9-1.1l-1.1-2.1l0.2-2.8
	l-1.7-5l-4.5-2.6l0.9-3.8l1.4-1.9l-0.9-2.6l0.7-1.1l-1.2-1.3l-0.1-0.8l1.1-0.1l-0.1-0.6l1.2-1.8l-0.9-1.4l0.3-1.3v-1l-0.1-3.6
	l-1.4-2.1l0.1-2.9l1.2-1.2l0-1.4l-1.3-1.6l0.3-0.9l-1-0.7l3.2-5.2l3.4-0.1l-1.1-1.5l1.2-1.5l-0.5-1.4l0.8-0.7l1.6,0.7l-0.1-1.6
	l2.5,1.6l1.2-1.1l-0.2-1.9l2.1-0.4l0.5-0.6l3.2,2.4l1-0.7l1.4,0.6l1-1.1l-0.2-0.6l1.4-1l-0.1-2.1l0.8,1.6l1.3-1l0.2,0.7l0.8-0.1
	l1.2,0.8l1.6-0.5l0.8-0.8l-0.3-2l-0.4-0.5l-1,0.1l-0.6-2l1-0.8l-1.4-1.6l0.8-1.1l0.1-1.6l-0.6-1.1l0.4-1.4l-0.9-1.9l-1.6-0.6l-0.1-1
	l0.9-0.2l0-0.7l-0.9-0.1l-0.1-0.7l1.2-0.5l0.9-3.1l-1.3,0.5l-1.2-1.4l-0.7,0.3l-1.5-0.7l-0.9,0.4L317,262l0.7-0.9l0.4-1.2l0.8,0
	l0.4-0.9l-2.6-0.7l0-2.9l1-0.5l1.1,1.3l1-0.9l0.2-2.2l-2-1.9l0.8-1.6l1-0.4l0.5-1.5l0.7,0.4l0.1-1l0-1.7l-2.5-1.8l-0.2-2.8l2.6-0.4
	l-0.3-0.7l1.7-1.8L322,236.4z"/>
<path class="js-tab-link" data-target="cherkasy" style="fill:#ECEEF1;stroke:#FFFFFF;stroke-linecap:round;stroke-linejoin:round;" d="M563.4,194.3l0.5,0.4l-0.7,1l2.8,2.2
	l0.8,1.8l6.9,2l0.3,2.1l-2.9,0.7l1.1,1.2l-0.9,1.3l3.1,3.9l0.6-0.1l0.6-1.6l1,0.8l-0.2,1.1l1.1,0.2l0.8,4.6l2.6,1.7l-0.5,2.2
	l0.7,0.6l-0.6,0.2l-0.3,1.9l1.1,1.3l-1.8,1.1l-0.7-0.8l-0.9,0.9l3.5,4.5l0.8,2.3l3-0.8l0.7,2.7l2.2,0.3l1,1.6l0.1,4.3l5,1.8l1.2,1.6
	l1.4,0.3l-0.6,1.1l0.8,2.8l-0.9,0.9l3.3,2.4l-0.4,0.4l0.1,4l-2.2,2.2l-1.9,0.1l-0.1,4.3l-1.2,1l1.6,1.1l-0.2,2.1l0.8,1.3l1.3-0.1
	l1.3,1l0.1,1.8l-4.8-0.1l-3.3-1.9l-3.1-0.4l-1.8-2.2l-1.7,4.3l-0.9,0.9l0.1,0.5l0.8,0l-0.7,1.1l2.2,1.9l2.3,0.7l0.9,1.2l1.5,0.6
	l1.1,2.1l1-0.7l1.4,1.1l3.5-0.8l1.5,0.6l1,1.6l3-1.5l2.3,0.2l-0.5,1.4l-4.1,3.8l-0.9,2.1l1,1.5l6.6,2.2l0,1.9l-4.3,1.9l0.8,0.7
	l0.7,3.3l-0.7,1.4l2.4,1l0.1,0.5l-1.6,0.2l0,0.8l-6.2,1.3l-0.2-1l-1.8,0.2l-0.2-0.6l-1.1-0.2l-0.5,0.9l0.7,1.4l-4,0.3L591,304
	l-1.3,1.1l-0.4-0.7l-1.9-0.7l0.5,2.3l-1.5,0.1l-1.3-6.4l-1.4,0.6l-0.4-1.9l0.4-0.4l-1.2-0.4l-0.5-1.1l-1.2,1.9l-2.3-0.3l-0.7-0.4
	l0.3-1.1l-0.5-1.8l-0.7,0.2l-0.2-0.9l-2.9,0.6l-0.8-1l-0.1,0.5l-1.2,0l-0.1,1.6l-1.5,0.1l-0.8,6.2l-1.8-1l-0.5,2.1l-2.4,0.7
	l-0.1,1.1l1.2,0.9l-0.1,2.1l-0.4,0.4l-2.2,0.1l-0.4,0.7l-0.6-0.2l0.2-1.1l-2.3,0l-1.3-1.2l-1.2,1.5l-3.3,0.7l-1.7,2l0-2.1l-4.1-2.3
	l-1-0.1l-1.1-1.2l-0.5,0.8l-2.7,1.1l-2.6-0.4l-0.8,2.9l-3.7-0.7l-2.3,1.6l0.9-1.7l-0.7-0.5l-1,1l0.6,0.4l-0.5,0.5l0.7,1.5l-1.2,1
	l0.4,0.6l-0.9,1.5l0.5,0.5l-1.8,1.1l0,1.2l-4.2,1.9l-1.6,1.4l0.6,0.7l-0.3,0.5l-0.9-0.6v0.8l-1.1,0.9l0.1-1.1L522,324l-1.4-0.9
	l-0.1,1l-1.4,0l-1.1-2.6l-2.6,0.8l-0.6-1.5l-1.9-0.3l-0.6,1.1l-1.9-0.4l-1.1,1.7l-0.6-0.4l-0.6,0.8l-0.4-0.3l-0.5,1.1l-1.2-0.9
	l-0.3,0.6l-1-0.4l-0.8-1.6l-0.5,0.2l-1.3-0.8l-1.2,0.3l-0.4-0.6l-1.8,0.3l-0.7-0.7l-0.4,0l0.1,1l-2.8-0.2l-0.1,1.1l-0.6,0.2
	l-2.8-0.5l-1.2-1.5l-0.5,1.1l-2.8-1l-0.2,0.7l-1.1,0.1l-2.1-0.7l-3.3,1.4l-0.1,1l-0.6-0.2l-0.9,1.9l-1.9-0.1l1.9,2l-0.7,2.8
	l-2.3,0.8l-1.4,2.2l2.3,1.9l-0.6,0.8l0.5,0.4l-0.1,2l-4.7,0.3l-1.5-1.6l-2.8,0.7L466,341l-3.5,0.5l-1.1,0.9l-2.8,0.6l0.1,1.4
	l-1.5,0.5l-0.6,0.1l-3.2-2l-0.7,0.6l-0.3,1.8l-1.9,2l-1.2-0.1l-2.5-2.4l-4.5,0.8l0-1.5l2-0.5l0.2-1.5l-0.8-0.5l1.6,0l-0.9-4.6
	l-2.6-0.8l-0.6-1l0.2-1.2l2-0.3l0.4-1.9l-0.9-0.1l-0.2-1.2l-1.7-0.5l0.1-1.3l-1.5,0l-2.3-2.3l-1,0l0.3-0.7l-0.7-0.5l0.6-1.4l1.1-0.2
	l-1.3-2l0.3-0.6l-5.6-1.8l-0.5-5.2l-1.4-0.9l-0.5-2.6L428,310l1-1.1l-1.7-0.9l-0.8,0.5l-2-2.1l0.6-1l-0.7-0.7l2.5-3.8l-0.6-0.3
	l0-1.6l-2.4,1l-1.9-3.6l0.5-0.2v-0.8l0.7,1.1l1.3-3.6l2,0.7l-0.3-2.1l2.9-0.9l-0.1-1h-0.7l-0.4-0.9l0.7-4.7l-1.2-2.1l1.2,0.3
	l0.5-0.7l1.2,0.3l-0.6,1.3l-1,0.4l2.1,2.4l2.8-0.5l0.4,0.7l1.9-0.8l1.6,0.2l-0.5-1.3l1.3-0.4l1.9-3.7l1.4-0.5l-0.1-2.4l-0.7-1.7
	l0.3-0.9l0.7,0.4l2.1-0.6l0.9-1.2l0.9-0.2l2.6,0.7l0.7,3.2l1.1,1.4l0.9-1.3l-0.8-1.6l1.2-0.5l0.9-2l0.2,0.8l2.9-0.3l-0.7,4.5
	l9.8,1.7l0.1,1.6l0.5,0.1l1.4-5.6l1.2-0.3l-0.2-2.1l1.3-0.4l0.1-1.6l1.9-1.1l2.6,3.2h1.1l1.8-2.2l0.7,0.3l1.3-1.6l1.7,1.2l2,0
	l3.2,2.1l1.1-1.1l1.9,0l1-0.8l3.7,0.2l1-0.8l1.4,0.2l0.7-1.9l0.6,0l0.2-2.3l-0.8-0.8l4.2-0.6l0.6-0.8l-0.1-1.3l1.4-1.9l0.9,1.2
	l-0.2-1.4l1.2-0.4l1.7-1.7l0.4-4l0.7-1l0.6-0.3l0.9,0.9l0.3-0.8l0.5,0.1l-0.7-1.5l0.6-0.6l-1.1-0.2l0.3-1.9l3.9-5.9l-0.2-1.4
	l0.8,0.4l0.3-0.7l-1.2-0.7l0.6-2.5l0.6-0.4l-0.7-1.6l0.4-2.1l-1.4-1.1l1.7-3.6l-0.6-1.8l1.9-1.2l0.9,0.8l1.8-2.3l4.8-1.5l0.1-0.6
	l-1.5-2.3l-0.8-0.2l0-0.7l0.7-0.5l-2.1-1.1l-1.2,0.6l1.3-1.5l-1-0.1l0.5-1.2l4.6-0.4l2.1,0.4l0.9,0.8l0.2,0.7l-1.2,3.4l0.1,2.9l1,2
	l1.5,0.3l0.5,1.2l1.1-0.2l0.3,1.5l0.7-0.2l0.3-2.3l2.2-0.3l0.6-1.7l0.9-0.3l0.3-0.8l1.3,0.1l0.3,4.5l5.6,0.5l2.1-3.7l1.1-0.1
	l-0.1-2.2l1.5-1.4l1.1-2.7l4.1,0.3l0.7,1.9l0.9-2l-1-4.7l3.7-2.2l0.9,0.1l0.2-0.8l-3.2-0.8l-1.2,0.3l0.2-3.9l3.5-1.9l-0.8-1.3
	l-0.6,0.2l-0.6-1.8l1.6,0.5l1.9-3.7l-0.2-0.6l1.1-0.3l2.4,1.5l1.7-3l1.1,0.1L563.4,194.3z"/>
<path class="js-tab-link" data-target="kyiv" style="fill:#ECEEF1;stroke:#FFFFFF;stroke-linecap:round;stroke-linejoin:round;" d="M472.7,100.8l-3,0.7l0.5-3l-3.3-0.2
	l-3.9-4l-0.4-0.7l1.7-1.5l-0.9-3.6l0.6-0.4l-1-0.2l-2.5-3.3l-2.4-2l-2.5-0.9l-1.6-1.5l-0.7,2l-2-1.6l-0.4,0.2l0.4,1.3l-0.5,0.3
	l-5.8-1.5l-0.3,1.3l-1.2,0.7l-0.8-0.2l-0.6,1.2l-2.1-1.7l-1.8,0.5l-0.7,0.6l0.4,0.5l-0.7,2.4l-2-1l-1.5,0.7l-0.6-0.9l-0.6,0.2v1.4
	l-2.7-1.4l-1-2.8l1-0.5l-0.1-1.9l-0.4-1.3l-1.2,0l-0.4,0.8l-2,0.9l-0.2,0.8l-0.7-0.3l-0.8,0.6l-0.5-0.5l-0.6,1l-0.8,0.2l0,1.5
	l-1.4,1.1l-2.4-1.6l-1.2,3l0.1,2.1l-1,2.2l-5.1-1.2l-1.6,0.8l-1.3,1.6l0,0.8l2-0.3l0.2,5l-2.4,4.5l-1.4,0.2l0-0.5l-3.5,1.1l1.5,7.6
	l1.3,4.7l0.5,0.1l0.3-2.7l0.9-0.2l3.6,2.5l2.6,3.8l2.8,2.5l-2.6,4l0.1,2.8l0.6,0.6l-1.9-0.8l-1.6,0.1l-0.1,3.2l1.4,0.5l1.4,1.4
	l1.2,3l1.8,1.4l0.5,1l-1.2,2.8l1.6,1.1l0.8-0.3l0.4,1.3l-2.3-0.4l-0.7,0.4l0.2,1.2l1.2,0.7l-0.7,0.5l0.2,0.9l-2.2,0.3l2,0.5l1.4-0.8
	l2.3,0.4l0,1.8l1.4,1.9l-1.2,2.7l-2.5,1.8l0,1.2l-1.3,0.8l-1-0.5l-0.5,0.3l-0.3,0.4l0.5,0.7l-1,1l0.2,0.5l-0.9-0.2l0.2,0.5l-0.7,0.3
	l2.7,2.4l0.6,1.7l-0.2,2.1l-0.8,1.2l-1.5-0.1l0.4,1l-0.4,1.1l2.5,1.3l0.2,2.5l-1.5,1.1l-1.5-1l-0.4,1.6l2.6,0.3l0.2,0.9l-1.7,2.1
	l-1.5-0.1l0.9,1.4l1.1-0.3l0.6-0.9l4.2-0.7l1.5,2.2l0.1,1.9l1.1,0.3l0.4,0.8l1.1-0.5l-1.2,2.6l0.6,1l2.6,0.7l1.2-0.3l-0.9,2.4
	l0.7,1.5l-1.3,0.5l2,3.9l-0.8,0.3l-0.6,2l-1.7,1.9l2.7,2.5l-1.9,2.3l-0.1,0.7l1,0.1l-1.5,1.1l2.6,3.1l-0.1,2.5l-1,0.8l1.2,2.4
	l-0.4,0.7l1.6,1.8l-0.3,0.5l1.2,2.2l-0.5,1.1l-3,1.7l1.3,0.7l-2.4,2.3l0.7,0.4l-0.8,0.8l-0.6-0.4l-1.1,1.5l-1-0.3l-0.3,1l-2.8,0.7
	l-0.4,1.4l-1.8-1.3l-0.9,0.7l0.3,0.8l-0.8,1.2l-0.7-1l-1.1,1l-0.7-0.2l1.4,3.7l-1.3,3l0.5,1.3l2.6,0l-0.2,3.7l1.4,0.6l-0.6,1.2
	l1.6,1.1l-1.4,1.3l-0.4,2.3l1.7,3.2l0.6,3.2l1.6,1.5l0.9-0.2l-0.1,0.9l-2,0.9l0.2,1l2.4,1.9l-2,3.4l-3,1.5l-0.3,1.8l1,0.8l0.3,2.5
	l0.9,1.2l1.9-0.1l2.7,1.5l-0.5,1.3l0.2,1.3l0.6,0.1l-0.8,1l1.6,1.4l1.3-0.2l1.3,1l0.5-1.6l0.8-0.4l0.5,2.4l0.8,0.4l1.2,0.3l-0.6,1.3
	l-1,0.4l2.1,2.4l2.8-0.5l0.5,0.7l1.9-0.8l1.6,0.1l-0.5-1.2l1.3-0.4l1.9-3.7l1.4-0.5l-0.1-2.4l-0.7-1.7l0.3-0.9l0.7,0.4l2.1-0.6
	l0.9-1.3l0.9-0.2l2.6,0.7l0.7,3.2l1.1,1.4l0.9-1.3l-0.8-1.6l1.2-0.5l0.9-2l0.2,0.8l2.9-0.3l-0.7,4.5l9.8,1.7l0.1,1.6l0.5,0.1
	l1.4-5.5l1.2-0.3l-0.2-2.1l1.3-0.4l0-1.6l1.9-1.1l2.6,3.2h1.1l1.8-2.2l0.7,0.3l1.3-1.6l1.7,1.1l2,0l3.2,2.1l1.1-1.1l1.9,0l1-0.8
	l3.7,0.2l1-0.8l1.4,0.2l0.7-1.9l0.6,0l0.2-2.3l-0.8-0.8l4.2-0.6l0.6-0.8l-0.1-1.3l1.4-1.9l0.9,1.2l-0.3-1.4l1.2-0.4l1.7-1.7l0.4-4
	l0.7-1l0.6-0.3l0.9,0.9l0.3-0.8l0.5,0.1l-0.7-1.5l0.6-0.6l-1.1-0.2l0.3-1.9l3.9-5.9l-0.2-1.4l0.8,0.4l0.3-0.7l-1.2-0.7l0.6-2.5
	l0.6-0.4l-0.8-1.7l0.4-2.1l-1.4-1.1l1.7-3.6l-0.5-1.8l1.9-1.2l0.9,0.8l1.8-2.3l4.8-1.5l0.1-0.6l-1.5-2.3l-0.8-0.2l0-0.7l0.7-0.5
	l-2.1-1.1l-1.2,0.6l1.3-1.5l-1-0.1l0.5-1.2l4.6-0.4l2.1,0.4l1,0.9l0.2,0.7l-1.2,3.4l0,2.9l1,2l1.5,0.3l0.5,1.2l1.1-0.2l0.3,1.5
	l0.7-0.2l0.3-2.3l2.2-0.3l0.6-1.7l0.9-0.3l0.3-0.8l1.3,0.1l0.3,4.5l5.6,0.5l2.1-3.7l1.1-0.1l-0.1-2.3l1.5-1.4l1.1-2.7l4.1,0.3
	l0.7,1.9l0.9-2l-1-4.7l3.7-2.2l0.9,0.1l0.2-0.8l-3.2-0.8l-1.2,0.3l0.2-3.9l3.5-1.9l-0.8-1.3l-0.6,0.2l-0.6-1.8l1.6,0.5l1.9-3.7
	l-0.2-0.6l1.1-0.3l2.4,1.5l1.7-3l1.1,0.1l0.6-0.7l-1.5-1.7l0.9-2.9l-0.3-0.4l2.4-1.6l-0.6-1l1.2-1.7l-0.4-1l-0.1-0.6l1-1.3l-0.2-0.7
	l-2.1-0.4l-1.9,0.5l-0.5-1.6l1.2-1.9l-2.8,1.3l-1.4-5.1l-3.2-1.1l0.6-1l-0.8-0.4l1.1,0.1l0.1-1l0.8-0.1l0.4,0.9l2-0.6l1-1.5l-0.6-1
	l0.6-1.6l-6.2-0.3l-1.7-4.5l-2.2-1.1l-1.4-2.1l-2.7,0.7l0,1.3l-1.4,0.3l0.3,2.1l-0.6,0.4l0.1,1.5l-5.3-0.3l-1.1,1.1l-1.1-0.3l0,1.7
	l-0.9,1l-3.4-0.5l-0.9,0.8l-1.8-0.9l-0.3,0.7l-1.4,0l-3,1.9l-1.2-0.1l-0.2-1.3l-2.4-1.5l-2.3,3l-0.6-2.3l-3.5-1.3l0-1.5l-0.5,0.1
	l-0.2-1l-3.2-0.6l0-1.2l-1.1,0l0-1.8l2.8,0.2l0.5-0.6l-0.4-0.6l0.4-0.6l-1.4-1.4l1.2-2.4l-0.2-2.1l-0.6-0.2l0-0.7l-0.9,0.3l-0.1-2
	l-1.3-0.1l0-0.8l-2.5-1.5l0.1-2.1l-2.7-0.4l-0.6,1.4l-6.1,0.1l-0.4,0.6l-2.8-0.8l-0.6-0.7l-0.7,0.5l-0.2,1.9l-1.2,0.2l-0.9,0l-0.2-1
	l0.7,0.1l0.1-0.9l1.6-1.3l-2.3,1.7l-3.3-1.6l-2.1,0.5l-0.1-1.1l0.7-1.4l-0.9-1.4l0.8-0.3l0.9,0.7l0.2-1.2l0.8-0.7l-0.7-3.9l-1.7-0.9
	l-0.3-0.8l-2.6-0.7l-1.3-3.9l-1-1.4l0-3.2l-2.2-0.9l-0.2-1.4l-5.6,0.3l-0.4-2.7l0.8-1.9l-1.3-1.9l1.6-0.7l0.2-0.7l-1.3-2l-0.2-3.1
	l0.6-0.8l1.5,0.2l0.7-0.4l-1.3-0.7l0.8-1.5l-1.5-2l0.5-0.5l2,0.2l0.5-0.4l-0.1-1.3l-0.9-1.2L472.7,100.8z M490.5,167.7l-1.1,0.7
	l-1.2-0.3l-1.4,0.7l-0.9,2.2l1,4.2l2.5,1.8l0.3,3l-2.2,3l-3.2,1.5l-2.6-1.7l-1.4,0.2l-0.5,0.7l-0.2,2.5l0.6,0.5l0.2,2l-0.9,1.5v1.7
	l0.6,2.7l-1.5,1.7l-1.7-0.7l-1.6-2.5l-1.3-3.7l-0.5-4.2l-1.7,0.2l-1.5-1.3l-1-0.2l-1.4-4.2h-1.7l-0.9-0.7l-0.7-3.4l-2.1-0.3
	l-2.1,0.7l-1.1,0.7l-0.4,1.2l-1.2,0.2l-0.4-1.5l1.8-4.5v-1.7l2.6-3l1.5,0.3l0.5-1l-0.4-1l-2.2-1.5l-0.1-0.8l0.5-0.3l4.5-0.3l4,0.7
	l5,5.4l2.6-1.5h4.8l1.1-0.8l1.1-2.2l1.9-0.7l3.1,1l1,1V167.7z"/>
<path class="js-tab-link" data-target="kyiv_city" style="fill:#ECEEF1;stroke:#FFFFFF;stroke-linecap:round;stroke-linejoin:round;" d="M486.3,169.8l-0.3,2.3l0.6,0.8v1.5
	l2.8,2.5l0.3,3l-2.2,3l-3.2,1.5l-2.6-1.7l-1.4,0.2l-0.5,0.7l-0.2,2.5l0.6,0.5l0.2,2l-0.9,1.5v1.7l0.6,2.7l-1.5,1.7l-1.7-0.7
	l-1.6-2.5l-1.3-3.7l-0.6-4.2l-1.7,0.2l-1.5-1.3l-1-0.2l-1.4-4.2h-1.7l-0.8-0.7l-0.7-3.4l-2.1-0.3l-2.1,0.7l-1.1,0.7l-0.4,1.2
	l-1.2,0.2l-0.4-1.5l1.8-4.5v-1.7l0.8-1.3l1.7-1.7l1.5,0.3l0.5-1l-0.4-1l-2.2-1.5l-0.1-0.8l0.5-0.3l4.5-0.3l4,0.7l5,5.4l2.6-1.5h4.8
	l1.1-0.8l1.1-2.2l1.9-0.7l3.1,1l1,1v2.3l-1.1,0.7l-1.2-0.3l-1.4,0.7L486.3,169.8z"/>
<path class="js-tab-link" data-target="Khmelnytskyi" style="fill:#ECEEF1;stroke:#FFFFFF;stroke-linecap:round;stroke-linejoin:round;" d="M231.1,198.5l0.6,0.6l3.2-0.6l0.9-1.4
	l0.1-1.6l1.1-1.3l2.1-1.8l1.1-0.1l0.9-1.1l6.1,0.1l-0.6-0.3l-0.1-1.2l1.2-0.1l-0.4-0.7l0.9-0.7l0.2-1.1l1,0.2l0-0.8l0.8,0l-0.3-1.1
	l1.9-0.8l0.8-2.5l2.6,0.3l0.7-2.4l1.2,0.2l0.7-2.7l1,0.3l0.3-2.6l1.1,0.2l-0.5-1.2l0.5-1.7l0.6-0.2l-0.2,1.6l2.5-0.6l0.2-0.7
	l-1.5,0.5l0.2-1.7l0.5,0l0.4-1.1l1.9-0.1l0.4-1.5l0.5-0.2l1.1,1.2l2.6-3.2l1.8,1.2l2.8,0.7l0.4-0.9l1.2-0.5l0.5-1.8l2.9,0.6l0.1-2.1
	l2.4-1.5l0.8,0.6l0,2.4l3.6-0.2l0.8,2.6l2.8,1.6l0.5,2l1.8-0.1l-0.4,3l-1.9,3.2l-0.5,2.4l3.9,2.3l-0.1,3.3l2.8,0l1,0.8l2,2l-0.9,0.3
	l0.2,0.5l-0.9-0.1l1.8,1.6l0-0.4l1.1,0.1l0,1.2l2.1,0.4l0.5,1.5l1.6,1.2l0.5,0l0.8-1.7l3.1-1l-0.2,3.8l0.8-0.2l0.9,3.9l1-0.2
	l-0.3-1.3l1.5-0.5l0.1,1.9l0.9,1.1l-2.7,1.2l-0.4,1.9l0.9,0.7l-1,0.1l0.2,0.9l-0.8,1.5l2.9,0.8l0.7,3.5l-0.7,0.9l-1.5-1l-1.7,2.8
	l-1.9-1.3l-0.8-0.1l-0.2,0.7l-0.6,0.1l0,1.7l1.4,3.8l-0.9,0.3l-0.1,1l-0.5,0.1l0,2.5l0.7,0.2l0.6-0.7l1.5,1.7l1.6-0.2l-0.8,1.4
	l0.8,2.2l-0.2,1l2,3.7l0.6-1l3.4,0.6l-1.4,2.8l1.7,0.3l3.2,3.3l1.1-0.2l0.4-1.3l1-0.2l0.1,1.5l-1.7,1.8l0.3,0.7l-2.6,0.4l0.2,2.8
	l2.5,1.8l0.1,1.7l-0.1,1l-0.7-0.4l-0.5,1.5l-1,0.4l-0.8,1.6l2,1.9l-0.2,2.2l-1,0.9l-1.1-1.3l-0.9,0.5l0,2.9l2.6,0.7l-0.3,0.9l-0.8,0
	l-0.5,1.2l-0.7,1l0.3,1l0.9-0.4l1.5,0.7l0.7-0.3l1.2,1.4l1.3-0.5l-0.9,3.1l-1.2,0.5l0.1,0.7l0.9,0.1l0,0.7l-0.9,0.2l0.1,1l1.6,0.6
	l0.9,1.9l-0.4,1.4l0.6,1.1l-0.1,1.6l-0.7,1.1l1.4,1.6l-1,0.8l0.6,2l1-0.1l0.4,0.5l0.4,2l-0.8,0.8l-1.6,0.5l-1.2-0.8l-0.8,0.1
	l-0.2-0.7l-1.3,1l-0.8-1.6l0.1,2.1l-1.4,1l0.2,0.6l-1,1.1l-1.4-0.6l-1,0.7l-3.2-2.4l-0.5,0.6l-2.1,0.4l0.2,1.9l-1.2,1.1l-2.5-1.6
	l0.1,1.6l-1.6-0.7l-0.8,0.7l0.5,1.4l-1.2,1.5l1.1,1.5l-3.4,0.1l-3.2,5.2l1,0.7l-0.3,0.9l1.3,1.6l0,1.4l-1.2,1.2l-0.1,2.9l1.4,2.1
	l0,3.6v1l-0.4,1.3l0.9,1.4l-1.2,1.8l0.1,0.6l-1.1,0.1l0,0.8l1.2,1.3l-0.7,1.1l0.9,2.6l-1.4,1.9l-0.9,3.8l-1.1,0.1l-0.5,1.9l-1.3,0.6
	l-2.2-2l-2,0l-0.5,1.3l1.5,2.1l-1.1,1.5l-4.6-1.5l-1.3,0.6l-1.3,1.5l-1.8,0.1l-4.8-1.1l-0.5-1.5l-1.3,1.1l-2.2,0.1l-1.4,2.2
	l-1.3,0.6l-2.2-1.5l-1.1-2l0.3-1.9l-1.2-0.5l-1.4,1.2l1,2.5l-0.9,1.7l-1.1-0.2l-0.6-2.6l-1.1-0.7l-0.5,0.7l1,1l0.2,1.2l-0.2,1.2
	l-0.7,0.6l-1.4,0l-2.5-2.4l-1.3,0l-0.8,0.6l-0.2,0.9l0.5,0.7l2.7-0.4l0.3,1.3l1.6,1.5l0.3,1.1l-0.9,0.7l-2.3,0l-1.3-1.8l-1.3-0.1
	L253,344l1,2.7l-1.5,0.9l-2.7-0.5l-3.8-7.3l-2.4,0.6l-0.4-0.8l-1.5,0.5l-1.5-1.9l-0.6,1.8l-0.7,0l0.3-1.3l-1.6-0.9l1.2-1.5l-0.9,0.1
	l-1-2.2l-1.8-1l1.7-0.6l-0.2-0.5l-1.6-0.2l1.1-1.4L234,331l0.3-1.9l-1.6,0.1l-0.1-1.3l-1,0.2l-0.3-0.5l1-0.9l-0.5-1l0.7-2.3
	l-1.2-1.3l1.1,0.3l0.2-0.4l-0.8-0.6l0.3-1.3l-1.2-0.3l-0.4-1.5l0.4-0.4l1.1,1l-0.5-2l1.2,0.4l0.6-0.7l-1.3-0.2l-1-2.7l-0.8-0.4
	l0.6-2l-0.5-1.5l1-1.1l-0.6-0.2l-0.9,0.7l-0.6-1.2h0.7l-0.2-1.4l0.8-1.6l-1.7-1.6l2-0.9l-1.6-0.4l-0.3-0.7l0.8-0.6l1,0.3l0.3-0.6
	l-1-1.4l0.5-1l-1.3-1.7l1.7-1.5l-1.3-0.3l0.7-2l-0.4-2.5l0.4-0.4l-0.8-2.3l1.2-0.2l-1.2-0.9l0.3-0.8l-0.6-1.3l0.6-1.3l-0.3-0.7
	l0.7-0.2l0.1-1.9l2.3,0l-0.1-0.9l0.8-0.8l-0.9-1.2l0.8,0.2l-0.3-0.9l0.6-0.3l-0.7-0.8l0.1-1.2l-1.3-1.2l0-1.8l0.9,0.1l-0.6-1.1
	l0.6-0.9l-1.3-0.8l0.7-1.9l-2.2-2.6l-0.2-4.4l-2.8-2.6l1.9-3.4l1.2-0.7l0.4,0.9l0.8-0.3l-0.6-2.5l0.4-0.7l-0.8-1.8l1.5-1.3l0.4-1.1
	l1.4,0.1l0.1-1.3l0.9-0.4l-0.2-1l-1.7-1.9l-2.8-1.8l1.3-2l1.7-1l-0.3-2.5l-0.8-0.5l-0.5-2.5l-2.1-3.2l1.3-1.8l-2.3-1.2l-0.1-0.6
	l-1.5-0.7v-0.7l1.7-1.4l-1.1-3.1l0.2-1.7l1.1-0.9l0.1-0.8l1.8,0.1l0.6-2.1l-1.9-0.7l1.2-1l1.1-0.1l0-0.8h0.5l-0.3-1.2l-1.1-0.8
	l-0.1-2.6l4.1-0.3v-1l-2.2-1.7l0.5-1l-1.1,0l-0.8-0.9l0.5-0.5l-0.4-1.4L231.1,198.5z"/>
</svg>
