<svg xmlns="http://www.w3.org/2000/svg" xml:space="preserve" style="enable-background:new 0 0 36 28" viewBox="0 0 36 28"><path d="M23.1 0H1.2C.5 0 0 .5 0 1.2v14c0 .6.5 1.2 1.2 1.2h21.9c.6 0 1.2-.5 1.2-1.2v-14c0-.7-.6-1.2-1.2-1.2zM0 22.2c0 .6.5 1.2 1.2 1.2h1.2c.5-2.4 2.5-4.4 4.9-4.7H1.2c-.4 0-.8-.1-1.2-.2v3.7z" style="fill:#007fff"/><path d="M33.4 23.3h1.4c.6 0 1.2-.5 1.2-1.2V11.9c0-1.8-4.4-6.1-6.8-6.1h-2.6v9.3c0 1.9-1.6 3.5-3.5 3.5H8.8c2.5.3 4.5 2.2 4.9 4.7H22c.5-2.7 2.9-4.7 5.7-4.7 2.8 0 5.2 2.1 5.7 4.7zM28.5 8.7c5.9-.3 5.7 5.9 5.7 5.9h-5.7V8.7z" style="fill:#007fff"/><path d="M27.7 28c1.9 0 3.5-1.6 3.5-3.5S29.6 21 27.7 21s-3.5 1.6-3.5 3.5 1.6 3.5 3.5 3.5zM8.1 28c1.9 0 3.5-1.6 3.5-3.5S10 21 8.1 21s-3.5 1.6-3.5 3.5S6.2 28 8.1 28z" style="fill:#007fff"/></svg>