<svg xmlns="http://www.w3.org/2000/svg" xml:space="preserve" style="enable-background:new 0 0 27 36" viewBox="0 0 27 36"><path d="M10.4 9.6H8.6c-.7 0-1.2.5-1.2 1.2S7.9 12 8.6 12h.6c-1.9 1.8-4.2 3.9-6 6.2C1.4 20.7 0 23.4 0 26.3c0 2.5.6 4.3 1.6 5.7 2.2 3.1 6.7 4 11.9 4s9.7-.9 11.9-4c1-1.4 1.6-3.2 1.6-5.7 0-2.9-1.4-5.6-3.3-8.1-1.8-2.3-4.1-4.4-5.9-6.2h.6c.7 0 1.2-.5 1.2-1.2s-.5-1.2-1.2-1.2h-1.8l2.3-4.4c.6-1.1.5-2.4-.1-3.5-.7-1-1.9-1.7-3.2-1.7h-4.3C10 0 8.8.7 8.2 1.7c-.6 1.1-.7 2.4-.1 3.5l2.3 4.4zm1.8 7.2c-2 0-3.7 1.6-3.7 3.6s1.6 3.6 3.7 3.6h2.5c.7 0 1.2.5 1.2 1.2s-.5 1.2-1.2 1.2H11c-.7 0-1.2.5-1.2 1.2s.5 1.2 1.2 1.2h1.2V30c0 .7.6 1.2 1.2 1.2.7 0 1.2-.5 1.2-1.2v-1.2c2 0 3.7-1.6 3.7-3.6s-1.6-3.6-3.7-3.6h-2.5c-.7 0-1.2-.5-1.2-1.2s.5-1.2 1.2-1.2h3.7c.7 0 1.2-.5 1.2-1.2s-.5-1.2-1.2-1.2h-1.2v-1.2c0-.7-.5-1.2-1.2-1.2s-1.2.5-1.2 1.2v1.2z" style="fill-rule:evenodd;clip-rule:evenodd;fill:#007fff"/></svg>