<svg xmlns="http://www.w3.org/2000/svg" xml:space="preserve" style="enable-background:new 0 0 51 60" viewBox="0 0 51 60"><path d="M50.8 51S44.2 39.6 43 37.5c1.4-.4 2.8-.8 3.4-1.8 1-1.7-.8-4.6-.3-6.4.5-1.9 3.3-3.6 3.3-5.5s-2.9-4.1-3.4-6c-.5-1.9 1.3-4.7.3-6.4-1-1.7-4.3-1.6-5.7-2.9-1.4-1.4-1.4-4.7-3.1-5.6-1.7-.9-4.5.9-6.4.5-1.9-.6-3.6-3.4-5.6-3.4-2 0-5.2 3.2-5.6 3.3-1.9.4-4.7-1.4-6.4-.5-1.7.9-1.7 4.3-3.1 5.6-1.4 1.4-4.7 1.3-5.7 3s.8 4.6.3 6.4c-.5 1.9-3.4 3.7-3.4 5.9 0 1.9 2.8 3.6 3.3 5.5s-1.3 4.7-.3 6.4c.5.9 1.8 1.3 3 1.7.1 0 .4.2.2.5C7 39.3.2 51.1.2 51.1c-.5.9-.1 1.7 1 1.8l5.3.2c1.1 0 2.4.8 3 1.7l2.8 4.5c.6.9 1.5.9 2 0l7.9-13.7c.2-.2.3-.1.4-.1.9.7 2.1 1.5 3.1 1.5s1.9-.7 2.8-1.5c.1-.1.3-.2.4.1l7.9 13.6c.5.9 1.5 1 2 0l2.8-4.5c.6-.9 1.9-1.7 3-1.8l5.3-.2c1 0 1.4-.8.9-1.7zM34.2 38.7c-5.8 3.4-12.8 3-18.2-.3-7.8-5-10.4-15.5-5.7-23.6 4.8-8.3 15.2-11.2 23.5-6.6 0 0 .1 0 .1.1.1 0 .1.1.2.1 2.6 1.5 4.8 3.6 6.4 6.4 4.9 8.2 2.1 19-6.3 23.9z" style="fill:#fff"/><path d="M32.9 10.7c-4.5-2.6-10.1-2.8-14.9 0-7 4.1-9.4 13.2-5.3 20.2 1.2 2.2 3 3.9 4.9 5.1.2.1.3.2.5.3 7 4.1 16.1 1.7 20.1-5.4 4.1-7 1.7-16.1-5.3-20.2zm1.8 11.6-2.5 2.4c-.8.7-1.2 2.2-1.1 3.3l.6 3.4c.2 1.1-.4 1.5-1.4 1l-3-1.6c-.9-.5-2.5-.5-3.4 0l-3 1.6c-.9.5-1.6 0-1.4-1L20 28c.2-1.1-.3-2.5-1.1-3.3l-2.5-2.4c-.8-.7-.5-1.5.5-1.6l3.4-.5c1.1-.2 2.3-1.1 2.8-2l1.5-3.1c.5-1 1.2-1 1.7 0l1.5 3.1c.5 1 1.7 1.9 2.8 2l3.4.5c1.2.1 1.4.8.7 1.6z" style="fill:#fff"/></svg>