<svg xmlns="http://www.w3.org/2000/svg" xml:space="preserve" style="enable-background:new 0 0 57 57" viewBox="0 0 57 57"><path d="M16.3 33c2.7 1.5 5.8 2.3 8.9 2.3s6.2-.8 8.9-2.3c2.7-1.5 5.1-3.7 7-6.4.3-.4.4-.8.4-1.3s-.1-.9-.4-1.3c-1.8-2.7-4.2-4.9-7-6.4-2.7-1.5-5.8-2.3-8.9-2.3-3.1 0-6.2.8-8.9 2.3-2.7 1.5-5.1 3.7-7 6.4-.3.4-.4.8-.4 1.3s.1.9.4 1.3c1.9 2.6 4.3 4.9 7 6.4zm-5.6-22.3c1.9-1.9 4.2-3.4 6.7-4.5 2.5-1 5.2-1.6 7.9-1.6s5.4.5 7.9 1.6c2.5 1 4.8 2.5 6.7 4.5 8 8 8 21 0 29-3.9 3.9-9.1 6-14.5 6s-10.7-2.2-14.5-6c-3.9-3.9-6-9.1-6-14.5-.2-5.4 1.9-10.7 5.8-14.5zm14.5 39.7c-5 0-9.9-1.5-14-4.2-4.1-2.8-7.4-6.7-9.3-11.3C0 30.2-.5 25.2.5 20.3s3.4-9.4 6.9-12.9C11.7 3 17.6.4 23.7 0s12.2 1.5 17.1 5.3 8.1 9.3 9.2 15.3c1.1 6.1-.1 12.3-3.3 17.6l8.5 8.5c1.1 1.1 1.7 2.6 1.7 4.2s-.6 3.1-1.7 4.2-2.6 1.7-4.2 1.7-3.1-.6-4.2-1.7l-8.5-8.5c-3.9 2.6-8.5 3.8-13.1 3.8zm-2.3-25.2c0-.6.2-1.2.7-1.7.4-.4 1-.7 1.7-.7.5 0 .9.1 1.3.4.4.3.7.6.9 1.1.2.4.2.9.1 1.4-.1.5-.3.9-.6 1.2-.3.3-.7.5-1.2.6-.5.1-.9 0-1.4-.1-.4-.2-.8-.5-1-.9-.4-.4-.5-.8-.5-1.3z" style="fill-rule:evenodd;clip-rule:evenodd;fill:#fff"/></svg>