<svg xmlns="http://www.w3.org/2000/svg" xml:space="preserve" style="enable-background:new 0 0 44 59" viewBox="0 0 44 59"><path d="M16.9 15.8H14c-1.1 0-2 .9-2 2s.9 2 2 2h1c-3 2.9-6.8 6.3-9.7 10.2C2.2 33.9 0 38.4 0 43.1c0 4 1 7 2.6 9.3C6.3 57.6 13.5 59 22 59s15.7-1.4 19.4-6.5c1.6-2.3 2.6-5.3 2.6-9.3 0-4.8-2.2-9.3-5.3-13.3C35.8 26 32 22.6 29 19.7h1c1.1 0 2-.9 2-2s-.9-2-2-2h-2.9l3.7-7.2c1-1.8.9-4-.2-5.8S27.6 0 25.5 0h-6.9c-2.1 0-4 1.1-5.1 2.8-1.1 1.8-1.2 3.9-.2 5.8l3.6 7.2zm3 11.7c-3.3 0-6 2.6-6 5.9s2.7 5.9 6 5.9h4c1.1 0 2 .9 2 2s-.9 2-2 2h-6c-1.1 0-2 .9-2 2s.9 2 2 2h2v2c0 1.1.9 2 2 2s2-.9 2-2v-2c3.3 0 6-2.6 6-5.9 0-3.3-2.7-5.9-6-5.9h-4c-1.1 0-2-.9-2-2s.9-2 2-2h6c1.1 0 2-.9 2-2s-.9-2-2-2h-2v-2c0-1.1-.9-2-2-2s-2 .9-2 2v2z" style="fill-rule:evenodd;clip-rule:evenodd;fill:#fff"/></svg>