<svg xmlns="http://www.w3.org/2000/svg" xml:space="preserve" style="enable-background:new 0 0 1647 133" viewBox="0 0 1647 133"><path d="m150.6 114.6 10.8 6.9-7.6 11.3-10.8-7.6c-3.8 2.5-7.6 5-13.3 5.7-5.1 1.3-12.7 1.9-22.2 1.9H48.9c-17.2 0-29.9-3.1-36.9-9.4-8.2-6.9-12-18.9-12-35.9V46.6c0-16.4 3.2-28.3 10.2-35.3C17.8 3.8 30.5 0 48.9 0h57.8C123.9 0 136 3.1 143 8.8c8.3 6.9 12.1 19.5 12.1 37.2v40.9c0 5.7-.6 10.7-1.3 14.5-.6 5.7-1.3 9.4-3.2 13.2zm-9.5-26.4v-41c0-14.5-2.5-23.3-7-27.1-4.4-3.8-13.3-5.7-27.3-5.7H48.9c-14 0-22.9 2.5-28 6.9-5.1 5-7.6 13.2-7.6 25.8V88c0 12 2.5 20.8 7.6 25.2 5.1 4.4 14.6 6.9 28 6.9h57.8c5.7 0 10.2 0 14-.6 3.8-.6 6.4-1.3 7.6-2.5L82 87.5l8.3-10.7 48.3 30.9c1.3-2.5 1.9-5 1.9-8.8.6-3.8.6-7.6.6-10.7zM490.8 88.2c0 18.3-3.8 30.2-10.8 36.5-6.4 5.7-19.1 8.2-36.9 8.2h-57.8c-17.8 0-30.5-3.1-38.1-10.1-7.6-6.9-10.8-18.3-10.8-35.3V46.6c0-17 3.8-29 10.8-35.9 7-6.9 19.7-10.7 38.1-10.7h57.8c17.2 0 29.2 3.1 35.6 8.8 7.6 6.9 12.1 19.5 12.1 37.8v41.6zm-14-41.6c0-13.2-2.5-21.4-7-25.8-4.4-4.4-14-6.3-27.3-6.3h-57.8c-12.7 0-21.6 2.5-27.3 6.9-5.1 4.4-8.3 13.2-8.3 25.8v42.2c0 12.6 2.5 20.8 7.6 25.2 5.1 4.4 14 6.3 27.3 6.3h57.8c14 0 22.9-1.9 27.3-6.3 4.4-4.4 6.4-12.6 6.4-25.8V46.6h1.3zM679.8 79.5V133h-14V2h95.3c15.9 0 28 3.8 35.6 10.7 7 6.3 10.8 15.1 10.8 27.1 0 8.8-1.9 15.7-5.7 20.8-2.5 3.8-7 6.9-12.7 10.7 4.4 1.3 8.3 3.8 11.4 8.8 3.2 5.7 5.1 13.2 5.1 22v30.2h-14v-32.1c0-8.2-1.9-13.2-5.1-17-3.2-3.1-8.9-5-15.9-5h-90.9v1.3zm0-63.6v50.4h85.8c8.9 0 15.9-1.9 20.3-6.3 5.1-4.4 7.6-12 7.6-22.7 0-6.3-2.5-12-7.6-15.7-5.1-4.4-11.4-6.3-19.7-6.3h-86.4v.6zM982.5 2h142.4v13.2H1060V133h-14V15.2h-63.6V2zM1313.8 133h-14V2h14v131zM1504 133h-15.2l68.6-131h21l68.6 131h-15.9l-17.2-32.8h-92.8L1504 133zm24.2-46h78.2L1567 11.4 1528.2 87z" style="fill:#f4f5f8"/></svg>