<svg xmlns="http://www.w3.org/2000/svg" xml:space="preserve" style="enable-background:new 0 0 214 64.9" viewBox="0 0 214 64.9"><path d="M32.8 53.3c.8 0 1.4-.6 1.4-1.4 0-.7-.6-1.4-1.4-1.4-10.1 0-18.3-8.1-18.3-18.1s8.2-18.1 18.3-18.1 18.3 8.1 18.3 18.1c0 .7.6 1.4 1.4 1.4s1.4-.6 1.4-1.4c0-11.5-9.4-20.8-21-20.8s-21 9.3-21 20.8c-.1 11.5 9.3 20.9 20.9 20.9z" style="fill:#fff"/><path d="M32.8 57.1c13.7 0 24.9-11.1 24.9-24.7S46.5 7.7 32.8 7.7C19 7.8 7.9 18.9 7.9 32.5c0 13.6 11.2 24.6 24.9 24.6zm0-46.6c12.2 0 22.2 9.9 22.2 22s-9.9 22-22.2 22c-12.2 0-22.2-9.9-22.2-22 0-12.2 10-22 22.2-22z" style="fill:#fff"/><path d="M32.8 61c15.9 0 28.9-12.8 28.9-28.6S48.7 3.8 32.8 3.8 3.9 16.7 3.9 32.4c0 15.8 13 28.6 28.9 28.6zm0-54.4c14.4 0 26.1 11.6 26.1 25.9 0 14.3-11.7 25.9-26.1 25.9-14.4 0-26.1-11.6-26.1-25.9 0-14.3 11.7-25.9 26.1-25.9z" style="fill:#fff"/><path d="M69.6 62.2H45.9c.7-.3 1.4-.6 2.1-1h18.8c.8 0 1.4-.6 1.4-1.4 0-.7-.6-1.4-1.4-1.4H52.3c.4-.3.9-.6 1.3-1H64c.8 0 1.4-.6 1.4-1.4 0-.7-.6-1.4-1.4-1.4h-7.5c.3-.3.5-.6.8-.8h4.1c.8 0 1.4-.6 1.4-1.4 0-.7-.6-1.4-1.4-1.4h-1.9c3.9-5.3 6.1-11.8 6.1-18.9C65.6 14.6 50.9 0 32.8 0c-.8 0-1.4.6-1.4 1.4 0 .7.6 1.4 1.4 1.4 16.6 0 30 13.3 30 29.8 0 16.4-13.5 29.8-30 29.8-16.6 0-30-13.4-30-29.8 0-.7-.6-1.4-1.4-1.4S0 31.7 0 32.5C0 50.4 14.7 65 32.8 65h36.9c.8 0 1.4-.6 1.4-1.4-.1-.8-.7-1.4-1.5-1.4zM100.2 37.7l1 .6-.7 1-1-.7c-.3.2-.7.4-1.2.5-.4.1-1.1.2-2 .2h-5.2c-1.5 0-2.6-.3-3.3-.8-.7-.6-1.1-1.7-1.1-3.2v-3.6c0-1.4.3-2.5.9-3.1.7-.7 1.8-1 3.4-1h5.1c1.5 0 2.6.3 3.2.8.7.6 1.1 1.7 1.1 3.3v3.6c0 .5-.1.9-.1 1.3.1.5 0 .8-.1 1.1zm-.9-2.3v-3.6c0-1.3-.2-2.1-.6-2.4-.4-.3-1.2-.5-2.4-.5h-5.1c-1.2 0-2 .2-2.5.6-.4.5-.7 1.2-.7 2.3v3.6c0 1.1.2 1.8.7 2.2.4.4 1.3.6 2.5.6h5.1c.5 0 .9 0 1.2-.1s.6-.1.7-.2l-4.1-2.6.7-.9 4.3 2.7c.1-.2.2-.4.2-.8v-.9zM126.6 35.4c0 1.6-.3 2.7-1 3.2-.6.5-1.7.7-3.3.7h-5.1c-1.6 0-2.7-.3-3.4-.9-.7-.6-1-1.6-1-3.1v-3.6c0-1.5.3-2.6 1-3.2.6-.6 1.7-.9 3.4-.9h5.1c1.5 0 2.6.3 3.1.8.7.6 1.1 1.7 1.1 3.3v3.7zm-1.3-3.7c0-1.2-.2-1.9-.6-2.3-.4-.4-1.2-.6-2.4-.6h-5.1c-1.1 0-1.9.2-2.4.6-.4.4-.7 1.2-.7 2.3v3.7c0 1.1.2 1.8.7 2.2.4.4 1.2.6 2.4.6h5.1c1.2 0 2-.2 2.4-.6.4-.4.6-1.1.6-2.3v-3.7zM139.6 34.6v4.7h-1.2V27.8h8.4c1.4 0 2.5.3 3.1.9.6.6 1 1.3 1 2.4 0 .8-.2 1.4-.5 1.8-.2.3-.6.6-1.1.9.4.1.7.3 1 .8.3.5.4 1.2.4 1.9v2.7h-1.2v-2.8c0-.7-.2-1.2-.4-1.5-.3-.3-.8-.4-1.4-.4h-8v.1zm0-5.6v4.5h7.6c.8 0 1.4-.2 1.8-.6.4-.4.7-1.1.7-2 0-.6-.2-1.1-.7-1.4-.4-.4-1-.6-1.7-.6l-7.7.1zM162.6 27.8h12.6V29h-5.7v10.4h-1.2V28.9h-5.6v-1.1zM188.3 39.4H187V27.8h1.2v11.6zM201.4 39.4H200l6.1-11.6h1.9l6.1 11.6h-1.4l-1.5-2.9H203l-1.6 2.9zm2.1-4.1h6.9l-3.5-6.7-3.4 6.7z" style="fill:#fff"/></svg>