<svg xmlns="http://www.w3.org/2000/svg" xml:space="preserve" style="enable-background:new 0 0 13 18" viewBox="0 0 13 18"><path d="M1.9 1.9C3.1.6 4.7 0 6.5 0s3.3.6 4.6 1.9C12.4 3.1 13 4.5 13 6.3c0 .9-.2 1.9-.7 3-.4 1.1-1 2.2-1.6 3.2-.6 1-1.3 1.9-1.9 2.7-.6.8-1.2 1.5-1.6 2l-.7.8c-.2-.2-.4-.4-.7-.8-.3-.3-.8-1-1.6-1.9-.7-1-1.4-1.9-2-2.8-.6-.9-1.1-2-1.6-3.1C.2 8.2 0 7.2 0 6.3c0-1.8.6-3.2 1.9-4.4zm2.9 6c.5.4 1 .6 1.7.6s1.2-.2 1.7-.6c.5-.5.7-1 .7-1.6 0-.6-.2-1.1-.7-1.6-.5-.5-1-.7-1.7-.7s-1.2.3-1.7.7c-.4.5-.6 1-.6 1.6 0 .6.2 1.2.6 1.6z" style="fill:#e33419"/></svg>