<svg xmlns="http://www.w3.org/2000/svg" xml:space="preserve" style="enable-background:new 0 0 96 96" viewBox="0 0 96 96"><path d="M63.8 43.7c3.8-5.1 5.8-11.1 5.8-17.4v-16c0-1.6-1.3-2.8-2.8-2.8-3.6 0-6.7-2-8.3-5.2l-.5-.7C57.5.6 56.5 0 55.5 0h-15c-1.1 0-2 .6-2.5 1.6l-.4.8c-1.6 3.2-4.8 5.2-8.3 5.2-1.6 0-2.8 1.3-2.8 2.8v16c0 6.3 2 12.3 5.8 17.4 3.8 5.1 9 8.7 15 10.5.3.1.5.1.8.1s.5 0 .8-.1c6-1.9 11.1-5.5 14.9-10.6zm-5.9-19.8L47.3 34.5c-.5.5-1.3.8-2 .8s-1.4-.3-2-.8L38 29.2c-1.1-1.1-1.1-2.9 0-4s2.9-1.1 4 0l3.3 3.3 8.6-8.6c1.1-1.1 2.9-1.1 4 0s1.1 2.9 0 4zM90.2 25.7c-3.1.1-5.5 2.7-5.5 5.7v23.3L74.1 73c-.5.9-1.4 1.4-2.4 1.4-2.2 0-3.5-2.4-2.4-4.3l7.4-12.7c1.9-3.2.8-7.4-2.5-9.2-3.1-1.8-7.1-.9-9 2.1L54.5 66.5c-1.8 2.8-2.8 6-2.8 9.3v17.4c0 1.6 1.3 2.8 2.8 2.8h29.2c1.6 0 2.8-1.3 2.8-2.8V82.9L96 60.4V31.3c0-3.1-2.6-5.7-5.8-5.6zM30.9 50.4c-2-3-5.9-3.9-9-2.1-3.2 1.9-4.3 6-2.5 9.2l7.4 12.7c1.1 1.9-.3 4.3-2.4 4.3-1 0-1.9-.5-2.4-1.4L11.2 54.8V31.4c0-3.1-2.4-5.7-5.5-5.7-3.1-.1-5.7 2.5-5.7 5.6v29.1l9.4 22.5v10.3c0 1.6 1.3 2.8 2.8 2.8h29.2c1.6 0 2.8-1.3 2.8-2.8V75.7c0-3.3-1-6.5-2.8-9.3l-10.5-16z" style="fill:#fff"/></svg>