<svg xmlns="http://www.w3.org/2000/svg" xml:space="preserve" style="enable-background:new 0 0 88.9 63.7" viewBox="0 0 88.9 63.7"><path d="M70 37h18.9v-3.2c0-.4-.1-.8-.4-1.1L73.3 12.1c-.4-.5-1-.8-1.6-.8h-6v21.5c0 2.3 1.9 4.2 4.3 4.2zM15.7 53.8c-1 0-1.8.8-1.8 1.8s.8 1.8 1.8 1.8 1.8-.8 1.8-1.8-.8-1.8-1.8-1.8z" style="fill:#e33419"/><path d="M15.7 44.7c5.6 0 10.3 4.2 11 9.5h28V42.7H1.5c-.8 0-1.4.6-1.4 1.4v8.7c0 .8.6 1.4 1.4 1.4h3.2c.7-5.4 5.3-9.5 11-9.5zM29.8 6.2h3.4v2.9h-3.4V6.2zM24.4 33.5c2.7 0 4.9-2.2 4.9-4.8 0-1.8-2.7-6.2-4.9-9.3-2.2 3.1-4.9 7.5-4.9 9.3 0 2.6 2.2 4.8 4.9 4.8zM28.3 3.3h8.1c.9 0 1.7-.7 1.7-1.7 0-.9-.8-1.7-1.7-1.7h-9.9c-.9 0-1.7.7-1.7 1.7 0 .9.8 1.7 1.7 1.7h1.8z" style="fill:#e33419"/><path d="M34.6 39.8c7.8 0 14.2-6.3 14.2-14s-6.4-14-14.2-14H14.2C6.4 11.9 0 18.2 0 25.9s6.4 14 14.2 14h20.4zM23.2 16c.5-.7 1.7-.7 2.3 0 1.1 1.4 6.6 8.9 6.6 12.6 0 4.2-3.5 7.7-7.8 7.7s-7.8-3.4-7.8-7.7c.1-3.7 5.6-11.1 6.7-12.6zM73.3 47.5c-4.5 0-8.2 3.6-8.2 8.1s3.7 8.1 8.2 8.1c4.5 0 8.2-3.6 8.2-8.1s-3.7-8.1-8.2-8.1zm0 12.7c-2.6 0-4.7-2.1-4.7-4.6 0-2.5 2.1-4.6 4.7-4.6s4.7 2.1 4.7 4.6c0 2.6-2.1 4.6-4.7 4.6z" style="fill:#e33419"/><path d="M70 39.8c-3.9 0-7.2-3.2-7.2-7.1V11.3h-5.3v42.9h4.8c.7-5.4 5.4-9.5 11-9.5s10.3 4.2 11 9.5h4.6V39.8H70z" style="fill:#e33419"/><path d="M73.3 53.8c-1 0-1.8.8-1.8 1.8s.8 1.8 1.8 1.8 1.8-.8 1.8-1.8-.8-1.8-1.8-1.8zM15.7 47.5c-4.5 0-8.2 3.6-8.2 8.1s3.7 8.1 8.2 8.1 8.2-3.6 8.2-8.1-3.7-8.1-8.2-8.1zm0 12.7c-2.6 0-4.7-2.1-4.7-4.6 0-2.5 2.1-4.6 4.7-4.6s4.7 2.1 4.7 4.6c0 2.6-2.1 4.6-4.7 4.6z" style="fill:#e33419"/></svg>