<svg xmlns="http://www.w3.org/2000/svg" xml:space="preserve" style="enable-background:new 0 0 88.9 63.7" viewBox="0 0 88.9 63.7"><path d="M27.6 45H0V0h59.6v45H31.1v-5.6c8.8-.1 16-7.6 16-17 0-1.5-1.2-2.7-2.6-2.7h-.9c-2.9 0-5.6.8-7.9 2.2 1.9-5.8.4-12.4-4.5-17-1-.9-2.7-.9-3.7 0-5 4.6-6.5 11.2-4.5 17-2.3-1.4-5.1-2.2-7.9-2.2h-.9c-1.4 0-2.6 1.2-2.6 2.7 0 9.3 7.2 16.9 16 17V45zm35.5 9.4V15h14.2c2.4 0 4.5 1.2 5.4 3.6l.7 2h-9.7c-2 0-3.6 1.7-3.6 3.7v7.5c0 3.1 2.4 5.6 5.3 5.6h9.7c1.4 0 2.6-.6 3.6-1.4 0 .3.1.5.1.8v11.9c0 3.1-2.4 5.6-5.3 5.6h-1.6c-1.4-3.3-4.5-5.6-8.2-5.6-3.6 0-6.8 2.3-8.2 5.6h-2.4zm-48.9-5.7c-3.6 0-6.8 2.3-8.2 5.6H0v-5.6h14.2zm8.2 5.7c-1.4-3.3-4.5-5.6-8.2-5.6h45.3v5.6H22.4zM63.1 1.9v9.4h11.7l-.4-1c-1.7-5.1-6.2-8.4-11.3-8.4zm21.1 22.5H73.8v7.5c0 1 .8 1.9 1.8 1.9h9.7c1.3 0 2.1-1.4 1.6-2.6l-2.7-6.8zm-40.7-1c-.5 6.8-5.8 12.1-12.4 12.2.6-6.8 5.9-12.1 12.4-12.2zm-28.3 0c.5 6.8 5.8 12.1 12.4 12.2-.6-6.8-5.9-12.1-12.4-12.2zM29.3 8.2c4.6 5 4.6 12.4 0 17.4-4.5-5-4.5-12.4 0-17.4zm39.2 49.9c0-3.1 2.4-5.6 5.3-5.6s5.3 2.5 5.3 5.6c0 3.1-2.4 5.6-5.3 5.6-3 0-5.3-2.5-5.3-5.6zM88 46.9c0-1.6-1.2-2.8-2.7-2.8s-2.7 1.3-2.7 2.8 1.2 2.8 2.7 2.8 2.7-1.3 2.7-2.8zM8.9 58.1c0-3.1 2.4-5.6 5.3-5.6s5.3 2.5 5.3 5.6c0 3.1-2.4 5.6-5.3 5.6s-5.3-2.5-5.3-5.6z" style="fill-rule:evenodd;clip-rule:evenodd;fill:#27ae60"/></svg>