<svg xmlns="http://www.w3.org/2000/svg" xml:space="preserve" style="enable-background:new 0 0 96 78.3" viewBox="0 0 96 78.3"><path d="m55.1 31.2-5.6 5.5c-3.4 3.4-9 3.4-12.4 0-1.6-1.6-2.6-3.8-2.6-6.2 0-2.3.9-4.5 2.6-6.2l5.6-5.6-4.1-4.1-24 24.1 5.1 5.1c2-1.5 4.4-2.3 7-2.3 3.1 0 6.1 1.2 8.3 3.4 1.6 1.6 2.6 3.5 3.1 5.5 2.1.5 4 1.6 5.5 3.1s2.6 3.5 3.1 5.5c2.1.5 4 1.6 5.5 3.1 4.1 4.1 4.5 10.6 1.2 15.2.9.6 2 .9 3 .9 1.5 0 2.9-.6 4-1.7 2.2-2.2 2.2-5.8 0-8 1.1 1.1 2.6 1.7 4 1.7 1.5 0 2.9-.6 4-1.7 2.2-2.2 2.2-5.8 0-8 1.1 1.1 2.6 1.7 4 1.7s2.9-.6 4-1.7c2.2-2.2 2.2-5.8 0-8L55.1 31.2z" style="fill:#fff"/><path d="M48.2 75c2.4-2.4 2.5-6.2.2-8.6-1.2-1.3-2.8-1.9-4.4-1.9-1.6 0-3.1.6-4.3 1.8 2.4-2.4 2.4-6.3 0-8.6-1.2-1.2-2.8-1.8-4.3-1.8-1.6 0-3.1.6-4.3 1.8 2.4-2.4 2.4-6.3 0-8.6-1.2-1.2-2.8-1.8-4.3-1.8-1.6 0-3.1.6-4.3 1.8L21 50.6c-2.4 2.4-2.4 6.3 0 8.6l17.3 17.3c2.4 2.4 6.2 2.4 8.6 0-.1 0 1.3-1.5 1.3-1.5zM41.2 32.7c1.2 1.2 3.1 1.2 4.3 0l9.6-9.5 22.1 22 1.9-1.9c1.3-1.3 2-3 2.2-4.7L58 15.3c-2.2 0-4.5.9-6.3 2.5-2.5 2.5-7.6 7.5-10.5 10.4-1.2 1.3-1.2 3.3 0 4.5zM86.9 36.2l9.1-9.1L68.9 0l-9.1 9.1 27.1 27.1zM0 27.1 27.1 0l9.1 9.1L9.1 36.2 0 27.1z" style="fill:#fff"/></svg>