<svg xmlns="http://www.w3.org/2000/svg" xml:space="preserve" style="enable-background:new 0 0 90 88.9" viewBox="0 0 90 88.9"><path d="m50.7 1.9 5.7 4.3C58 7.4 59.6 8 61.6 8.1l7.1.4c4.3.2 7.7 3.1 8.7 7.3l1.6 7c.4 1.9 1.3 3.4 2.7 4.8l5.2 4.9c3.1 2.9 3.9 7.4 2 11.2l-3.2 6.4c-.9 1.7-1.2 3.5-1 5.4l.8 7.1c.5 4.2-1.8 8.2-5.7 9.8l-6.6 2.8c-1.8.8-3.1 1.9-4.2 3.5l-3.9 6c-2.3 3.6-6.6 5.1-10.7 3.9l-6.8-2.1c-1.9-.6-3.6-.6-5.5 0l-6.8 2.1c-4.1 1.2-8.3-.3-10.7-3.9l-3.9-6c-1.1-1.6-2.4-2.8-4.2-3.5l-6.6-2.8c-3.9-1.7-6.2-5.6-5.7-9.8l.8-7.1c.2-1.9-.1-3.7-1-5.4l-3-6.5c-1.9-3.8-1.1-8.3 2-11.2l5.2-4.9c1.4-1.3 2.3-2.9 2.7-4.8l1.6-7c1-4.2 4.4-7.1 8.7-7.3l7.1-.4c2.1 0 3.7-.6 5.3-1.8l5.7-4.3c3.4-2.5 8-2.5 11.4 0zm-9.3 45-6.2-6.2c-1.6-1.6-4.2-1.6-5.8 0-1.6 1.6-1.6 4.2 0 5.8l9.1 9.1c1.6 1.6 4.2 1.6 5.8 0 5.5-5.5 10.9-11.1 16.4-16.6 1.6-1.6 1.6-4.2 0-5.8-1.6-1.6-4.2-1.6-5.8 0L41.4 46.9zM45 13.8c-8.5 0-16.1 3.4-21.7 9-5.5 5.5-9 13.2-9 21.7s3.4 16.1 9 21.7c5.5 5.5 13.2 9 21.7 9s16.1-3.4 21.7-9c5.5-5.5 9-13.2 9-21.7s-3.4-16.1-9-21.7c-5.6-5.6-13.2-9-21.7-9zm19.6 11.1c-5-5-11.9-8.1-19.6-8.1s-14.6 3.1-19.6 8.1c-5 5-8.1 11.9-8.1 19.6S20.4 59 25.4 64s11.9 8.1 19.6 8.1S59.6 69 64.6 64c5-5 8.1-11.9 8.1-19.6 0-7.6-3.1-14.5-8.1-19.5z" style="fill-rule:evenodd;clip-rule:evenodd;fill:#fff"/></svg>