<svg xmlns="http://www.w3.org/2000/svg" xml:space="preserve" style="enable-background:new 0 0 82.4 96" viewBox="0 0 82.4 96"><path d="M28.4 70.8c-.5-7-3.2-11.8-5.8-16.4-3.4-6.2-7-12.7-4.9-23.8 1.1-5.9 4.1-10.9 8.7-14.2 4.1-3.1 9.4-4.8 14.8-4.8 5.5 0 10.7 1.7 14.8 4.8 4.6 3.4 7.6 8.3 8.7 14.2 2.1 11.2-1.5 17.6-4.9 23.8-2.6 4.7-5.3 9.4-5.8 16.4-.3-.1-.7-.1-1.1-.1H29.6c-.4 0-.8 0-1.2.1zm-1.3-37.6c-.1 0-.1 0-.2-.1-.5-.1-.8-.6-.8-1.1 1.6-8.3 8.7-12 15-12 .6 0 1 .4 1 1 0 .5-.4 1-1 1-5.6 0-11.8 3.2-13.2 10.4.1.5-.3.8-.8.8zM52.8 79.7H29.6c-2 0-3.6-1.6-3.6-3.6s1.6-3.5 3.6-3.5h23.2c2 0 3.6 1.6 3.6 3.5 0 2-1.6 3.6-3.6 3.6zM49.8 85H32.6c-1.9 0-3.5-1.5-3.6-3.4H53.4c-.1 1.9-1.7 3.4-3.6 3.4zM47 90.3H35.4c-1.9 0-3.5-1.5-3.5-3.5.2.1.4.1.7.1h17.3c.2 0 .5 0 .7-.1-.1 2-1.7 3.5-3.6 3.5zM41.2 96c-2.6 0-4.9-1.6-6-3.8H47.2c-1.1 2.2-3.4 3.8-6 3.8zM41.2 6.3c-.5 0-.9-.4-.9-1V1c0-.6.4-1 .9-1 .6 0 1 .4 1 1v4.4c-.1.4-.5.9-1 .9zM59.1 11.1c-.2 0-.3 0-.5-.1-.4-.3-.6-.8-.3-1.3l2.2-3.8c.2-.4.8-.6 1.2-.3.4.3.6.8.4 1.3l-2.2 3.8c-.2.2-.5.4-.8.4zM72.2 24.2c-.3 0-.6-.2-.8-.4-.3-.4-.1-1 .3-1.3l3.8-2.2c.4-.3 1-.1 1.2.3.3.4.1 1-.3 1.3l-3.8 2.2c-.1.1-.2.1-.4.1zM81.4 42.1H77c-.5 0-.9-.4-.9-1 0-.5.4-.9.9-.9h4.4c.5 0 1 .4 1 .9 0 .6-.5 1-1 1zM23.3 11.1c-.3 0-.6-.2-.8-.4l-2.2-3.8c-.2-.4-.1-1 .3-1.3.4-.3 1-.1 1.3.3l2.2 3.8c.3.4.1 1-.3 1.3-.2.1-.3.1-.5.1zM10.2 24.2c-.2 0-.3 0-.5-.1l-3.8-2.2c-.4-.3-.6-.8-.3-1.3.3-.4.8-.6 1.3-.3l3.8 2.2c.4.3.6.8.3 1.3-.2.2-.5.4-.8.4zM5.3 42.1H1c-.5 0-1-.4-1-1 0-.5.4-.9 1-.9h4.4c.6 0 1 .4 1 .9-.1.6-.5 1-1.1 1z" style="fill-rule:evenodd;clip-rule:evenodd;fill:#fff"/></svg>