<svg xmlns="http://www.w3.org/2000/svg" xml:space="preserve" style="enable-background:new 0 0 40.2 33.3" viewBox="0 0 40.2 33.3"><path d="M2.8 14.3c10.8-4.7 18-7.8 21.6-9.3C34.7.7 36.8 0 38.2 0c.3 0 1 .1 1.4.4.7.5.7 1.7.6 2.5-.6 5.9-3 20-4.2 26.6-.5 2.8-1.5 3.7-2.5 3.8-2.1.2-3.8-1.4-5.9-2.8-3.3-2.1-5.1-3.5-8.3-5.5-3.7-2.4-1.3-3.7.8-5.9.5-.6 10-9.2 10.2-10 0-.1 0-.5-.2-.7-.2-.2-.5-.1-.8-.1-.3.1-5.5 3.5-15.6 10.3-1.5 1-2.8 1.5-4 1.5-1.3 0-3.9-.7-5.8-1.4-2.3-.8-4.2-1.2-4-2.4.2-.6 1.1-1.3 2.9-2z" style="fill-rule:evenodd;clip-rule:evenodd;fill:#fff"/></svg>